<svg width="611" height="562" viewBox="0 0 611 562" fill="none" xmlns="http://www.w3.org/2000/svg">
<g clip-path="url(#clip0)">
<rect width="610.93" height="561.94" fill="#18171F"/>
<path d="M371.49 441.491C371.95 423.128 375.77 405.159 378.05 387.017C380.98 363.76 384.56 340.502 387.87 317.244C390.55 298.405 392.98 279.515 396.09 260.747C396.98 255.358 396.26 252.577 390.62 252.142L398.12 245.154C397.69 252.405 401.29 253.588 407.21 251.303L480.09 250.2C483.15 252.648 484.02 250.109 485.09 247.976L491.9 248.158L493.47 249.735L491.94 252.84L493.43 305.241C498.62 324.312 494.77 343.899 496.6 363.102C498.97 387.806 497.47 412.763 502.09 437.335C503.27 443.615 509.35 447.741 508.33 454.577C504.2 453.717 501.24 449.662 496.89 449.763C482.64 450.087 468.36 449.227 454.15 450.946C448.56 449.136 448.67 444.252 448.94 439.914C449.82 425.666 445.7 411.853 445.68 397.696C445.68 396.836 444.85 395.977 444.4 395.107C444.895 382.82 443.751 370.521 441 358.542C435.316 374.216 431.45 390.504 429.48 407.08C424.92 418.203 423.27 430.024 422 441.906C421.56 446.012 421.44 450.613 415.53 450.795C404.92 450.956 394.3 451.199 383.69 451.229C377.26 451.229 370.86 451.088 365.13 454.718C363.55 451.482 366.37 450.4 368 448.712C369.975 446.801 371.212 444.241 371.49 441.491ZM481.3 350.25C481.002 350.685 480.856 351.208 480.883 351.737C480.91 352.266 481.109 352.77 481.45 353.172L483 398.171C482.669 398.609 482.52 399.16 482.584 399.707C482.647 400.254 482.918 400.755 483.34 401.104C483.25 421.692 483.92 427.557 487.48 431.764V416.1C487.946 415.17 488.17 414.135 488.131 413.093C488.093 412.051 487.793 411.036 487.26 410.144C486.827 400.14 486.407 390.145 486 380.161C486.45 379.226 486.664 378.192 486.622 377.153C486.58 376.113 486.284 375.101 485.76 374.205C485.387 367.188 485.023 360.173 484.67 353.162C484.959 352.722 485.101 352.2 485.076 351.673C485.051 351.145 484.859 350.639 484.53 350.23C484.083 340.232 483.637 330.224 483.19 320.207C483.09 306.12 483.62 291.994 480.82 278.069C483.59 275.309 481.47 272.953 480.21 270.536C480.91 268.008 479.21 265.025 481.79 262.82C482.98 261.809 486.07 262.547 485.32 260.019C484.47 257.198 481.55 258.32 479.51 258.341C455.777 258.556 432.04 258.836 408.3 259.18C406.821 259.127 405.342 259.27 403.9 259.605C403.473 259.769 403.09 260.032 402.781 260.373C402.472 260.713 402.245 261.122 402.12 261.566C401.97 262.578 402.91 263.306 404.03 263.346C405.76 263.417 407.49 263.478 409.22 263.447C428.5 263.164 447.783 262.864 467.07 262.547C476.84 262.375 476.72 262.325 477.21 271.81C478 287.949 479 304.128 480 320.247L481.3 350.25ZM434 327.75C433.81 328.761 433.63 329.833 433.44 330.865L432.67 333.777C424.99 359.452 418.73 385.501 412.38 411.519C409.59 417.071 408.88 423.219 407.28 429.114C406.9 430.5 406.61 432.269 408.38 432.916C410.68 433.756 411.38 431.905 411.82 430.206C413.31 424.028 414.7 417.809 416.13 411.61C417.97 404.936 420.03 398.313 421.61 391.568C426.11 372.294 432.48 353.476 435.76 333.929C437.07 333.595 438.36 330.754 439.67 333.797C440.19 335.011 439.56 337.225 441.84 336.75C443.84 336.315 442.99 334.323 443.03 332.988C443.35 322.634 441.03 312.42 441.4 301.974C441.51 299.072 441.46 294.38 437.13 291.68C439.52 304.128 437 315.97 434 327.75Z" fill="#171717"/>
<path d="M211.76 323.958C211.92 324.707 212.09 325.465 212.26 326.213C212.062 326.438 211.919 326.707 211.842 326.997C211.765 327.288 211.757 327.593 211.817 327.887C211.877 328.182 212.005 328.458 212.189 328.694C212.374 328.93 212.61 329.12 212.88 329.247L213.52 331.987C213.181 332.924 213.111 333.938 213.318 334.914C213.525 335.889 214.001 336.785 214.69 337.498C214.84 338.247 215 338.995 215.15 339.733C214.27 340.997 214.64 341.958 215.84 342.767C216.06 343.677 216.27 344.587 216.48 345.507C216.121 346.444 216.047 347.467 216.266 348.447C216.485 349.427 216.988 350.318 217.71 351.008L218.19 353.263C217.817 353.875 217.686 354.606 217.823 355.311C217.96 356.016 218.356 356.642 218.93 357.065L219.71 360.746C219.509 361.049 219.373 361.391 219.311 361.751C219.248 362.11 219.261 362.479 219.347 362.833C219.434 363.187 219.593 363.519 219.814 363.807C220.035 364.096 220.313 364.334 220.63 364.508L221.1 366.733C220.524 369.223 220.576 371.821 221.25 374.286C221 376.005 220.74 377.724 220.49 379.443C219.809 380.127 219.364 381.015 219.221 381.976C219.079 382.936 219.247 383.917 219.7 384.773L218.84 390.759C218.273 391.342 217.911 392.097 217.81 392.908C217.709 393.719 217.874 394.542 218.28 395.249C218.04 396.978 217.8 398.697 217.57 400.426C216.898 401.112 216.459 401.995 216.315 402.949C216.172 403.903 216.331 404.878 216.77 405.735C216.52 407.454 216.28 409.173 216.03 410.892C215.357 411.583 214.916 412.471 214.771 413.429C214.626 414.388 214.783 415.368 215.22 416.231L214.35 422.208C213.756 422.775 213.371 423.53 213.26 424.349C213.149 425.167 213.319 426 213.74 426.708C213.5 428.427 213.25 430.136 213.01 431.855C212.371 432.566 211.958 433.456 211.824 434.408C211.69 435.36 211.842 436.33 212.26 437.194C212.01 438.903 211.76 440.622 211.52 442.331C209.92 444.353 210.14 446.861 209.73 449.207C206.15 450.653 202.36 449.622 198.73 450.127C193.25 450.896 187.42 448.358 182.22 451.856C180.98 449.591 178.51 450.501 176.71 449.682L178.18 435.606C178.587 435.229 178.855 434.723 178.939 434.171C179.022 433.62 178.917 433.055 178.64 432.573L185.21 387.786C185.43 386.269 185.64 384.752 185.86 383.256C187 380.161 187.66 377.006 186.46 373.811C180.98 359.209 176.75 344.142 170.34 329.894L169.11 327.872L168.22 325.94C167.83 321.612 166.73 317.304 167.65 312.916C168.74 310.105 169.45 307.233 168.01 304.361C167.741 304.151 167.423 304.014 167.088 303.963C166.752 303.912 166.408 303.948 166.09 304.068C163.72 306.353 164.09 309.417 164.09 312.35C164.134 312.593 164.215 312.829 164.33 313.047C164.1 314.979 163.88 316.91 163.65 318.841C163.073 319.748 162.708 320.776 162.583 321.846C162.458 322.917 162.577 324.003 162.93 325.02L162.34 329.378C160.391 337.265 159.59 345.396 159.96 353.516C159.74 355.437 159.523 357.359 159.31 359.28C157.921 362.648 157.539 366.353 158.21 369.938L157.91 372.769C156.485 376.643 156.065 380.82 156.69 384.904L156.39 387.735C155.096 391.14 154.774 394.843 155.46 398.424L154.8 404.198C153.551 407.074 153.27 410.286 154 413.339C153.333 419.258 152.667 425.181 152 431.106C151.32 431.927 150.899 432.936 150.792 434.001C150.685 435.067 150.897 436.14 151.4 437.083L150.4 447.559L148.69 450.592L117.76 451.604L117.31 451.341L116.87 451.604C116.75 448.681 116.58 445.769 116.54 442.846C116.47 436.355 118.48 429.852 116.54 423.36C117.98 421.035 119.54 418.719 116.76 416.282C119.53 407.929 118.87 399.334 118.53 390.759L118.45 389.03C118.812 388.125 119.074 387.182 119.23 386.219C121.37 349.279 123.11 312.329 123.4 275.329L124.46 273.61C127.87 271.507 131.71 272.953 135.3 272.305C135.708 272.667 136.232 272.866 136.775 272.866C137.318 272.866 137.842 272.667 138.25 272.305L199.67 272.113L201.02 275.38L201.71 278.069C201.42 278.603 201.325 279.223 201.442 279.82C201.559 280.418 201.88 280.954 202.35 281.336C202.55 282.256 202.74 283.176 202.94 284.096C202.649 284.897 202.588 285.765 202.765 286.599C202.942 287.433 203.35 288.199 203.94 288.808L204.54 291.559C204.45 295.351 204.88 299.022 207.02 302.278C207.23 303.198 207.43 304.108 207.63 305.028C207.331 305.563 207.233 306.189 207.354 306.791C207.476 307.393 207.808 307.931 208.29 308.305L209.16 312.501C208.859 313.044 208.772 313.681 208.914 314.286C209.057 314.891 209.42 315.42 209.93 315.767C210.13 316.688 210.32 317.598 210.51 318.508C210.191 319.443 210.139 320.451 210.36 321.415C210.581 322.379 211.066 323.26 211.76 323.958Z" fill="#F9F9F9"/>
<path d="M199.64 272.063L138.22 272.255C137.22 271.132 136.22 271.244 135.27 272.255C131.68 272.902 127.84 271.456 124.43 273.559L122.83 273.681L120.55 273.772C119.36 272.083 117.7 272.528 116.08 272.76C113.79 272.245 112.82 273.013 113.5 275.41L113.2 287.281L112 297.808C108.08 297.373 108.51 294.37 108.49 291.68C108.49 285.269 108.36 278.858 108.49 272.467C108.61 267.573 107.39 265.106 102.2 267.988C100.12 269.15 98.43 269.221 98.01 266.258C108.3 254.963 119.14 244.244 130.38 233.9C139.02 233.9 147.94 235.922 155.72 230.097C157.37 230.583 158.59 232.282 160.57 231.816C167.45 231.766 174.34 231.604 181.22 231.685C184.85 231.685 186.52 230.279 186.87 226.548C187.75 217.174 188.75 207.81 190.01 198.487C190.62 194.038 188.95 192.834 184.81 192.966C177.2 193.198 169.58 193.036 161.97 193.047C155.05 190.013 148.29 192.339 140.23 193.512L145.79 195.969C147.15 201.328 145.26 203.604 139.79 202.431C139.51 201.419 138.79 200.843 137.79 201.288C136.79 201.733 136.73 202.613 137.72 203.31L137.83 206.293C135.77 206.799 132.83 205.282 132.05 208.741C128.35 213.119 126.9 219.449 120.92 221.886C118.92 221.401 117.73 222.159 117.26 224.141L104.26 231.806L102.76 227.761C104.4 224.728 105.61 221.3 107.76 218.661C117.66 206.526 118.93 192.622 116.32 177.899C115.38 172.59 116.13 164.53 111.94 162.923C107.1 161.072 104 168.919 99.73 172.023C96.54 168.11 99.48 165.602 101.98 163.378C110.27 155.986 120.98 152.972 130.78 148.725C137.45 145.843 143.43 143.841 145.85 136.398C146.3 135.033 147.53 134.71 148.76 134.457C152.88 138.269 156.7 142.648 163.07 142.274C166.52 144.144 169.59 141.707 172.85 141.404C173.67 149.888 180.01 151.304 186.66 152.618C189.263 153.279 191.771 154.278 194.12 155.591C199.55 158.301 203.58 161.982 202 168.939L202.32 177.878C200.32 179.223 200.74 180.224 202.76 181.003C205.03 194.826 204.85 208.801 205.15 222.736C206.49 225.233 202.61 228.803 206.72 230.724L210.45 239.502C204.26 239.694 203.74 244.295 203.65 248.815C203.47 257.633 203.65 266.471 203.65 275.299H202.38C201.73 274.045 201.76 272.154 199.64 272.063ZM178.81 153.043C177.787 152.731 176.709 152.644 175.65 152.789C174.591 152.933 173.574 153.306 172.67 153.882L170.93 153.822C169.42 152.365 169.26 149.19 166.03 149.939C161.673 149.341 157.633 147.304 154.54 144.144C153.09 142.739 151.79 141.192 149.59 142.536C146.49 144.438 150.2 146.147 149.8 147.987L146.73 148.402C142.49 146.521 142.93 149.898 142.45 152.254L138.15 152.588C137.694 152.633 137.236 152.633 136.78 152.588C136.06 152.113 135.5 152.244 135.15 153.073C131.37 154.418 131.53 157.118 132.6 160.283C136.22 171.073 142.01 179.982 152.93 184.552C153.47 186.494 154.39 187.232 156.06 185.564L166.48 185.634C168.1 187.313 169.04 186.646 169.63 184.724C173.417 183.061 176.608 180.262 178.77 176.705C180.62 176.26 181.59 175.451 180.04 173.601L180.81 170.81C182.44 169.95 182.98 168.929 181.28 167.574C181.33 164.075 181.39 160.577 181.44 157.078C183.48 153.71 181 153.458 178.81 153.043V153.043Z" fill="#171717"/>
<path d="M422.41 147.957C421.733 152.234 422.174 156.616 423.69 160.668C424.15 161.911 424.95 163.55 426.69 161.679L426.55 161.598C423.42 164.298 426.73 164.915 428.01 166.179C432.45 170.881 437.89 170.153 443.33 168.899C444.45 168.646 446.43 167.888 444.42 166.067C447.96 167.989 449.27 167.321 450.36 163.034C455.29 161.628 456.36 159.778 454.83 155.541C460.55 154.914 458.97 150.222 459.66 146.773C461.45 144.448 463.66 145.914 465.72 146.106C468.229 147.89 471.223 148.844 474.29 148.836L481.56 150.93C481.873 151.44 482.342 151.834 482.895 152.053C483.449 152.272 484.057 152.303 484.63 152.143C488.648 154.538 492.17 157.697 495 161.446C494.969 162.221 495.137 162.99 495.488 163.679C495.838 164.369 496.359 164.954 497 165.38L498.18 168.868C498.259 171.993 499.364 175.003 501.32 177.423C502.25 180.063 503.19 182.702 504.12 185.351C506.97 197.597 506.97 197.597 494.52 202.097C493.36 202.522 492.15 202.845 491.03 203.361C487.49 204.999 485.64 203.664 484.33 200.166C481.29 191.995 478.08 183.905 474.7 175.896C473.75 173.652 473.55 169.01 470.29 170.304C467.03 171.599 470.02 175.108 470.85 177.383C473.58 184.866 476.69 192.207 479.56 199.63C480.794 202.607 481.797 205.677 482.56 208.811C483.56 213.564 483.15 215.667 476.79 214.08C462.49 210.5 448.7 205.363 434.56 201.308C427.77 199.367 421.11 197.546 414.41 201.197C409.22 204.028 407.63 201.096 407.47 196.697C407.23 189.619 405.04 183.066 402.71 176.473C402.44 171.771 400.86 168.272 395.38 168.242C391.02 168.242 392.06 165.805 393.38 163.408C396.54 157.775 401.38 154.176 407.25 151.84C411.12 150.313 414.91 148.584 418.74 146.945L422.41 147.957Z" fill="#F6F6F6"/>
<path d="M244.77 420.347C244.557 418.405 244.343 416.464 244.13 414.522C245.66 411.256 246.13 408.121 243.07 405.421L242.61 401.083C245.39 396.027 239.15 386.856 249.75 385.46L298.64 384.985C298.64 386.36 298.64 387.725 298.69 389.101C295.52 392.731 297.62 397.099 297.26 401.063C295.63 419.043 294.54 437.072 293.26 455.092C290.8 469.694 290.8 469.664 275.65 469.947C271.96 470.018 268.27 470.351 264.59 470.554C262.145 469.776 259.518 469.804 257.09 470.635C254.2 469.623 250.49 469.765 249.84 465.518C251.46 464.092 250.84 463.121 249.22 462.322C248.98 459.885 248.73 457.448 248.49 455.011C250.1 452.21 250.49 449.571 247.49 447.377L246.93 441.532C248.55 438.751 248.99 436.112 246.02 433.887C245.84 431.946 245.67 430.004 245.49 428.063C247.06 425.292 247.35 422.683 244.77 420.347Z" fill="#FDFDFD"/>
<path d="M104.32 231.817L117.32 224.152C118.089 224.224 118.86 224.043 119.519 223.637C120.179 223.231 120.691 222.62 120.98 221.896C126.98 219.48 128.41 213.15 132.11 208.751C133.11 216.84 138.56 218.155 145.27 217.589L145.85 220.066C144.31 221.077 143.53 222.24 144.62 224.03V226.225C143.91 227.145 143.3 228.095 143.78 229.339C142.97 232.666 140.32 232.13 137.91 232.302C135.5 232.474 132.47 231.078 130.48 233.889C119.24 244.204 108.4 254.923 98.11 266.248L93.85 268.271C93.2744 268.145 92.6753 268.187 92.1227 268.393C91.5702 268.599 91.0871 268.96 90.73 269.434H83.29C82.9453 268.95 82.4675 268.58 81.9162 268.37C81.3649 268.16 80.7645 268.118 80.19 268.25C77.19 266.825 74.89 264.469 72.72 262.001C71.2833 257.552 70.6069 252.887 70.72 248.208L71.32 245.427C71.8221 245.088 72.1871 244.578 72.3486 243.99C72.5101 243.402 72.4574 242.774 72.2 242.222L72.9 239.441C74.5733 237.247 75.395 234.51 75.21 231.746L75.84 228.955C78.6 228.348 75.9 220.339 81.35 224.222C85.67 227.256 90.46 229.602 95.35 232.878C93.18 234.355 91.53 235.366 90 236.579C88.47 237.793 85.91 238.673 87.81 241.059C89.17 242.778 91.09 241.271 92.38 240.301C96.33 237.388 101.07 235.659 104.32 231.817Z" fill="#F6F6F6"/>
<path d="M417.57 91.1062C415.8 94.3118 415.62 97.7802 415.95 101.34L413.17 101.562C411 96.2938 409 90.9849 409.91 85.0996C410.403 84.7586 410.778 84.2699 410.983 83.7022C411.187 83.1346 411.211 82.5164 411.05 81.9345C414 77.3335 418.05 75.1695 423.57 75.9987C425.87 78.1728 426.99 76.8785 427.77 74.5628L429.42 72.955L432.47 71.6707C433.276 71.7781 434.096 71.6982 434.867 71.4371C435.638 71.176 436.34 70.7406 436.92 70.164H450.3C450.666 70.6526 451.188 70.9968 451.778 71.1371C452.368 71.2774 452.987 71.205 453.53 70.9325L456.25 71.6303C456.548 72.17 457.029 72.5833 457.603 72.7949C458.178 73.0065 458.808 73.0023 459.38 72.7831L465.17 74.5527C468.87 77.0403 472.99 79.2548 471.92 84.8974C471.62 86.4749 470.08 88.7299 472.57 89.2557C475.38 89.8523 476.21 87.1423 476.57 84.9378C476.849 83.3238 476.764 81.6669 476.321 80.091C475.877 78.515 475.087 77.0607 474.01 75.8369C472.65 74.1785 470.41 72.9651 471.18 70.2146C475.27 69.4056 478.01 71.5494 480.39 74.492C480.279 75.0996 480.358 75.727 480.616 76.2869C480.875 76.8469 481.299 77.3117 481.83 77.6167C482.06 78.5369 482.28 79.4672 482.51 80.3975C481.82 84.0316 481.82 87.7653 482.51 91.3995L481.61 104.636C480.249 109.076 480.011 113.791 480.92 118.348L480.14 124.112C479.635 124.441 479.253 124.931 479.056 125.505C478.858 126.078 478.856 126.702 479.05 127.277C478.714 127.578 478.48 127.978 478.38 128.42H472.67L470.67 124.264C470.875 123.696 470.881 123.075 470.688 122.503C470.495 121.931 470.115 121.442 469.61 121.119C469.38 120.189 469.14 119.269 468.91 118.348C469.49 115.466 468.28 113.798 465.49 113.191C465.532 113.007 465.523 112.815 465.463 112.636C465.403 112.458 465.294 112.3 465.15 112.18C465.06 109.258 463.72 107.629 460.67 107.731C458.74 107.286 456.35 108.459 454.97 106.082C455.52 102.351 452.9 100.864 450.29 99.3678C442.8 95.0601 435.56 90.3984 430.13 83.4716C427.86 80.5795 425.55 81.0952 423.13 82.9457C420.43 84.9581 417.83 87.2535 417.57 91.1062Z" fill="#F3F3F3"/>
<path d="M491.87 248.178L485.06 247.996L484.83 248.269C486.03 246.044 484.48 246.034 483.01 245.963C475.25 239.795 466.11 235.73 458.54 229.238C451.95 223.565 445.05 218.256 438.28 212.786L435.2 210.086C435.32 208.892 435.43 207.709 435.55 206.526C440.78 209.378 446.79 209.266 452.31 211.036C465.97 215.394 479.78 219.186 493.79 222.321C496.69 222.968 498.34 222.928 500.49 218.802C496.49 221.219 494.79 217.73 491.63 217.872C488.27 218.013 488.33 215.051 487.8 212.189C487.15 208.66 489.01 208.72 491.1 207.972C496.89 205.95 502.62 203.674 508.38 201.51L510.7 204.746C510.424 205.281 510.351 205.899 510.495 206.484C510.638 207.068 510.989 207.58 511.48 207.922C511.77 209.358 512.06 210.793 512.34 212.229C512.048 212.745 511.947 213.348 512.055 213.932C512.163 214.516 512.473 215.041 512.93 215.415L513.68 221.219L513.59 236.62C512.07 243.385 506.75 245.933 501.07 248.067L491.87 248.178Z" fill="#F3F3F3"/>
<path d="M99.78 172.054C104.05 168.949 107.15 161.102 111.99 162.953C116.18 164.561 115.43 172.62 116.37 177.929C118.98 192.652 117.71 206.536 107.81 218.691C105.67 221.32 104.46 224.758 102.81 227.792C93.71 229.127 87.68 223.616 81.62 218.165C79.46 214.778 81.47 211.815 82.56 208.761C83.188 208.331 83.6895 207.738 84.0116 207.044C84.3337 206.349 84.4645 205.58 84.39 204.817L92.91 186.282C94.8447 184.476 96.013 181.982 96.17 179.324L99.78 172.054Z" fill="#F3F3F3"/>
<path d="M522.54 61.3765C518.681 61.3905 514.906 60.2448 511.692 58.085C508.479 55.9252 505.973 52.8487 504.492 49.2459C503.01 45.6431 502.621 41.6765 503.374 37.8497C504.126 34.0228 505.986 30.5083 508.717 27.7522C511.448 24.9961 514.927 23.1228 518.713 22.37C522.499 21.6171 526.421 22.0188 529.981 23.5239C533.541 25.0291 536.578 27.5698 538.707 30.8237C540.836 34.0776 541.961 37.8978 541.94 41.7994C541.893 46.9838 539.832 51.9418 536.203 55.6041C532.574 59.2664 527.667 61.3396 522.54 61.3765Z" fill="#7AF2C8"/>
<path d="M191.94 91.1164C188.39 94.6152 183.86 97.9624 191.65 101.967C192.076 102.232 192.444 102.583 192.731 102.997C193.018 103.412 193.217 103.882 193.316 104.378C193.416 104.874 193.413 105.386 193.309 105.881C193.205 106.375 193.001 106.843 192.71 107.255C190.71 110.4 187.4 108.894 184.66 109.409L183.17 108.934L183 102.897C182.33 98.377 179.54 99.9848 177 100.804C169.532 103.209 161.765 104.536 153.93 104.748C148.75 104.92 143.35 104.282 143.33 112.14C143.33 114.031 140.73 114.02 139.38 114.981C134.26 111.25 133.58 106.184 136.17 100.945C137.31 98.6399 138.17 96.577 138.08 94.0591C138.521 93.6727 138.841 93.1646 139.001 92.597C139.161 92.0295 139.154 91.4271 138.98 90.8636C141.11 86.2121 145.35 84.857 149.79 83.7852C152.38 84.5537 154.96 84.8975 157.5 83.6132C162.61 83.3604 166.88 80.7212 171.34 78.6482C176.34 76.3224 179.54 76.919 179.34 83.4211C178.34 84.1998 177.79 85.3222 178.34 86.3637C178.89 87.4053 180.22 87.2637 181.28 86.6671C185 87.8502 190.24 85.1402 191.94 91.1164Z" fill="#EEEDEE"/>
<path d="M454.12 450.967C468.33 449.248 482.61 450.107 496.86 449.783C501.21 449.682 504.17 453.737 508.3 454.597C508.44 454.799 508.56 455.022 508.72 455.214C511.21 458.146 518.32 457.934 516.34 463.526C514.62 468.37 508.91 466.013 505 466.155C491.21 466.64 477.4 466.752 463.6 466.964C453.93 467.106 453.7 466.822 454 456.913C454.06 454.931 454.08 452.949 454.12 450.967Z" fill="#EEEDEE"/>
<path d="M365.14 454.799C370.87 451.169 377.27 451.32 383.7 451.31C394.31 451.31 404.93 451.037 415.54 450.875C418.13 467.5 418.13 467.51 401.74 467.793C388.63 468.016 375.52 468.289 362.41 468.38C359.41 468.38 355.41 469.775 354.03 465.639C352.71 461.797 357.03 461.038 358.65 458.793C361.122 458.152 363.339 456.757 365 454.799H365.14Z" fill="#EEEDEE"/>
<path d="M211 453.565L226.44 462.424C228.23 463.435 229.96 464.628 229.49 466.984C228.94 469.725 226.68 470.17 224.34 470.2C207.06 470.432 189.79 470.614 172.51 470.908C168.04 470.979 166.23 468.885 166.51 464.527C166.72 461.554 166.68 458.561 166.75 455.578C169.67 455.234 172.58 454.688 175.51 454.567C187.4 454.172 199.22 453.889 211 453.565Z" fill="#F3F3F3"/>
<path d="M419.21 107.417C418.11 101.613 425.21 104.555 426.32 100.339C421.78 99.9442 417.43 99.0746 419.27 92.8455C423.98 85.767 428.54 86.3434 433.47 92.8455C435.19 95.1106 437.87 96.6477 440.2 98.5993C439.2 100.844 434.2 99.6105 435.78 103.028C436.88 105.486 441.24 105.243 442.34 104.313C446.83 100.51 449.14 103.362 451.72 106.406C453.3 112.291 457.36 118.186 451.72 124.082L448.87 127.399C446.98 128.521 445.13 129.735 443.19 130.756C430.19 137.602 418.68 130.554 418.9 115.881C418.9 113.656 419.05 111.432 419.13 109.207L423.13 108.438L419.21 107.417ZM428.88 118.702C431.25 115.669 428.88 111.381 431.33 108.317C432.07 107.397 431.11 105.476 429.69 106.062C426.46 107.387 425.5 110.653 424.93 113.727C424.48 116.194 426 117.853 428.88 118.702ZM436.88 122.353C435.59 123.657 431.94 121.058 431.28 124.507C430.89 126.529 433.28 126.994 434.97 127.014C437.2 127.014 439.65 126.701 440.26 124.132C440.7 122.181 439.12 121.776 436.86 122.353H436.88Z" fill="#EEEDEE"/>
<path d="M150 455.193L151.26 465.245C151.15 466.418 151.03 467.591 150.92 468.764C149.14 471.413 146.41 471.373 143.67 471.413C127.67 471.595 111.67 471.838 95.73 471.98C92.91 471.98 89.27 472.92 88.33 468.946C87.52 465.538 90.76 464.385 93.04 463.142C98.2 460.33 102.72 456.296 108.58 454.779C109.75 454.475 109.75 453.434 109.17 452.463L109.04 452.038C110.28 457.62 114.52 453.97 117.31 454.769L150 455.193Z" fill="#F3F3F3"/>
<path d="M519.28 408.627C518.16 401.033 517 393.459 515.95 385.855C515.69 384.044 514.49 381.476 517.3 380.869C519.44 380.414 519.78 382.892 520.39 384.409C523.66 392.316 526.74 400.305 530.03 408.192C531.03 410.629 531.27 413.552 534.38 415.817C535.63 406.625 536.83 397.878 538.03 389.131H542.18L542.74 389.202L543.29 389.111C545.15 390.678 544.95 392.771 544.74 394.875L542.49 396.523C541.94 397.119 540.49 397.443 541.9 398.616L542.52 396.594L544.99 396.755L546.64 407.1C546.054 407.03 545.501 406.786 545.051 406.399C544.6 406.012 544.273 405.5 544.11 404.926C543.69 403.136 543.47 400.386 540.82 401.64C538.36 402.813 541.09 404.977 540.89 406.696C537.78 411.266 539.89 416.697 538.51 421.571C537.88 423.795 539.51 423.856 541.12 423.694C542.89 423.502 545.47 424.372 545.19 421.116C544.96 418.436 544.41 415.776 543.99 413.097C544.943 411.62 545.887 410.137 546.82 408.647C548.07 411.438 546.71 416.565 549.7 416.97C554.28 417.596 551.82 412.065 553.52 409.658C556.81 405.007 556.86 398.535 561.66 394.652C561.97 396.796 561.28 399.132 562.86 401.033L561.94 408.556C560.14 409.851 559.87 411.327 561.41 413.026C561.25 415.473 561.15 417.92 560.9 420.357C560.69 422.38 561.26 423.856 563.51 423.765C571.68 423.451 570.19 428.73 569.29 433.715C563.98 425.626 555.83 428.184 548.4 428.063C544.45 427.992 540.5 427.961 536.55 427.911C536.14 426.01 534.82 425.191 533.04 424.928C532.04 419.002 526.78 415.089 525.59 409.163C525.39 408.152 523.51 408.93 522.77 410.063L519.28 408.627ZM556.82 423.957C556.25 423.28 555.91 422.531 555.43 422.42C555.111 422.36 554.782 422.379 554.472 422.476C554.162 422.573 553.88 422.744 553.65 422.976C553.09 423.987 553.65 424.817 554.77 424.837C555.35 424.857 555.94 424.362 556.82 423.957V423.957ZM525.55 405.371L524.64 404.602C524.48 404.924 524.356 405.264 524.27 405.614C524.27 405.725 524.66 406.038 524.74 405.998C525.034 405.822 525.306 405.612 525.55 405.371V405.371Z" fill="#DCDCDC"/>
<path d="M569.49 433.25C570.88 439.034 567.19 439.752 562.95 439.914C558.21 443.332 558.39 448.439 558.38 453.464L557.56 456.296C557.201 456.453 556.88 456.689 556.62 456.985C556.36 457.281 556.167 457.631 556.054 458.01C555.942 458.39 555.913 458.79 555.969 459.182C556.025 459.574 556.166 459.948 556.38 460.28C556.03 461.473 555.67 462.666 555.32 463.87L530.57 464.011L528.57 457.226C528.624 452.67 527.221 448.219 524.57 444.535C524.38 443.827 524.19 443.109 524.01 442.391C525.22 435.515 532.23 440.369 535.08 436.84C546.48 435.232 558.44 438.711 569.49 433.25Z" fill="#F6F6F6"/>
<path d="M508.38 201.48C502.62 203.644 496.89 205.879 491.1 207.942C489.01 208.69 487.1 208.629 487.8 212.159C488.33 215.02 488.27 217.983 491.63 217.842C494.79 217.7 496.5 221.189 500.49 218.772C498.34 222.898 496.69 222.938 493.79 222.291C479.79 219.156 465.97 215.364 452.31 211.006C446.79 209.236 440.78 209.347 435.55 206.496C428.06 202.724 420.55 201.784 413.04 206.425C412.157 205.745 411.136 205.269 410.051 205.031C408.966 204.794 407.843 204.8 406.76 205.05C403.18 195.858 401.22 186.261 399.56 176.584L402.8 176.493C405.13 183.046 407.32 189.588 407.56 196.717C407.72 201.116 409.31 204.049 414.5 201.217C421.2 197.567 427.86 199.387 434.65 201.328C448.79 205.373 462.58 210.52 476.88 214.1C483.24 215.688 483.67 213.584 482.65 208.832C481.887 205.697 480.884 202.627 479.65 199.65C476.78 192.217 473.65 184.876 470.94 177.403C470.11 175.128 467.01 171.66 470.38 170.325C473.75 168.99 473.84 173.672 474.79 175.917C478.183 183.939 481.393 192.029 484.42 200.186C485.73 203.685 487.58 205.019 491.12 203.381C492.24 202.866 493.45 202.542 494.61 202.117C507.06 197.617 507.06 197.617 504.21 185.372C509.13 189.791 509.24 195.504 508.38 201.48Z" fill="#4F4F4F"/>
<path d="M113.2 287.342L113.5 275.471C114.172 275.414 114.802 275.116 115.276 274.63C115.749 274.144 116.034 273.502 116.08 272.821C117.7 272.568 119.36 272.123 120.55 273.832C119.79 293.248 119.023 312.663 118.25 332.078C115.75 333.251 115.88 334.869 117.46 336.75L116.71 362.03C114.79 362.708 114.57 363.78 115.99 365.216C115.64 384.702 114.82 404.158 112.99 423.563C112.77 425.747 113.86 428.993 109.66 428.538L110.26 392.134C112.08 389.717 112.01 387.24 110.51 384.712C110.91 371.708 111.307 358.704 111.7 345.699C112.652 344.431 113.189 342.894 113.236 341.302C113.283 339.71 112.836 338.144 111.96 336.821L111.31 330.754C111.668 330.064 111.866 329.302 111.888 328.524C111.911 327.746 111.757 326.973 111.44 326.264C113.22 319.883 111.83 313.27 112.88 306.828C115.031 300.532 115.143 293.707 113.2 287.342V287.342Z" fill="#F9F9F9"/>
<path d="M426.65 161.648C426.87 160.997 426.981 160.314 426.98 159.626C424.39 144.792 425.3 143.528 439.26 139.088C443.62 137.703 447.62 135.124 451.78 133.092C449.78 138.805 454.08 142.314 456.43 146.5C455.69 149.484 452.63 152.052 454.79 155.601C450.69 157.745 449.79 159.191 450.32 163.094C447.32 161.598 445.88 162.326 444.38 166.128C438.95 164.52 432.43 166.998 427.97 161.729C427.51 161.062 426.97 161.042 426.51 161.659L426.65 161.648Z" fill="#F3F3F3"/>
<path d="M109.61 428.508C113.81 428.963 112.72 425.717 112.94 423.532C114.82 404.127 115.64 384.671 115.94 365.185C117.33 364.387 117.3 363.264 116.66 362L117.41 336.72C119.22 335.425 118.69 333.737 118.2 332.048C118.973 312.633 119.74 293.217 120.5 273.802L122.78 273.711L123.32 275.309C123.03 312.309 121.32 349.259 119.15 386.198C118.994 387.162 118.732 388.105 118.37 389.01L117.46 389.637L118.46 390.739C118.8 399.314 119.46 407.929 116.69 416.262C114.8 418.567 115.08 420.944 116.47 423.34C118.47 429.832 116.42 436.334 116.47 442.826C116.47 445.749 116.68 448.661 116.8 451.583L113.08 450.572L112.48 448.792C112.59 442.907 112.74 437.032 112.78 431.147C112.78 429.337 113.06 426.728 109.84 428.811C109.62 428.649 109.52 428.508 109.61 428.508Z" fill="#25242B"/>
<path d="M163.12 142.334C156.75 142.709 152.93 138.29 148.81 134.518C147.6 131.707 146.4 128.895 145.19 126.074C145.24 124.294 145.28 122.515 145.33 120.735L146.78 115.153C147.91 110.097 150.99 108.155 156 109.278C157.32 111.523 152.11 115.82 158.2 116.538C162.7 117.074 164.11 114.233 164.42 110.4C164.409 109.671 164.339 108.944 164.21 108.226C168.21 108.004 174.6 104.475 171.95 113.757L170.95 116.326C167.06 116.326 166.67 118.723 168.58 120.978C170.77 123.566 169.72 125.973 169.48 128.541L169.05 130.564C159.8 131.433 159.54 131.808 163.64 138.421L163.12 142.334Z" fill="#F3F3F3"/>
<path d="M168.54 444.687C168.73 443.676 168.91 442.715 169.1 441.734C171.46 439.975 171.41 437.902 169.88 435.667C170.21 433.149 170.54 430.611 170.88 428.103C172.59 426.799 172.83 425.322 171.35 423.674C171.67 421.217 172 418.77 172.35 416.312C174.24 414.988 174.48 413.461 172.91 411.711C173.163 409.75 173.42 407.788 173.68 405.826C175.96 404.056 175.97 401.994 174.45 399.759C174.71 397.797 174.98 395.825 175.24 393.863C177.14 392.539 177.44 391.022 175.82 389.252C177.47 378.928 172.18 370.039 169.77 360.615C168.37 355.134 166.37 349.805 164.64 344.435L165.3 334L167.97 333.898C171.73 344.779 175.38 355.69 179.29 366.5C181.24 371.869 183.16 377.148 182.2 382.993C178.86 384.186 180.2 386.957 180.12 389.232L180.35 390.739C180.04 393.772 177.53 396.401 178.62 399.718L178.81 401.215C177.14 407.1 175.5 412.975 175.67 419.184L175.91 420.701C176.54 423.927 173.08 426.354 174.19 429.67C174.11 432.38 174.59 435.262 173.81 437.76C172.53 441.855 175.09 447.346 169.68 449.996C169.29 448.176 170 446.204 168.54 444.687Z" fill="#EEEDEE"/>
<path d="M493.4 305.261C492.9 287.801 492.403 270.334 491.91 252.86C494.34 252.688 497.3 253.558 497.91 249.766L500.48 249.412C505.69 253.861 504.32 260.07 503.55 265.308C501.8 277.19 501.15 289.253 498.03 300.943C497.25 303.825 496.46 305.453 493.4 305.261Z" fill="#25242B"/>
<path d="M164.94 520.407C164.918 521.842 164.614 523.26 164.046 524.576C163.478 525.892 162.657 527.081 161.631 528.074C160.605 529.067 159.395 529.844 158.069 530.361C156.744 530.877 155.331 531.122 153.911 531.082C152.492 531.042 151.094 530.717 149.8 530.127C148.505 529.536 147.339 528.692 146.37 527.642C145.4 526.593 144.647 525.359 144.152 524.013C143.658 522.667 143.433 521.235 143.49 519.8C143.691 517.011 144.948 514.408 146.999 512.533C149.051 510.658 151.738 509.656 154.502 509.734C157.266 509.812 159.893 510.965 161.838 512.953C163.782 514.941 164.893 517.611 164.94 520.407V520.407Z" fill="#7AF2C8"/>
<path d="M569.49 433.25C558.49 438.711 546.49 435.273 535.03 436.84C531.2 435.525 527.27 436.506 523.39 436.385C520.66 436.294 519.39 435.283 519.39 432.451C519.39 429.62 520.61 428.497 523.39 428.457C527.78 428.406 532.16 428.103 536.55 427.901C540.55 427.951 544.45 427.982 548.4 428.052C555.83 428.174 563.98 425.615 569.29 433.705L569.17 433.422L569.49 433.25Z" fill="#25242B"/>
<path d="M175.86 420.64L175.62 419.123C180.06 413.744 180.28 407.606 178.76 401.154L178.57 399.658C183.04 397.433 181.44 394.005 180.3 390.678L180.07 389.171L185.19 387.705L178.62 432.492C177.25 433.311 176.86 434.282 178.16 435.525L176.69 449.601C177.49 452.999 179.87 452.322 182.2 451.776C187.4 448.277 193.2 450.815 198.71 450.046C202.36 449.541 206.15 450.572 209.71 449.126H210.44H211.16C211.16 450.613 211.07 452.099 211.02 453.586C199.2 453.909 187.38 454.192 175.56 454.597C172.63 454.698 169.72 455.244 166.8 455.608C166.8 453.798 166.8 451.978 166.8 450.168L169.62 449.955C175.03 447.306 172.47 441.815 173.75 437.72C174.53 435.232 174.05 432.35 174.13 429.63C178.55 427.365 177 423.957 175.86 420.64Z" fill="#4F4F4F"/>
<path d="M536.55 427.901C532.16 428.103 527.78 428.406 523.39 428.457C520.61 428.457 519.39 429.65 519.39 432.451C519.39 435.252 520.66 436.294 523.39 436.385C527.27 436.506 531.2 435.525 535.03 436.84C532.18 440.379 525.17 435.515 523.96 442.391C515.58 441.552 513.96 436.142 515.05 428.952C515.23 427.769 515.41 425.919 516.12 425.605C525.5 421.439 520.81 414.755 519.28 408.627L522.77 410.053C522.77 412.722 524.56 414.846 524.71 417.627C524.97 422.501 527.57 425.605 533.04 424.918C534.82 425.181 536.14 426 536.55 427.901Z" fill="#C4C3C5"/>
<path d="M160.51 380.981C161.45 375.399 162.39 369.776 162.12 364.023C162.06 362.718 162.62 361.424 164.05 361.272C165.48 361.12 166.05 362.283 166.42 363.578C169.2 372.456 173.33 381.021 171.02 390.88C170.24 394.197 169.67 395.805 166.6 392.974C163.12 389.738 159.31 386.643 160.51 380.981Z" fill="#25242B"/>
<path d="M172 113.727C174.65 104.444 168.29 107.973 164.26 108.196L156.05 109.207C151.05 108.085 147.96 110.026 146.83 115.082C144.39 114.748 141.9 117.59 139.48 114.981C140.83 114.02 143.43 114.03 143.43 112.14C143.43 104.282 148.85 104.919 154.03 104.748C161.865 104.536 169.632 103.208 177.1 100.804C179.61 99.9847 182.4 98.3769 183.1 102.897C180.76 104.596 181.9 107.003 181.85 109.167L180 110.987C177.71 110.987 174.83 109.541 174 113.363L172 113.727Z" fill="#585858"/>
<path d="M451.74 124.052C457.36 118.156 453.3 112.261 451.74 106.376L455 105.991C456.38 108.368 458.77 107.195 460.7 107.64C462.03 110.481 458.07 114.223 462.21 116.579L462.36 116.751C462.22 118.227 462.64 120.371 461.84 121.079C455.7 126.489 460.39 130.402 463.24 134.77C464.6 136.793 468.44 137.804 466.87 141.202C466.24 142.557 464.18 141.93 462.76 141.475C459.44 140.464 456.02 139.594 456.22 134.841C456.33 132.172 456.92 129.269 455.09 126.913C454.074 125.845 452.951 124.886 451.74 124.052V124.052Z" fill="#25242B"/>
<path d="M81.63 218.175C87.69 223.626 93.72 229.137 102.82 227.802L104.32 231.847C101.07 235.69 96.32 237.409 92.42 240.331C91.13 241.342 89.21 242.808 87.85 241.089C85.95 238.703 88.65 237.752 90.04 236.61C91.43 235.467 93.18 234.334 95.26 232.848C90.4 229.572 85.61 227.266 81.26 224.192C75.81 220.309 78.51 228.318 75.75 228.924C74.62 223.595 76.6 220.036 81.63 218.175Z" fill="#585858"/>
<path d="M150 455.193L117.33 454.799L117.75 451.604L148.68 450.592L150.41 450.704L150 455.193Z" fill="#585858"/>
<path d="M471.2 70.2247C470.43 72.9752 472.67 74.1887 474.03 75.8471C475.107 77.0709 475.897 78.5251 476.341 80.1011C476.784 81.6771 476.869 83.334 476.59 84.948C476.21 87.1524 475.38 89.8625 472.59 89.2658C470.1 88.74 471.64 86.485 471.94 84.9075C473.01 79.265 468.89 77.0504 465.19 74.5628C467.66 73.7741 468.11 70.1236 471.2 70.2247Z" fill="#616161"/>
<path d="M165.25 333.939L164.59 344.375C159.11 345.386 163.82 351.645 159.93 353.476C159.56 345.355 160.361 337.224 162.31 329.338L165.25 333.939Z" fill="#585858"/>
<path d="M109.9 428.831C113.12 426.748 112.85 429.357 112.84 431.167C112.84 437.052 112.65 442.927 112.54 448.813C107.44 448.398 111.6 443.231 108.88 441.593C109.13 437.325 108.28 432.977 109.9 428.831Z" fill="#F9F9F9"/>
<path d="M530.57 464.011L555.32 463.87C551.425 465.611 547.218 466.522 542.96 466.546C538.701 466.571 534.484 465.708 530.57 464.011V464.011Z" fill="#C4C3C5"/>
<path d="M70.64 134.245C69.47 135.822 68.64 138.37 66.53 137.915C64.93 137.572 62.38 135.964 62.77 134.002C63.0882 133.102 63.6189 132.295 64.316 131.65C65.0131 131.005 65.8556 130.542 66.77 130.301C68.55 130.109 69.84 132.333 70.64 134.245Z" fill="#71C8A9"/>
<path d="M426.08 25.8325C425.7 27.9762 424.14 29.8773 422.63 30.1099C420.91 30.3526 418.96 28.4313 418.63 26.51C418.3 24.346 420.47 22.7786 422.05 22.4045C424.12 21.9292 424.91 24.4269 426.08 25.8325Z" fill="#71C8A9"/>
<path d="M113.2 287.342C115.123 293.706 114.993 300.524 112.83 306.808C112.56 303.774 112.3 300.812 112.03 297.808L113.2 287.342Z" fill="#C4C3C5"/>
<path d="M214.92 40.2018C214.35 42.2242 213.18 43.9837 211.05 43.9736C210.559 43.9805 210.072 43.8875 209.618 43.7001C209.163 43.5127 208.75 43.2348 208.404 42.8829C208.058 42.531 207.786 42.1123 207.603 41.6517C207.42 41.1911 207.331 40.698 207.34 40.2018C207.333 39.7062 207.424 39.2143 207.607 38.7545C207.79 38.2947 208.062 37.8762 208.406 37.5234C208.75 37.1706 209.16 36.8905 209.612 36.6993C210.065 36.5081 210.55 36.4097 211.04 36.4098C213.16 36.3592 214.33 38.1086 214.92 40.2018Z" fill="#4F4F4F"/>
<path d="M543.94 143.022C541.88 142.466 540.19 141.242 540.18 139.119C540.229 138.153 540.644 137.244 541.337 136.579C542.03 135.913 542.949 135.542 543.905 135.542C544.861 135.542 545.78 135.913 546.473 136.579C547.166 137.244 547.581 138.153 547.63 139.119C547.67 141.182 545.93 142.395 543.94 143.022Z" fill="#4F4F4F"/>
<path d="M513.59 236.589L513.68 221.189C516.6 226.346 516.83 231.483 513.59 236.589Z" fill="#4F4F4F"/>
<path d="M542.18 389.121H538C537.31 385.329 538.37 381.941 540.29 378.513C544.03 379.777 541.96 382.649 542.37 384.692L542.18 389.121Z" fill="#EEEDEE"/>
<path d="M546.82 408.637C545.88 410.12 544.937 411.603 543.99 413.087C540.74 412.075 544.34 407.636 540.89 406.686C541.09 404.946 538.36 402.782 540.82 401.63C543.47 400.376 543.69 403.126 544.11 404.916C544.273 405.49 544.6 406.002 545.05 406.389C545.501 406.776 546.053 407.02 546.64 407.09L546.82 408.637Z" fill="#C4C3C5"/>
<path d="M481 118.328C480.091 113.771 480.329 109.056 481.69 104.616C483.42 109.288 483.84 113.899 481 118.328Z" fill="#585858"/>
<path d="M70.66 248.148C70.547 252.827 71.2233 257.491 72.66 261.941C68.45 257.876 66.69 253.436 70.66 248.148Z" fill="#585858"/>
<path d="M108.88 441.593C111.6 443.231 107.44 448.398 112.54 448.813L113.14 450.592C112.07 451.917 110.6 452.099 109.06 452.079L109.19 452.504C108.368 450.814 107.916 448.965 107.862 447.082C107.809 445.2 108.156 443.328 108.88 441.593V441.593Z" fill="#A3A2A7"/>
<path d="M558.38 453.464C558.38 448.408 558.21 443.352 562.95 439.914C561.05 444.303 561.11 449.359 558.38 453.464Z" fill="#C4C3C5"/>
<path d="M156.66 384.843C156.035 380.76 156.455 376.582 157.88 372.709C159.09 376.936 160.08 381.102 156.66 384.843Z" fill="#585858"/>
<path d="M158.18 369.857C157.509 366.272 157.891 362.567 159.28 359.199C160.67 362.951 161.61 366.642 158.18 369.857Z" fill="#585858"/>
<path d="M524.52 444.535C527.171 448.219 528.574 452.67 528.52 457.226C526.167 453.396 524.792 449.035 524.52 444.535V444.535Z" fill="#C4C3C5"/>
<path d="M365 454.799C363.33 456.726 361.118 458.091 358.66 458.712C354.92 456.933 355 455.113 358.84 453.798C359.877 453.498 360.966 453.433 362.03 453.606C363.095 453.779 364.108 454.186 365 454.799V454.799Z" fill="#171717"/>
<path d="M155.43 398.363C154.744 394.783 155.066 391.079 156.36 387.675C157.8 391.396 158.31 395.026 155.43 398.363Z" fill="#585858"/>
<path d="M482.55 91.3793C481.86 87.7452 481.86 84.0115 482.55 80.3773C485.3 84.0278 485.1 87.7288 482.55 91.3793Z" fill="#585858"/>
<path d="M207 302.227C204.86 298.971 204.43 295.3 204.52 291.508L206.24 292.176C206.37 293.056 206.51 293.925 206.64 294.805C206.23 297.303 209.06 299.649 207 302.227Z" fill="#616161"/>
<path d="M454.79 155.541C452.63 152.022 455.69 149.474 456.43 146.44L459.62 146.743C458.93 150.222 460.51 154.914 454.79 155.541Z" fill="#4F4F4F"/>
<path d="M154 413.339C153.251 410.265 153.529 407.026 154.79 404.127C156.35 407.373 156.6 410.478 154 413.339Z" fill="#585858"/>
<path d="M500.47 249.412L497.9 249.766H493.44L491.87 248.188L501.07 248.046L500.47 249.412Z" fill="#4F4F4F"/>
<path d="M111.91 336.801C112.786 338.124 113.233 339.69 113.186 341.282C113.139 342.874 112.602 344.411 111.65 345.679C110.724 342.777 110.816 339.642 111.91 336.801V336.801Z" fill="#C4C3C5"/>
<path d="M157.55 83.684C155.01 84.9682 152.43 84.6244 149.84 83.8559C152.36 81.6615 154.94 81.7627 157.55 83.684Z" fill="#585858"/>
<path d="M110.46 384.692C111.96 387.22 112.03 389.697 110.21 392.114C109.628 390.956 109.346 389.668 109.39 388.37C109.433 387.072 109.802 385.807 110.46 384.692V384.692Z" fill="#A3A2A7"/>
<path d="M246 433.857C249 436.082 248.53 438.721 246.91 441.502C246.734 441.533 246.553 441.525 246.38 441.478C246.207 441.431 246.047 441.346 245.91 441.229C245.93 438.771 246 436.314 246 433.857Z" fill="#C4C3C5"/>
<path d="M562.86 401.023C561.28 399.122 561.97 396.786 561.66 394.642C565.89 396.037 563.33 398.727 562.86 401.023Z" fill="#C4C3C5"/>
<path d="M257.08 470.604C259.508 469.774 262.135 469.746 264.58 470.523C262.11 474.144 259.61 474.083 257.08 470.604Z" fill="#25242B"/>
<path d="M221.25 374.195C220.576 371.73 220.524 369.133 221.1 366.642C223.52 369.109 223.57 371.627 221.25 374.195Z" fill="#616161"/>
<path d="M247.49 447.346C250.49 449.541 250.09 452.18 248.49 454.981C247.82 453.843 247.386 452.58 247.215 451.268C247.043 449.955 247.136 448.621 247.49 447.346V447.346Z" fill="#C4C3C5"/>
<path d="M501.39 177.423C499.434 175.003 498.329 171.993 498.25 168.869C501.54 170.881 502 173.935 501.39 177.423Z" fill="#4F4F4F"/>
<path d="M474.25 148.836C471.183 148.844 468.189 147.89 465.68 146.106C469.08 145.277 472.06 145.813 474.25 148.836Z" fill="#4F4F4F"/>
<path d="M145.33 120.704C145.28 122.484 145.24 124.264 145.19 126.044C141 124.132 140.79 122.373 145.33 120.704Z" fill="#A3A2A7"/>
<path d="M75.15 231.685C75.3424 234.46 74.5204 237.209 72.84 239.411C71.39 236.145 72.47 233.667 75.15 231.685Z" fill="#585858"/>
<path d="M174.4 399.728C175.92 401.983 175.91 404.046 173.63 405.796C173.301 404.79 173.2 403.724 173.333 402.674C173.467 401.624 173.831 400.617 174.4 399.728Z" fill="#C4C3C5"/>
<path d="M169.88 435.657C171.41 437.922 171.46 439.995 169.1 441.724C168.815 440.712 168.737 439.652 168.871 438.609C169.005 437.566 169.348 436.561 169.88 435.657Z" fill="#C4C3C5"/>
<path d="M151.41 437.093C150.907 436.15 150.695 435.077 150.802 434.011C150.909 432.946 151.33 431.937 152.01 431.116C153.68 433.301 153.29 435.272 151.41 437.093Z" fill="#616161"/>
<path d="M472.71 128.38H478.42C478.42 130.564 477.05 131.261 475.2 131.13C474.85 131.143 474.5 131.079 474.177 130.942C473.853 130.805 473.563 130.599 473.326 130.337C473.089 130.075 472.912 129.765 472.805 129.427C472.699 129.089 472.666 128.731 472.71 128.38Z" fill="#585858"/>
<path d="M169.63 449.925L166.81 450.137C167.04 448.216 164.99 445.567 168.54 444.707C170 446.204 169.29 448.176 169.63 449.925Z" fill="#C4C3C5"/>
<path d="M96.18 179.314C96.023 181.972 94.8547 184.465 92.92 186.272C92.39 183.177 93.31 180.76 96.18 179.314Z" fill="#585858"/>
<path d="M211.18 449.106H210.46H209.73C210.14 446.76 209.92 444.262 211.52 442.23C213 444.616 211.85 446.851 211.18 449.106Z" fill="#616161"/>
<path d="M465.5 113.151C468.29 113.757 469.5 115.426 468.92 118.308L465.42 116.427C465.45 115.335 465.47 114.243 465.5 113.151Z" fill="#585858"/>
<path d="M212.26 437.103C211.842 436.239 211.69 435.269 211.824 434.317C211.958 433.365 212.371 432.475 213.01 431.764C213.584 432.582 213.825 433.591 213.686 434.584C213.546 435.577 213.036 436.478 212.26 437.103V437.103Z" fill="#616161"/>
<path d="M111.39 326.244C111.707 326.953 111.861 327.726 111.838 328.504C111.816 329.282 111.618 330.044 111.26 330.733C110.16 330.45 108.98 330.187 108.85 328.761C108.67 326.931 110 326.547 111.39 326.244Z" fill="#171717"/>
<path d="M465.5 113.151C465.5 114.243 465.45 115.335 465.42 116.427L462.34 116.751L462.19 116.579C462.14 114.384 462.03 112.15 465.19 112.089C465.338 112.216 465.446 112.384 465.501 112.573C465.557 112.762 465.556 112.962 465.5 113.151V113.151Z" fill="#25242B"/>
<path d="M214.69 337.498C214.001 336.785 213.525 335.889 213.318 334.914C213.111 333.938 213.181 332.924 213.52 331.987C214.374 332.581 214.971 333.483 215.188 334.508C215.406 335.532 215.227 336.602 214.69 337.498Z" fill="#616161"/>
<path d="M217.71 350.917C216.988 350.227 216.485 349.336 216.266 348.356C216.047 347.376 216.121 346.353 216.48 345.416C217.353 345.991 217.97 346.887 218.199 347.914C218.429 348.941 218.254 350.019 217.71 350.917V350.917Z" fill="#616161"/>
<path d="M219.7 384.682C219.247 383.826 219.079 382.845 219.221 381.885C219.364 380.924 219.809 380.036 220.49 379.352C221.068 380.171 221.309 381.184 221.162 382.179C221.014 383.173 220.49 384.071 219.7 384.682V384.682Z" fill="#616161"/>
<path d="M542.18 389.121L542.4 384.702C542.95 386.117 544.4 387.351 543.29 389.101L542.74 389.192L542.18 389.121Z" fill="#C4C3C5"/>
<path d="M175.77 389.222C177.39 390.992 177.09 392.508 175.19 393.833C174.854 393.086 174.73 392.259 174.832 391.444C174.934 390.63 175.259 389.86 175.77 389.222V389.222Z" fill="#C4C3C5"/>
<path d="M218.28 395.137C217.874 394.43 217.709 393.608 217.81 392.797C217.911 391.986 218.273 391.231 218.84 390.648C220.37 392.387 219.85 393.833 218.28 395.137Z" fill="#616161"/>
<path d="M216.77 405.644C216.331 404.787 216.172 403.812 216.315 402.858C216.459 401.904 216.898 401.021 217.57 400.335C218.134 401.155 218.365 402.163 218.216 403.151C218.067 404.138 217.55 405.031 216.77 405.644V405.644Z" fill="#616161"/>
<path d="M561.41 413.016C559.87 411.317 560.14 409.84 561.94 408.546C562.246 409.273 562.357 410.068 562.264 410.852C562.171 411.637 561.877 412.382 561.41 413.016V413.016Z" fill="#C4C3C5"/>
<path d="M172.86 411.701C174.43 413.451 174.19 414.977 172.3 416.302C171.963 415.558 171.837 414.734 171.935 413.921C172.034 413.109 172.354 412.34 172.86 411.701V411.701Z" fill="#C4C3C5"/>
<path d="M215.22 416.14C214.783 415.277 214.626 414.297 214.771 413.338C214.916 412.38 215.357 411.492 216.03 410.801C216.612 411.622 216.853 412.64 216.701 413.638C216.55 414.636 216.018 415.534 215.22 416.14Z" fill="#616161"/>
<path d="M211.76 323.958C211.05 323.26 210.552 322.372 210.324 321.398C210.095 320.423 210.146 319.403 210.47 318.457C212.51 319.913 212.75 321.784 211.76 323.958Z" fill="#616161"/>
<path d="M213.74 426.617C213.319 425.909 213.149 425.076 213.26 424.258C213.371 423.439 213.756 422.684 214.35 422.117C215.91 423.866 215.39 425.322 213.74 426.617Z" fill="#616161"/>
<path d="M171.33 423.664C172.81 425.312 172.57 426.788 170.86 428.093C170.534 427.381 170.405 426.593 170.488 425.812C170.571 425.032 170.862 424.29 171.33 423.664V423.664Z" fill="#C4C3C5"/>
<path d="M436.92 70.1641C436.34 70.7407 435.638 71.1761 434.867 71.4372C434.096 71.6982 433.276 71.7781 432.47 71.6708C432.468 71.2316 432.492 70.7927 432.54 70.3562C434 69.9012 435.38 68.354 436.92 70.1641Z" fill="#616161"/>
<path d="M427.77 74.5831C426.99 76.8988 425.87 78.1931 423.57 76.019C424.111 75.4646 424.772 75.046 425.501 74.7967C426.231 74.5473 427.008 74.4742 427.77 74.5831Z" fill="#4F4F4F"/>
<path d="M453.53 70.9023C452.987 71.1748 452.368 71.2472 451.778 71.1069C451.188 70.9665 450.665 70.6224 450.3 70.1338C451.78 68.6372 452.81 69.0923 453.53 70.9023Z" fill="#616161"/>
<path d="M432.54 70.3561C432.492 70.7926 432.468 71.2315 432.47 71.6707L429.42 72.9549C429.53 70.9527 430.85 70.437 432.54 70.3561Z" fill="#4F4F4F"/>
<path d="M511.48 207.891C510.989 207.55 510.638 207.038 510.495 206.453C510.351 205.868 510.424 205.25 510.7 204.716C512.24 205.454 513.16 206.344 511.48 207.891Z" fill="#4F4F4F"/>
<path d="M220.63 364.417C220.313 364.243 220.035 364.005 219.814 363.716C219.593 363.428 219.434 363.096 219.347 362.742C219.261 362.388 219.248 362.019 219.311 361.66C219.373 361.3 219.509 360.958 219.71 360.655C221 361.656 221.48 362.88 220.63 364.417Z" fill="#616161"/>
<path d="M139 90.9041C139.174 91.4675 139.181 92.0699 139.021 92.6374C138.861 93.205 138.541 93.7131 138.1 94.0995C136.53 92.5018 137.34 91.5715 139 90.9041Z" fill="#585858"/>
<path d="M209.89 315.717C209.38 315.37 209.017 314.841 208.874 314.236C208.732 313.631 208.819 312.993 209.12 312.451C210.62 313.229 211.41 314.24 209.89 315.717Z" fill="#616161"/>
<path d="M497.07 165.38C496.429 164.955 495.908 164.369 495.558 163.679C495.207 162.99 495.039 162.221 495.07 161.446C497.26 161.952 497.83 163.317 497.07 165.38Z" fill="#4F4F4F"/>
<path d="M208.25 308.254C207.768 307.88 207.436 307.343 207.314 306.741C207.193 306.139 207.291 305.513 207.59 304.978C209.06 305.807 209.73 306.808 208.25 308.254Z" fill="#616161"/>
<path d="M512.93 215.384C512.473 215.011 512.163 214.485 512.055 213.902C511.947 213.318 512.048 212.714 512.34 212.199C513.79 213.028 514.62 213.969 512.93 215.384Z" fill="#4F4F4F"/>
<path d="M215.84 342.676C214.64 341.907 214.27 340.947 215.15 339.642C216.48 340.421 217.16 341.311 215.84 342.676Z" fill="#616161"/>
<path d="M181.32 86.7177C180.26 87.3143 179.03 87.5873 178.38 86.4143C177.73 85.2413 178.38 84.2503 179.38 83.4717C179.983 83.7607 180.488 84.2225 180.833 84.7997C181.178 85.3769 181.347 86.0439 181.32 86.7177V86.7177Z" fill="#25242B"/>
<path d="M411.05 81.9346C411.211 82.5164 411.187 83.1346 410.983 83.7023C410.778 84.2699 410.403 84.7586 409.91 85.0997L408.73 83.684L411.05 81.9346Z" fill="#585858"/>
<path d="M556.38 460.28C556.166 459.948 556.025 459.573 555.969 459.182C555.913 458.79 555.942 458.39 556.054 458.01C556.167 457.631 556.36 457.281 556.62 456.985C556.88 456.689 557.201 456.453 557.56 456.296C557.837 456.997 557.87 457.772 557.656 458.496C557.442 459.219 556.992 459.848 556.38 460.28V460.28Z" fill="#C4C3C5"/>
<path d="M249.21 462.292C250.8 463.091 251.45 464.062 249.83 465.488C249.573 465.326 249.352 465.113 249.181 464.862C249.009 464.611 248.89 464.326 248.832 464.026C248.774 463.727 248.778 463.418 248.843 463.119C248.908 462.821 249.033 462.54 249.21 462.292V462.292Z" fill="#C4C3C5"/>
<path d="M212.88 329.196C212.61 329.069 212.374 328.88 212.189 328.644C212.005 328.408 211.877 328.132 211.817 327.837C211.757 327.542 211.765 327.237 211.842 326.947C211.919 326.656 212.062 326.388 212.26 326.163C213.6 326.962 214.15 327.892 212.88 329.196Z" fill="#616161"/>
<path d="M90.69 269.413C91.0471 268.94 91.5302 268.579 92.0828 268.373C92.6353 268.167 93.2344 268.125 93.81 268.25C93.3 270.111 92.4 270.87 90.69 269.413Z" fill="#585858"/>
<path d="M80.15 268.19C80.7245 268.057 81.3249 268.099 81.8762 268.309C82.4275 268.52 82.9053 268.89 83.25 269.373C81.49 270.9 80.61 270.111 80.15 268.19Z" fill="#585858"/>
<path d="M150.94 468.764C151.05 467.591 151.17 466.418 151.28 465.245C153 466.6 153.11 467.793 150.94 468.764Z" fill="#585858"/>
<path d="M481.83 77.6166C481.308 77.3106 480.891 76.8495 480.637 76.2959C480.383 75.7423 480.304 75.1231 480.41 74.5223C482.23 74.8965 483.26 75.665 481.83 77.6166Z" fill="#585858"/>
<path d="M459.38 72.7528C458.808 72.9721 458.178 72.9763 457.603 72.7647C457.029 72.5531 456.548 72.1398 456.25 71.6C458 70.1439 458.89 70.8517 459.38 72.7528Z" fill="#616161"/>
<path d="M218.93 356.974C218.356 356.551 217.96 355.925 217.823 355.22C217.686 354.515 217.817 353.784 218.19 353.172C218.489 353.37 218.745 353.626 218.945 353.926C219.144 354.225 219.282 354.562 219.351 354.916C219.42 355.27 219.418 355.635 219.346 355.988C219.274 356.342 219.132 356.677 218.93 356.974V356.974Z" fill="#616161"/>
<path d="M72.14 242.161C72.3974 242.713 72.4502 243.341 72.2887 243.929C72.1271 244.518 71.7621 245.028 71.26 245.367C69.76 243.789 70.41 242.829 72.14 242.161Z" fill="#585858"/>
<path d="M84.4 204.807C84.4745 205.57 84.3437 206.339 84.0216 207.034C83.6995 207.728 83.198 208.321 82.57 208.751C81.89 206.829 82.39 205.464 84.4 204.807Z" fill="#585858"/>
<path d="M484.59 152.143C484.017 152.303 483.409 152.272 482.855 152.053C482.302 151.834 481.833 151.44 481.52 150.93C483.32 149.332 484.16 150.212 484.59 152.143Z" fill="#4F4F4F"/>
<path d="M479.09 127.257C478.896 126.682 478.898 126.058 479.096 125.485C479.293 124.911 479.675 124.421 480.18 124.092C481.8 125.831 480.94 126.721 479.09 127.257Z" fill="#585858"/>
<path d="M469.62 121.099C470.125 121.422 470.505 121.91 470.698 122.482C470.891 123.054 470.885 123.676 470.68 124.244C468.75 123.718 468 122.798 469.62 121.099Z" fill="#585858"/>
<path d="M150.41 450.673L148.68 450.562L150.39 447.528C152 448.59 151.07 449.632 150.41 450.673Z" fill="#616161"/>
<path d="M542.49 396.513L544.74 394.864C544.82 395.481 544.91 396.108 544.99 396.725L542.52 396.563L542.49 396.513Z" fill="#EEEDEE"/>
<path d="M399.56 176.584C401.22 186.261 403.18 195.858 406.76 205.05L408.02 213.807C404.35 213.723 400.679 213.828 397.02 214.12C393.41 214.565 389.11 212.007 386.28 216.315C380.22 217.083 380.22 217.083 381.1 219.975L379.02 219.5C378.32 215.091 374.8 216.921 372.58 216.911C361.2 216.83 349.83 217.144 338.45 217.225C335.65 217.225 332.13 218.236 331.75 213.564C332.84 211.754 332.75 210.247 330.63 209.317L329.95 206.425C331.76 204.868 330.95 203.958 329.17 203.321L328.51 200.418C330.31 198.831 329.51 197.951 327.69 197.324C327.46 196.363 327.23 195.403 327.01 194.432C328.83 192.814 328.01 191.934 326.15 191.348L325.47 188.466C327.34 186.838 326.52 185.948 324.62 185.361C320.89 173.166 320.89 173.116 333.06 172.994C347.82 172.853 362.58 172.802 377.34 172.711C378.67 175.795 381.44 174.784 383.72 174.855C388.59 174.996 393.47 174.946 398.34 174.966L399.56 176.584ZM370 194.098C369.31 191.853 367.88 189.831 365 190.003C364.376 189.999 363.758 190.13 363.188 190.388C362.618 190.646 362.109 191.024 361.696 191.498C361.283 191.971 360.975 192.528 360.793 193.132C360.611 193.736 360.559 194.372 360.64 194.998C360.78 197.9 362.64 199.549 365.52 199.397C368.4 199.245 369.85 197.385 370 194.098Z" fill="#FDFDFD"/>
<path d="M249.75 385.43C239.15 386.825 245.39 396.027 242.61 401.053C240.24 396.553 242.68 389.93 234.94 387.523C231.67 386.512 233.81 379.767 233.38 375.641C232.82 370.353 234.98 367.774 240.49 367.956C245.04 368.118 243.91 364.872 243.36 362.223C241.8 354.74 239.69 347.337 240.18 339.561L243.35 339.642L245.48 351.655C245.81 357.399 246.48 363.042 249.76 368.118C251.63 366.672 251.01 365.084 251.16 363.709C251.831 363.518 252.538 363.493 253.221 363.638C253.903 363.782 254.541 364.091 255.08 364.538C255.44 365.833 255.55 368.047 257.3 367.319C259.44 366.419 257.74 363.962 258.15 362.263L260.15 359.229C262.15 358.107 261.42 356.277 261.31 354.608C262.9 344.375 264.39 334.131 266.14 323.928C266.64 321.046 267.46 317.395 271.09 317.345C274.94 317.294 275.39 321.086 275.74 323.948C276.74 332.513 277.5 341.139 279.58 350.078C281.75 344.354 283.71 338.55 286.18 332.958C287.89 329.075 289.07 322.957 294.64 324.413C299.56 325.698 298.33 331.552 297.98 335.537C297.24 344.041 295.75 352.474 294.77 360.969C294.35 364.629 294.54 368.209 299.93 367.501C300.408 367.417 300.898 367.431 301.37 367.542C301.842 367.654 302.288 367.86 302.68 368.148C307.11 373.032 304.24 379.019 304.76 384.489C305.13 388.352 301.97 389.161 298.76 389.08C298.76 387.705 298.76 386.34 298.71 384.965C302.98 381.79 301.89 377.148 300.78 373.407C299.67 369.665 295.61 371.647 292.92 371.667C276.92 371.779 260.85 372.254 244.82 372.355C240.32 372.355 237.53 372.729 237.65 378.624C237.76 384.136 239.84 385.551 244.71 385.015C246.399 384.984 248.088 385.123 249.75 385.43V385.43ZM279.45 360.817L279.62 360.766C274.51 361.505 275.37 365.822 275.96 368.654C276.37 370.575 278.78 369.261 279.96 367.744C282.67 368.158 283.86 366.854 284.31 364.225C284.99 360.18 286.4 356.216 285.52 352.009C290.07 351.756 289.75 354.689 289.22 357.753C288.15 360.665 287 363.578 287.63 366.763C287.69 367.056 289.17 367.461 289.33 367.258C291.64 364.447 291.53 361.07 291.33 357.692L294.03 331.087C288.03 337.013 285.93 344.172 284.27 351.504C282.05 353 283.27 355.943 281.73 357.723C281.044 357.872 280.435 358.268 280.016 358.837C279.597 359.406 279.396 360.11 279.45 360.817ZM269.31 352.04C272.52 349.178 273.31 334.384 270.31 327.528C266.38 335.385 267.25 343.556 266.48 351.443C265.48 356.418 265.26 361.393 267.27 366.48L269.31 352.04ZM272.89 368.421C273.52 364.629 273.89 362.354 272.52 359.462C271.41 362.273 270.25 364.447 272.89 368.421Z" fill="#C4C3C5"/>
<path d="M210.5 239.532L206.77 230.755C209.17 226.103 212.44 223.201 217.95 225.587C220.04 226.508 221.32 225.517 222.33 224.141C224.49 221.209 227.78 219.156 229.06 215.536C237.47 209.115 240.23 200.064 240.77 189.983L243.61 193.016C244.23 195.494 244.84 197.961 245.46 200.428C243.64 206.192 247.93 205.96 251.39 206.546C247.18 220.835 239.68 233.667 233.39 246.995C229.58 255.085 222.65 255.267 214.56 248.461C213.56 245.286 212.7 242.09 210.42 239.542L210.5 239.532Z" fill="#F3F3F3"/>
<path d="M279.54 157.907C281.847 157.101 284.33 156.964 286.71 157.513C287.2 158.352 287.71 159.181 288.2 160.02L288.66 161.426L286.66 163.448C272.41 162.993 258.41 165.076 244.45 167.604C242.21 168.009 243.68 169.293 243.89 170.264L245.41 173.722C245.1 175.745 246.28 176.685 247.99 177.191L249.8 179.517L249.65 182.611C250.7 186.089 252.28 186.079 254.27 183.319C259.59 182.742 264.92 182.217 270.27 181.569C272.62 181.286 275.42 181.448 275.45 177.828L276.35 174.794C280.21 172.347 286.17 176.139 288.95 170.486L293.18 170.203C293.251 170.227 293.316 170.265 293.371 170.315C293.426 170.365 293.47 170.427 293.5 170.495C293.531 170.564 293.546 170.638 293.546 170.713C293.546 170.789 293.53 170.863 293.5 170.931C293.375 171.389 293.422 171.877 293.63 172.302C293.838 172.727 294.194 173.06 294.63 173.237C296.283 176.985 297.927 180.737 299.56 184.492C299.23 185.634 298.9 186.767 298.56 187.91C282.3 190.306 266 192.389 249.56 193.299L247.33 191.277C247.196 190.826 246.975 190.407 246.68 190.043C246.68 188.951 246.68 187.869 246.68 186.777C246.75 186.585 246.94 186.332 246.88 186.191C246.692 185.836 246.474 185.497 246.23 185.179C246.236 184.987 246.173 184.799 246.054 184.649C245.935 184.499 245.767 184.396 245.58 184.36L244.11 183.349C238.83 178.162 237.67 170.962 235 164.49C235.653 164.454 236.279 164.212 236.79 163.799C237.301 163.386 237.672 162.821 237.85 162.184L248.09 161.305C249.39 163.165 250.37 162.609 251.21 160.89L261.47 159.879C263.33 161.901 264.86 161.628 266.09 159.211L275 158.514C276.79 160.536 278.31 160.243 279.54 157.907Z" fill="#7AF2C8"/>
<path d="M379 219.5L381.08 219.975C389.29 222.483 380.95 224.192 380.78 226.295C380.676 226.266 380.568 226.259 380.461 226.273C380.354 226.286 380.251 226.322 380.158 226.376C380.065 226.431 379.984 226.504 379.919 226.591C379.854 226.677 379.807 226.776 379.78 226.882C378.5 227.812 378.28 228.682 379.9 229.481C380.415 229.615 380.958 229.584 381.454 229.392C381.951 229.2 382.375 228.856 382.67 228.409C383.52 227.954 384.43 227.569 385.23 227.033C391.07 223.1 396.31 215.738 404.23 223.808C404.56 224.141 406.02 223.363 406.95 223.1C411.22 225.446 409.3 227.944 407.35 230.765C404.11 235.477 399.29 239.138 397.81 245.043L398.08 245.175L390.58 252.162C384.45 254.437 378.46 254.811 373.41 249.857C368.12 244.659 368.41 238.359 370.65 231.877C372.37 227.003 371.72 220.521 379 219.5Z" fill="#F3F3F3"/>
<path d="M254.2 101.451C270.94 99.0544 284 88.8209 297.93 80.529C305.87 75.8167 314.19 73.3494 323.21 78.9009C327.07 81.2672 331.83 76.8785 331.75 71.6101C331.75 69.709 330.68 67.4439 332.67 66.099C335.17 64.4103 335.91 67.5147 337.38 68.4147C341.94 71.2461 346.15 74.573 349.14 79.1942C346.21 80.711 340.88 79.4268 341.88 85.5244C333.16 85.3323 324.73 87.5468 316.14 81.2166C311.06 77.465 302.96 81.9851 297.09 85.8682C286.69 92.7242 276.8 100.379 264.29 103.403C260.83 104.232 257.5 104.181 254.1 104.495C254.13 103.473 254.17 102.462 254.2 101.451ZM344.7 78.4965C341.07 76.11 339.96 73.2887 336.94 73.2382C335.85 73.2382 335.69 74.6741 336.09 75.5538C337.37 78.4156 339.78 79.0223 344.7 78.4965V78.4965Z" fill="#A3A2A7"/>
<path d="M202.37 177.909L202.05 168.97C202.88 169.485 204.05 169.789 204.49 170.527C211.29 183.319 218.25 196.04 222.25 210.106C217.16 215.162 213.91 222.685 205.2 222.766C204.9 208.832 205.08 194.857 202.81 181.033C203.117 180.545 203.242 179.962 203.161 179.389C203.08 178.816 202.8 178.291 202.37 177.909V177.909Z" fill="#EEEDEE"/>
<path d="M241 118.187C234.81 129.239 225.79 135.61 213.06 137.784C207.62 138.714 202.62 139.503 197.31 138.188C195.79 137.804 194.24 137.177 194.31 135.438C194.38 133.699 196.07 133.082 197.62 133.517C213.73 138.037 225.48 130.968 235.56 119.228C236.12 118.581 237.31 118.49 238.2 118.136L241 118.187Z" fill="#A3A2A7"/>
<path d="M455 105.991L451.74 106.376C449.16 103.342 446.85 100.48 442.36 104.282C441.26 105.213 436.9 105.455 435.8 102.998C434.25 99.5296 439.18 100.814 440.22 98.569C437.89 96.6173 435.22 95.0803 433.49 92.8152C428.56 86.3535 424 85.7367 419.29 92.8152L417.59 91.0658C417.85 87.213 420.45 84.9176 423.18 82.8143C425.58 80.9637 427.89 80.448 430.18 83.3401C435.61 90.2669 442.85 94.9286 450.34 99.2364C452.91 100.773 455.53 102.26 455 105.991Z" fill="#585858"/>
<path d="M239.9 315.009C239.775 314.872 239.685 314.706 239.637 314.526C239.589 314.346 239.585 314.157 239.625 313.975C239.666 313.793 239.749 313.624 239.868 313.481C239.987 313.339 240.139 313.228 240.31 313.158C240.76 312.663 242 312.582 241.19 311.439C246.73 308.284 245.5 313.462 246.54 315.858L245.76 317.426L247.25 316.637C251.664 327.954 255.113 339.633 257.56 351.544C256.65 352.232 255.8 353.142 254.47 352.555C254.29 351.938 254.39 351.059 253.3 351.312L252.84 351.595C251.51 341.007 248.07 330.996 244.6 320.995C244.49 320.682 243.26 320.773 242.6 320.672C241.87 318.7 242.13 316.263 239.9 315.009Z" fill="#C4C3C5"/>
<path d="M172 113.727L174 113.373L179.9 113.484L180.9 118.156C180.601 118.561 180.45 119.058 180.472 119.563C180.494 120.068 180.688 120.55 181.02 120.927C180.41 125.983 180.21 131.181 178.31 136.034C175.2 136.5 174.69 139.624 172.9 141.434C169.64 141.738 166.57 144.175 163.12 142.304L163.66 138.391C168.4 139.159 172.13 138.391 172.66 132.556C172.66 131.353 172.66 130.139 172.58 128.936C177.84 123.95 172.15 120.421 170.93 116.296L172 113.727ZM177.53 119.37L177.97 118.874C177.631 118.677 177.276 118.508 176.91 118.369C176.82 118.369 176.62 118.662 176.47 118.824L177.53 119.37Z" fill="#DCDCDC"/>
<path d="M227.15 82.0053C231.96 77.465 237.6 76.3122 243.02 79.9829C248.22 83.5121 252.02 88.4468 249.73 95.596H246.73C246.19 93.1995 245.73 90.7625 245.07 88.4164C243.87 84.3716 240.47 82.8244 236.81 82.4907C233.87 82.2278 231.24 83.1986 229.81 86.5356C228 90.6917 229.67 93.877 232.16 96.5163C234.05 98.5387 236.93 99.6207 239.36 101.117L239.12 103.372C232.12 103.928 228.53 99.2566 225.12 94.2714C225.23 92.0973 226.65 89.8423 224.73 87.7996C224.746 87.4613 224.726 87.1223 224.67 86.7884C227.31 86.2322 227.23 84.1188 227.15 82.0053Z" fill="#A3A2A7"/>
<path d="M205.2 222.766C213.91 222.685 217.2 215.142 222.25 210.106C223.25 213.524 225.66 215.162 229.06 215.536C227.78 219.156 224.49 221.209 222.33 224.141C221.33 225.517 220.04 226.508 217.95 225.587C212.44 223.201 209.17 226.103 206.77 230.755C202.66 228.803 206.54 225.254 205.2 222.766Z" fill="#585858"/>
<path d="M239.08 103.443L239.32 101.188C243.44 101.562 245.94 99.732 246.74 95.6265H249.74C250.31 98.286 249.97 101.694 254.21 101.481C254.21 102.493 254.14 103.504 254.11 104.515C249.11 104.869 246.53 108.287 244.74 112.322C243.74 114.536 243.43 117.014 240.97 118.207L238.22 118.156C238.26 115.892 239.18 113.734 240.78 112.15C244 108.469 243.29 105.617 239.08 103.443Z" fill="#C4C3C5"/>
<path d="M254.47 352.565C255.8 353.142 256.65 352.232 257.56 351.554C258.285 351.685 258.939 352.076 259.402 352.656C259.865 353.236 260.106 353.965 260.08 354.709C258.76 356.226 256.58 357.743 260.08 359.219L258.08 362.253L255.66 362.121L255.18 359.341C254.893 359.476 254.616 359.632 254.35 359.806C254.69 360.635 255.09 361.454 255.48 362.263C255.32 363.031 255.17 363.79 255.01 364.548C254.473 364.097 253.836 363.785 253.153 363.639C252.47 363.492 251.762 363.517 251.09 363.709C249.997 360.021 248.903 356.334 247.81 352.646C249.2 350.978 251.15 352.11 252.81 351.635L253.26 351.362C252.82 352.434 252.26 353.516 253.19 354.618L254.47 352.565Z" fill="#616161"/>
<path d="M239.9 315.009C242.13 316.263 241.9 318.7 242.56 320.682L243.35 339.642L240.18 339.561C238.902 331.435 238.808 323.163 239.9 315.009Z" fill="#EEEDEE"/>
<path d="M370.82 133.608C370.37 135.741 369 137.571 367.26 137.875C365.2 138.229 363.6 136.115 363.26 134.305C362.86 132.172 364.97 130.402 366.6 130.089C368.59 129.714 369.54 132.222 370.82 133.608Z" fill="#71C8A9"/>
<path d="M251.39 206.506C247.93 205.919 243.64 206.152 245.46 200.388C249.16 200.863 249.46 195.484 253.11 195.858C254.48 195.989 256.2 195.575 256.38 197.587C256.38 197.971 254.98 198.487 254.22 198.932C248.87 198.679 252.09 202.906 251.13 204.938C250.98 205.131 250.68 205.353 250.72 205.495C250.854 205.851 251.028 206.191 251.24 206.506H251.39Z" fill="#4F4F4F"/>
<path d="M398.36 174.966C393.49 174.966 388.61 174.966 383.74 174.855C381.46 174.784 378.69 175.795 377.36 172.711C383.04 171.376 388.82 172.185 394.55 171.943C396.55 171.852 398.51 172.145 398.36 174.966Z" fill="#DCDCDC"/>
<path d="M206.22 292.176L204.5 291.508L203.9 288.758C205.37 286.806 204.9 285.249 202.9 284.046C202.7 283.126 202.51 282.205 202.31 281.285C203.79 279.859 203.19 278.848 201.67 278.019L200.98 275.329L201.67 275.552L202.37 275.369H203.64C205.83 280.739 209.87 285.866 206.22 292.176Z" fill="#191820"/>
<path d="M341.88 85.5244C340.88 79.4571 346.21 80.711 349.14 79.1942C350.45 81.338 355.14 81.2773 353.75 84.8166C352.66 87.5671 349.35 85.8278 347.03 85.939C345.306 85.9257 343.585 85.7871 341.88 85.5244V85.5244Z" fill="#DCDCDC"/>
<path d="M293.19 170.264L288.96 170.547C286.55 168.13 282.75 170.426 280.34 168.525C280.84 164.116 286.7 168.009 286.7 163.469L288.7 161.446C291.39 163.732 291 167.665 293.19 170.264Z" fill="#71C8A9"/>
<path d="M178.31 136.034C180.21 131.181 180.41 126.013 181.02 120.927C185.63 130.2 185 133.638 178.31 136.034Z" fill="#171717"/>
<path d="M180.9 118.156L179.9 113.484C179.9 112.655 179.95 111.826 179.98 110.997L181.79 109.207C182.263 109.156 182.732 109.065 183.19 108.934L184.68 109.409C183.56 112.392 186.14 116.983 180.9 118.156Z" fill="#171717"/>
<path d="M210.4 239.522C212.68 242.07 213.58 245.266 214.54 248.441C207.67 248.046 207.54 244.467 210.4 239.522Z" fill="#171717"/>
<path d="M243.07 405.391C246.07 408.122 245.66 411.256 244.13 414.492C242.749 411.673 242.375 408.458 243.07 405.391V405.391Z" fill="#C4C3C5"/>
<path d="M246.73 190.064C247.025 190.427 247.246 190.846 247.38 191.297L246.78 192.855L243.61 192.976L240.77 189.942C240.77 186.666 243.13 187.02 245.22 186.909C245.147 187.525 245.25 188.151 245.518 188.71C245.785 189.269 246.206 189.739 246.73 190.064V190.064Z" fill="#4F4F4F"/>
<path d="M244.77 420.347C247.35 422.683 247.06 425.292 245.49 428.032C244.289 425.657 244.032 422.908 244.77 420.347Z" fill="#C4C3C5"/>
<path d="M251.13 204.939C252.13 202.916 248.87 198.679 254.22 198.932C254.359 200.006 254.271 201.097 253.963 202.134C253.654 203.171 253.132 204.131 252.43 204.949C252 204.959 251.56 204.959 251.13 204.939Z" fill="#EEEDEE"/>
<path d="M227.15 82.0054C227.23 84.1188 227.31 86.2322 224.59 86.839C224.21 84.5637 224.48 82.6728 227.15 82.0054Z" fill="#4F4F4F"/>
<path d="M224.65 87.9008C226.57 89.9232 225.15 92.1984 225.04 94.3725C221.86 92.4007 224.65 90.0648 224.65 87.9008Z" fill="#4F4F4F"/>
<path d="M422.41 147.957L418.86 146.945C419.59 145.277 420.86 144.792 422.39 145.621C423.4 146.187 423.5 147.168 422.41 147.957Z" fill="#585858"/>
<path d="M279.54 157.907C278.31 160.243 276.79 160.496 274.97 158.544C275.593 158.01 276.354 157.666 277.163 157.553C277.973 157.441 278.797 157.563 279.54 157.907V157.907Z" fill="#71C8A9"/>
<path d="M266.18 159.313C264.95 161.729 263.42 162.023 261.56 159.98C262.2 159.459 262.966 159.122 263.779 159.005C264.592 158.888 265.422 158.994 266.18 159.313Z" fill="#71C8A9"/>
<path d="M260.12 359.209C256.58 357.743 258.76 356.176 260.12 354.699C260.523 354.728 260.929 354.691 261.32 354.588C261.39 356.256 262.15 358.087 260.12 359.209Z" fill="#585858"/>
<path d="M413.17 101.562L415.95 101.34C416.23 102.493 416.39 103.787 414.82 103.918C413.25 104.05 413.14 102.776 413.17 101.562Z" fill="#585858"/>
<path d="M324.64 185.361C326.54 185.948 327.36 186.838 325.49 188.466C325.001 188.14 324.645 187.646 324.489 187.075C324.332 186.504 324.386 185.895 324.64 185.361Z" fill="#DCDCDC"/>
<path d="M330.65 209.317C332.81 210.247 332.86 211.754 331.77 213.564C331.198 213.041 330.788 212.361 330.59 211.608C330.391 210.854 330.412 210.059 330.65 209.317Z" fill="#DCDCDC"/>
<path d="M326.17 191.348C328.02 191.934 328.85 192.814 327.03 194.432C326.544 194.108 326.189 193.618 326.031 193.052C325.873 192.486 325.923 191.881 326.17 191.348V191.348Z" fill="#DCDCDC"/>
<path d="M329.19 203.321C331.01 203.958 331.78 204.868 329.97 206.425C329.516 206.07 329.192 205.571 329.051 205.009C328.909 204.446 328.958 203.852 329.19 203.321Z" fill="#DCDCDC"/>
<path d="M237.94 162.255C237.762 162.892 237.391 163.456 236.88 163.87C236.369 164.283 235.743 164.525 235.09 164.561C234.4 161.729 236 161.81 237.94 162.255Z" fill="#71C8A9"/>
<path d="M327.71 197.324C329.51 197.951 330.33 198.831 328.53 200.418C328.059 200.079 327.72 199.585 327.571 199.02C327.421 198.456 327.47 197.856 327.71 197.324V197.324Z" fill="#DCDCDC"/>
<path d="M251.3 160.961C250.46 162.68 249.48 163.236 248.18 161.375C248.584 160.971 249.107 160.711 249.671 160.637C250.234 160.562 250.807 160.676 251.3 160.961V160.961Z" fill="#71C8A9"/>
<path d="M419.21 107.417L423.12 108.428L419.12 109.197L419.21 107.417Z" fill="#585858"/>
<path d="M246.78 192.895L247.38 191.338L249.61 193.36L246.78 192.895Z" fill="#71C8A9"/>
<path d="M298.59 187.97C298.91 186.828 299.24 185.695 299.59 184.552C300.8 186.15 301.46 187.576 298.59 187.97Z" fill="#71C8A9"/>
<path d="M247.25 316.637L245.76 317.426L246.54 315.858C246.64 315.851 246.741 315.867 246.835 315.904C246.928 315.942 247.012 316 247.08 316.075C247.149 316.15 247.199 316.239 247.229 316.336C247.258 316.434 247.265 316.536 247.25 316.637V316.637Z" fill="#EEEDEE"/>
<path d="M288.2 160.02C287.7 159.181 287.2 158.352 286.71 157.513C288.39 157.634 288.43 158.746 288.2 160.02Z" fill="#71C8A9"/>
<path d="M246.32 185.2C246.564 185.518 246.782 185.856 246.97 186.211C247.03 186.352 246.84 186.605 246.77 186.797L245.23 186.969L246.32 185.2Z" fill="#4F4F4F"/>
<path d="M244.2 183.42L245.67 184.431C244.75 184.745 244.3 184.35 244.2 183.42Z" fill="#4F4F4F"/>
<path d="M241.19 311.439C242 312.582 240.76 312.663 240.31 313.158L241.19 311.439Z" fill="#EEEDEE"/>
<path d="M251.13 204.939C251.56 204.939 252 204.939 252.43 204.939C252.69 205.95 252.1 206.354 251.24 206.536C251.028 206.221 250.854 205.882 250.72 205.525C250.68 205.353 251 205.131 251.13 204.939Z" fill="#F3F3F3"/>
<path d="M294.64 173.298C294.204 173.121 293.848 172.788 293.64 172.363C293.432 171.938 293.385 171.45 293.51 170.992C293.89 171.761 294.27 172.529 294.64 173.298Z" fill="#71C8A9"/>
<path d="M480.09 250.221L407.21 251.323C404.09 250.524 399.91 250.787 401.36 245.407L413.36 229.865L419.49 228.025C423.79 226.922 428.26 226.002 428.27 220.066C430.41 216.962 434.27 218.539 436.92 216.82C447.802 226.989 459.54 236.178 472 244.285C474.79 246.115 478.86 246.247 480.09 250.221Z" fill="#F3F3F3"/>
<path d="M480.81 278.069C483.61 291.994 483.08 306.12 483.18 320.207H479.97C479 304.128 478 287.949 477.2 271.769C476.71 262.284 476.83 262.335 467.06 262.507C447.78 262.851 428.497 263.151 409.21 263.407C407.48 263.407 405.75 263.407 404.02 263.306C402.9 263.306 401.96 262.547 402.11 261.526C402.236 261.082 402.462 260.673 402.771 260.332C403.08 259.992 403.463 259.729 403.89 259.564C405.332 259.23 406.811 259.087 408.29 259.139C432.03 258.829 455.767 258.55 479.5 258.3C481.5 258.3 484.5 257.157 485.31 259.979C486.06 262.507 482.97 261.779 481.78 262.78C479.16 264.984 480.9 267.967 480.2 270.495C479.93 273.084 479.15 275.673 480.81 278.069Z" fill="#C4C3C5"/>
<path d="M435.75 333.888C432.47 353.476 426.1 372.314 421.6 391.527C420.02 398.272 417.96 404.896 416.12 411.57L412.37 411.479C418.72 385.46 424.98 359.411 432.66 333.737L435.75 333.888Z" fill="#C4C3C5"/>
<path d="M480.09 250.221C478.86 246.247 474.79 246.115 472.02 244.285C459.56 236.178 447.822 226.989 436.94 216.82L438.28 212.775C445.05 218.246 451.95 223.555 458.54 229.228C466.11 235.72 475.25 239.785 483.01 245.953L484.83 248.259L485.06 247.986C484 250.13 483.15 252.668 480.09 250.221Z" fill="#616161"/>
<path d="M484.66 353.162C485.02 360.18 485.383 367.194 485.75 374.205C485.365 374.605 485.065 375.08 484.868 375.601C484.671 376.122 484.581 376.678 484.603 377.236C484.626 377.793 484.76 378.34 484.999 378.843C485.237 379.346 485.574 379.795 485.99 380.161C486.41 390.152 486.827 400.146 487.24 410.144C486.855 410.543 486.555 411.017 486.357 411.537C486.159 412.057 486.067 412.613 486.088 413.17C486.109 413.727 486.241 414.273 486.477 414.777C486.712 415.281 487.047 415.731 487.46 416.1V431.723C483.9 427.517 483.23 421.611 483.32 401.063C484.64 399.91 484.24 398.97 482.98 398.131L481.45 353.172L484.66 353.162Z" fill="#DCDCDC"/>
<path d="M435.75 333.888L432.66 333.777L433.43 330.865C434.56 330.663 436.63 330.561 436.67 330.218C436.88 328.488 434.92 328.6 433.99 327.75C436.99 315.97 439.52 304.128 437.12 291.64C441.45 294.34 441.5 299.032 441.39 301.934C441.01 312.38 443.34 322.593 443.02 332.948C443.02 334.283 443.85 336.275 441.83 336.71C439.55 337.185 440.18 334.97 439.66 333.757C438.35 330.713 437.06 333.555 435.75 333.888Z" fill="#DCDCDC"/>
<path d="M412.37 411.519L416.12 411.61C414.69 417.809 413.3 424.028 411.81 430.206C411.4 431.905 410.67 433.756 408.37 432.916C406.6 432.269 406.89 430.5 407.27 429.114C408.87 423.219 409.58 417.071 412.37 411.519Z" fill="#A3A2A7"/>
<path d="M480 320.247H483.21C483.663 330.258 484.11 340.266 484.55 350.27H481.33L480 320.247Z" fill="#DCDCDC"/>
<path d="M401.36 245.407C399.91 250.787 404.09 250.524 407.21 251.323C401.29 253.608 397.69 252.425 398.12 245.175L397.85 245.043L401.36 245.407Z" fill="#616161"/>
<path d="M480.81 278.069C479.15 275.673 479.93 273.084 480.2 270.536C481.46 272.953 483.58 275.309 480.81 278.069Z" fill="#A3A2A7"/>
<path d="M487.46 416.1C487.047 415.731 486.712 415.281 486.477 414.777C486.241 414.273 486.109 413.726 486.088 413.17C486.067 412.613 486.159 412.057 486.357 411.537C486.555 411.017 486.855 410.543 487.24 410.144C487.773 411.036 488.073 412.051 488.111 413.093C488.15 414.135 487.926 415.17 487.46 416.1Z" fill="#A3A2A7"/>
<path d="M486 380.161C485.584 379.795 485.247 379.346 485.009 378.843C484.77 378.34 484.636 377.793 484.613 377.236C484.591 376.678 484.681 376.122 484.878 375.601C485.075 375.08 485.375 374.605 485.76 374.205C486.284 375.101 486.58 376.113 486.622 377.153C486.664 378.192 486.45 379.226 486 380.161V380.161Z" fill="#A3A2A7"/>
<path d="M493.44 249.755H497.9C497.3 253.547 494.34 252.678 491.9 252.85L493.44 249.755Z" fill="#191820"/>
<path d="M434 327.75C434.93 328.6 436.89 328.488 436.68 330.218C436.68 330.561 434.57 330.663 433.44 330.865C433.62 329.833 433.8 328.792 434 327.75Z" fill="#C4C3C5"/>
<path d="M481.3 350.25H484.52C484.849 350.66 485.041 351.165 485.066 351.693C485.091 352.22 484.949 352.742 484.66 353.182H481.45C481.107 352.78 480.906 352.273 480.879 351.742C480.852 351.211 481 350.686 481.3 350.25V350.25Z" fill="#C4C3C5"/>
<path d="M483 398.171C484.26 399.01 484.66 399.951 483.34 401.104C482.918 400.755 482.647 400.254 482.584 399.707C482.52 399.16 482.669 398.609 483 398.171Z" fill="#A3A2A7"/>
<path d="M182.15 382.932C183.15 377.087 181.15 371.809 179.24 366.439C175.33 355.629 171.68 344.718 167.92 333.838L170.32 329.793C176.73 344.041 180.96 359.118 186.44 373.71C187.64 376.905 186.98 380.06 185.84 383.155L182.15 382.932Z" fill="#585858"/>
<path d="M170.32 329.813L167.92 333.858L165.25 333.959L162.31 329.338L162.9 324.98C165.35 323.18 165.39 321.097 163.62 318.801C163.85 316.87 164.07 314.938 164.3 313.007L167.63 312.875C166.71 317.264 167.81 321.572 168.2 325.9C167.84 326.85 168.07 327.528 169.09 327.831L170.32 329.813Z" fill="#25242B"/>
<path d="M167.63 312.855L164.3 312.987C164.185 312.768 164.104 312.533 164.06 312.289C164.06 309.356 163.7 306.292 166.06 304.007C166.378 303.887 166.722 303.851 167.058 303.902C167.393 303.954 167.711 304.091 167.98 304.3C169.43 307.162 168.72 310.044 167.63 312.855Z" fill="#585858"/>
<path d="M182.15 382.932L185.84 383.175C185.62 384.682 185.41 386.208 185.19 387.705L180.07 389.171C180.18 386.896 178.81 384.125 182.15 382.932Z" fill="#616161"/>
<path d="M116.51 423.371C115.12 420.954 114.84 418.577 116.73 416.292C119.53 418.729 118 421.045 116.51 423.371Z" fill="#616161"/>
<path d="M109.06 452.079C110.6 452.079 112.06 451.917 113.14 450.592L116.86 451.604L117.3 451.341L117.75 451.604L117.33 454.799C114.54 454.01 110.3 457.661 109.06 452.079Z" fill="#191820"/>
<path d="M182.2 451.765C179.87 452.311 177.49 452.989 176.69 449.591C178.49 450.41 181 449.5 182.2 451.765Z" fill="#616161"/>
<path d="M163.62 318.781C165.39 321.076 165.35 323.159 162.9 324.959C162.547 323.942 162.428 322.857 162.553 321.786C162.678 320.715 163.043 319.687 163.62 318.781V318.781Z" fill="#585858"/>
<path d="M202.91 284.046C204.91 285.249 205.37 286.806 203.91 288.758C203.32 288.148 202.912 287.382 202.735 286.548C202.558 285.714 202.619 284.846 202.91 284.046Z" fill="#616161"/>
<path d="M201.68 278.019C203.2 278.848 203.8 279.859 202.32 281.285C201.85 280.904 201.529 280.367 201.412 279.77C201.295 279.172 201.39 278.552 201.68 278.019Z" fill="#616161"/>
<path d="M202.38 275.37L201.68 275.552L200.99 275.329L199.64 272.063C201.76 272.154 201.73 274.045 202.38 275.37Z" fill="#616161"/>
<path d="M135.27 272.295C136.27 271.224 137.22 271.133 138.22 272.295C137.812 272.657 137.288 272.856 136.745 272.856C136.202 272.856 135.678 272.657 135.27 272.295Z" fill="#616161"/>
<path d="M178.16 435.515C176.86 434.282 177.25 433.311 178.62 432.482C178.897 432.964 179.002 433.529 178.919 434.08C178.835 434.632 178.567 435.138 178.16 435.515V435.515Z" fill="#616161"/>
<path d="M123.37 275.319L122.83 273.721L124.43 273.6L123.37 275.319Z" fill="#616161"/>
<path d="M118.5 390.749L117.5 389.647L118.41 389.02C118.45 389.596 118.47 390.172 118.5 390.749Z" fill="#616161"/>
<path d="M169.09 327.811C168.09 327.508 167.84 326.8 168.2 325.88C168.5 326.527 168.79 327.174 169.09 327.811Z" fill="#585858"/>
<path d="M139.8 202.441C145.32 203.614 147.21 201.339 145.8 195.979C150.57 191.53 156.8 195.383 161.98 193.057C169.59 193.057 177.21 193.208 184.82 192.976C188.96 192.844 190.63 194.048 190.02 198.497C188.76 207.82 187.76 217.184 186.88 226.558C186.53 230.29 184.88 231.736 181.23 231.695C174.35 231.614 167.46 231.776 160.58 231.827C160.49 225.689 163.05 219.854 162.41 213.625C161.88 208.367 159.41 207.254 155.01 209.297C153.01 210.227 151.22 211.613 149.19 212.442C142.06 215.354 139.09 213.706 137.84 206.374L137.73 203.391L139.8 202.441Z" fill="#EEEDEE"/>
<path d="M180.81 170.729L180.04 173.52C179.532 173.836 179.135 174.306 178.907 174.864C178.679 175.422 178.631 176.038 178.77 176.625C176.608 180.181 173.417 182.98 169.63 184.643C169.079 184.425 168.472 184.396 167.903 184.56C167.334 184.725 166.834 185.074 166.48 185.554L156.06 185.483C155.732 184.977 155.242 184.601 154.672 184.417C154.102 184.232 153.487 184.252 152.93 184.472C142.01 179.921 136.22 171.012 132.6 160.202C131.53 157.037 131.37 154.337 135.15 152.992C135.9 153.518 136.42 153.296 136.78 152.507C137.236 152.552 137.694 152.552 138.15 152.507C140.41 156.016 142.35 159.778 144.98 162.973C150.48 169.667 154.18 169.94 160.85 164.571C162.05 163.56 162.85 162.832 164.59 163.479C175.05 167.261 176.25 166.361 176.21 155.217L178.37 153.973L181.44 156.916C181.39 160.415 181.33 163.914 181.28 167.412C180.827 167.82 180.532 168.377 180.446 168.984C180.36 169.591 180.489 170.209 180.81 170.729V170.729Z" fill="#EEEDEE"/>
<path d="M137.89 206.324C139.14 213.685 142.11 215.334 149.24 212.391C151.24 211.562 153.06 210.177 155.06 209.246C159.47 207.224 161.93 208.316 162.46 213.574C163.1 219.824 160.54 225.709 160.63 231.776C158.63 232.241 157.43 230.542 155.78 230.057C156.28 227.529 155.04 226.953 152.96 227.681C150.026 228.843 146.89 229.397 143.74 229.309C143.26 228.065 143.87 227.114 144.58 226.194L147.81 225.112L144.62 224C143.53 222.21 144.31 220.966 145.85 220.036C150.48 219.925 154.54 218.772 157.85 213.038L145.25 217.558C138.54 218.125 133.11 216.76 132.09 208.72C132.92 205.282 135.83 206.829 137.89 206.324Z" fill="#4F4F4F"/>
<path d="M176.21 155.298C176.21 166.421 175.05 167.342 164.59 163.56C162.8 162.913 162.05 163.681 160.85 164.652C154.18 170.021 150.48 169.708 144.98 163.054C142.35 159.859 140.41 156.097 138.15 152.588L142.45 152.254C145.53 156.056 147.2 161.042 151.79 163.59C153.85 164.723 155.64 164.429 157.01 162.579C159.01 159.899 156.69 159.262 154.92 158.352C150.81 156.218 147.65 153.296 146.73 148.432L149.8 148.017C151.8 150.1 153.48 152.628 155.8 154.166C160.61 157.32 165.07 155.308 166.01 149.969C169.24 149.221 169.4 152.396 170.91 153.852C170.35 156.431 163.97 157.007 168.05 160.931C171.05 163.812 171.77 160.101 172.93 158.261C174.73 158.16 175.05 157.027 174.82 155.51L175.49 155.288L176.21 155.298Z" fill="#585858"/>
<path d="M166 149.939C165.06 155.278 160.6 157.29 155.79 154.135C153.45 152.598 151.79 150.09 149.79 147.987C150.19 146.147 146.48 144.438 149.58 142.537C151.78 141.192 153.08 142.739 154.53 144.144C157.618 147.3 161.65 149.337 166 149.939Z" fill="#DCDCDC"/>
<path d="M146.73 148.402C147.65 153.225 150.81 156.188 154.92 158.322C156.69 159.232 158.97 159.869 157.01 162.548C155.64 164.429 153.85 164.723 151.79 163.56C147.2 161.011 145.53 156.026 142.45 152.224C142.93 149.898 142.49 146.521 146.73 148.402Z" fill="#DCDCDC"/>
<path d="M143.74 229.359C146.89 229.447 150.026 228.894 152.96 227.731C155.04 227.003 156.28 227.58 155.78 230.108C148 235.892 139.08 233.93 130.44 233.91C132.44 231.099 135.34 232.504 137.87 232.322C140.4 232.14 142.93 232.686 143.74 229.359Z" fill="#A3A2A7"/>
<path d="M162 193.057C156.84 195.383 150.59 191.53 145.82 195.979L140.26 193.522C148.35 192.349 155.11 189.983 162 193.057Z" fill="#4F4F4F"/>
<path d="M173 158.261C171.84 160.101 171.08 163.812 168.12 160.931C164.04 156.977 170.42 156.4 170.98 153.852L172.72 153.913C172.89 154.469 173.05 155.035 173.21 155.591L173 158.261Z" fill="#C4C3C5"/>
<path d="M173.16 155.561C173 155.005 172.84 154.439 172.67 153.882C173.574 153.306 174.591 152.933 175.65 152.789C176.709 152.644 177.787 152.731 178.81 153.043C178.58 153.336 178.428 153.684 178.37 154.054L176.21 155.298H175.51L174.84 155.52L173.16 155.561Z" fill="#25242B"/>
<path d="M178.37 154.054C178.428 153.684 178.58 153.336 178.81 153.043C180.98 153.488 183.48 153.71 181.44 156.997L178.37 154.054Z" fill="#4F4F4F"/>
<path d="M180.81 170.729C180.51 170.217 180.393 169.616 180.478 169.027C180.564 168.438 180.847 167.897 181.28 167.493C183 168.848 182.44 169.87 180.81 170.729Z" fill="#4F4F4F"/>
<path d="M139.8 202.441L137.8 203.341C136.8 202.623 136.9 201.773 137.87 201.318C138.84 200.863 139.52 201.409 139.8 202.441Z" fill="#4F4F4F"/>
<path d="M166.48 185.554C166.834 185.074 167.334 184.725 167.903 184.56C168.472 184.396 169.079 184.425 169.63 184.644C169 186.555 168.1 187.232 166.48 185.554Z" fill="#4F4F4F"/>
<path d="M121 221.896C120.711 222.62 120.199 223.231 119.539 223.637C118.88 224.043 118.109 224.224 117.34 224.151C117.79 222.22 119 221.411 121 221.896Z" fill="#585858"/>
<path d="M152.93 184.492C153.487 184.272 154.102 184.253 154.672 184.437C155.242 184.621 155.732 184.997 156.06 185.503C154.39 187.172 153.47 186.433 152.93 184.492Z" fill="#4F4F4F"/>
<path d="M116.08 272.781C116.034 273.461 115.749 274.103 115.276 274.589C114.802 275.075 114.172 275.374 113.5 275.43C112.82 273.074 113.79 272.305 116.08 272.781Z" fill="#C4C3C5"/>
<path d="M202.37 177.909C202.8 178.291 203.08 178.816 203.161 179.389C203.242 179.962 203.117 180.545 202.81 181.033C200.79 180.255 200.37 179.254 202.37 177.909Z" fill="#25242B"/>
<path d="M178.77 176.625C178.631 176.038 178.679 175.422 178.907 174.864C179.135 174.306 179.532 173.836 180.04 173.52C181.59 175.371 180.62 176.18 178.77 176.625Z" fill="#4F4F4F"/>
<path d="M136.78 152.548C136.42 153.336 135.9 153.559 135.15 153.033C135.5 152.204 136.06 152.072 136.78 152.548Z" fill="#585858"/>
<path d="M428 161.638C432.46 166.907 439 164.429 444.41 166.037C446.41 167.898 444.41 168.616 443.32 168.868C437.88 170.122 432.44 170.891 428 166.148V161.638Z" fill="#4F4F4F"/>
<path d="M450.33 163.034C449.84 159.131 450.7 157.685 454.8 155.541C456.35 159.778 455.26 161.628 450.33 163.034Z" fill="#4F4F4F"/>
<path d="M444.38 166.037C445.88 162.275 447.33 161.547 450.32 163.003C449.23 167.291 447.92 167.958 444.38 166.037Z" fill="#4F4F4F"/>
<path d="M428 161.638V166.148C426.72 164.884 423.41 164.267 426.54 161.568C427 160.951 427.51 160.971 428 161.638Z" fill="#25242B"/>
<path d="M249.75 385.43C248.065 385.115 246.353 384.973 244.64 385.005C239.77 385.541 237.69 384.125 237.58 378.614C237.46 372.719 240.25 372.365 244.75 372.345C260.75 372.244 276.81 371.768 292.85 371.657C295.54 371.657 299.64 369.766 300.71 373.396C301.78 377.027 302.91 381.779 298.64 384.955L249.75 385.43Z" fill="#25242B"/>
<path d="M145.27 217.609L157.87 213.089C154.54 218.822 150.48 219.975 145.87 220.086C145.66 219.257 145.46 218.438 145.27 217.609Z" fill="#A3A2A7"/>
<path d="M144.62 224.05L147.81 225.163L144.58 226.265C144.59 225.517 144.61 224.778 144.62 224.05Z" fill="#A3A2A7"/>
<path d="M465.16 112.089C462.03 112.15 462.16 114.384 462.16 116.579C458.02 114.223 461.98 110.511 460.65 107.64C463.73 107.538 465.07 109.167 465.16 112.089Z" fill="#585858"/>
<path d="M438.28 212.785L436.94 216.83C434.29 218.549 430.43 216.972 428.29 220.076C427.29 219.894 426.36 219.682 425.4 219.52C421.01 218.772 419.8 223.565 416.47 224.92C415.69 225.244 419.29 226.123 419.47 228.035L413.34 229.875C413.098 228.461 412.955 227.032 412.91 225.598C413.1 219.368 410.72 219.611 406.91 223.11C405.98 223.373 404.52 224.121 404.19 223.818C396.28 215.728 391.04 223.11 385.19 227.044C384.39 227.58 383.48 227.964 382.63 228.419L380.73 226.305C380.9 224.202 389.24 222.493 381.03 219.985C380.15 217.093 380.15 217.093 386.21 216.325C392.06 216.446 397.92 216.578 403.78 216.658C405.78 216.658 407.78 216.608 407.93 213.817L406.76 205.029C407.842 204.78 408.966 204.773 410.051 205.011C411.136 205.249 412.157 205.724 413.04 206.405C413.4 209.489 415.75 208.296 417.45 208.508C417.52 209.317 417.58 210.136 417.64 210.945C416 211.127 414.31 211.228 413.13 213.908C417.72 213.908 421.94 213.999 426.13 213.908C427.86 213.908 430.01 213.625 427.84 211.026L428 208.498L435.2 210.086L438.28 212.785Z" fill="#25242B"/>
<path d="M435.2 210.086L428 208.478C424.533 207.528 420.877 207.546 417.42 208.528C415.72 208.316 413.37 209.54 413.01 206.425C420.53 201.784 428.01 202.724 435.52 206.496C435.43 207.679 435.32 208.862 435.2 210.086Z" fill="#DCDCDC"/>
<path d="M484.83 248.269L483 245.963C484.48 246.034 486 246.044 484.83 248.269Z" fill="#171717"/>
<path d="M183.17 108.964C182.712 109.095 182.243 109.186 181.77 109.237C181.77 107.073 180.68 104.667 183.02 102.968L183.17 108.964Z" fill="#25242B"/>
<path d="M428.88 118.702C426.01 117.853 424.48 116.194 424.93 113.727C425.5 110.693 426.46 107.387 429.69 106.062C431.11 105.476 432.07 107.397 431.33 108.317C428.85 111.381 431.25 115.699 428.88 118.702Z" fill="#585858"/>
<path d="M436.86 122.353C439.12 121.776 440.7 122.181 440.24 124.133C439.63 126.701 437.18 127.055 434.95 127.014C433.25 127.014 430.87 126.519 431.26 124.507C431.92 121.099 435.57 123.657 436.86 122.353Z" fill="#616161"/>
<path d="M533 424.918C527.53 425.605 524.93 422.501 524.67 417.627C524.52 414.846 522.67 412.722 522.73 410.053C523.47 408.92 525.35 408.142 525.55 409.153C526.78 415.079 532 418.992 533 424.918Z" fill="#25242B"/>
<path d="M540.89 406.686C544.34 407.636 540.74 412.055 543.99 413.087C544.41 415.766 544.99 418.426 545.19 421.105C545.47 424.362 542.89 423.492 541.12 423.684C539.56 423.846 537.88 423.785 538.51 421.56C539.88 416.686 537.78 411.256 540.89 406.686Z" fill="#25242B"/>
<path d="M556.82 423.957C555.94 424.362 555.35 424.857 554.77 424.837C553.63 424.837 553.09 423.977 553.65 422.976C553.88 422.744 554.162 422.573 554.472 422.476C554.782 422.379 555.111 422.36 555.43 422.42C555.91 422.531 556.25 423.28 556.82 423.957Z" fill="#C4C3C5"/>
<path d="M525.55 405.371C525.305 405.608 525.033 405.815 524.74 405.988C524.66 405.988 524.26 405.715 524.27 405.603C524.356 405.253 524.48 404.914 524.64 404.592L525.55 405.371Z" fill="#C4C3C5"/>
<path d="M542.52 396.563L541.9 398.586C540.46 397.413 541.9 397.089 542.49 396.492L542.52 396.563Z" fill="#C4C3C5"/>
<path d="M118.25 332.058C118.74 333.747 119.25 335.435 117.46 336.73C115.88 334.849 115.75 333.231 118.25 332.058Z" fill="#C4C3C5"/>
<path d="M116.71 362C117.35 363.264 117.38 364.386 115.99 365.185C114.57 363.79 114.79 362.678 116.71 362Z" fill="#C4C3C5"/>
<path d="M172.7 132.556C172.13 138.35 168.4 139.159 163.7 138.391C159.6 131.777 159.86 131.403 169.11 130.533C170.1 131.524 171.1 132.586 172.7 132.556Z" fill="#25242B"/>
<path d="M156 109.247L164.21 108.236C164.339 108.954 164.409 109.681 164.42 110.41C164.11 114.243 162.7 117.084 158.2 116.548C152.11 115.79 157.32 111.492 156 109.247Z" fill="#C4C3C5"/>
<path d="M171 116.296C172.22 120.421 177.91 123.95 172.65 128.936L169.53 128.511C169.77 125.943 170.82 123.536 168.63 120.947C166.69 118.692 167.08 116.265 171 116.296Z" fill="#4F4F4F"/>
<path d="M169.5 128.511L172.62 128.936C172.62 130.139 172.62 131.352 172.7 132.556C171.1 132.556 170.1 131.545 169.07 130.533C169.21 129.856 169.36 129.188 169.5 128.511Z" fill="#A3A2A7"/>
<path d="M178.76 401.205C180.28 407.656 180.06 413.794 175.62 419.174C175.45 412.915 177.09 407.039 178.76 401.205Z" fill="#616161"/>
<path d="M180.3 390.678C181.44 394.005 183.04 397.433 178.57 399.658C177.48 396.341 180 393.722 180.3 390.678Z" fill="#616161"/>
<path d="M175.86 420.64C176.99 423.957 178.55 427.365 174.14 429.61C173 426.293 176.49 423.866 175.86 420.64Z" fill="#616161"/>
<path d="M180 110.987C180 111.816 179.94 112.645 179.92 113.474L174.02 113.363C174.79 109.551 177.67 110.987 180 110.987Z" fill="#25242B"/>
<path d="M370 194.098C369.83 197.385 368.41 199.245 365.51 199.397C362.61 199.549 360.77 197.9 360.63 194.998C360.549 194.372 360.601 193.736 360.783 193.132C360.965 192.528 361.273 191.971 361.686 191.498C362.099 191.024 362.608 190.646 363.178 190.388C363.748 190.13 364.366 189.999 364.99 190.003C367.9 189.861 369.33 191.884 370 194.098Z" fill="#4F4F4F"/>
<path d="M408 213.807C407.86 216.598 405.85 216.679 403.85 216.648C397.99 216.567 392.13 216.436 386.28 216.315C389.11 212.007 393.41 214.565 397.02 214.12C400.672 213.828 404.337 213.724 408 213.807V213.807Z" fill="#DCDCDC"/>
<path d="M243.35 339.642L242.56 320.682C243.26 320.783 244.49 320.682 244.56 321.005C248.03 331.006 251.47 341.017 252.8 351.605C251.18 352.08 249.23 350.947 247.8 352.616L245.4 351.605L243.35 339.642Z" fill="#25242B"/>
<path d="M284.24 351.504C285.9 344.172 287.97 337.013 294 331.087L291.3 357.723L289.19 357.783C289.72 354.75 290.04 351.787 285.49 352.04C285.351 351.842 285.161 351.687 284.94 351.592C284.72 351.497 284.477 351.467 284.24 351.504Z" fill="#25242B"/>
<path d="M266.51 351.443C267.28 343.556 266.41 335.385 270.34 327.528C273.34 334.384 272.52 349.178 269.34 352.04L266.51 351.443Z" fill="#171717"/>
<path d="M281.7 357.723C283.24 355.943 282.02 353 284.24 351.504C284.474 351.463 284.715 351.489 284.935 351.579C285.156 351.668 285.348 351.817 285.49 352.009C286.37 356.216 284.96 360.17 284.28 364.225C283.83 366.854 282.64 368.158 279.93 367.744C279.817 365.418 279.713 363.092 279.62 360.766L279.45 360.817C281 360.392 281.34 359.047 281.7 357.723Z" fill="#585858"/>
<path d="M245.48 351.655L247.88 352.667C248.98 356.347 250.073 360.032 251.16 363.719C251.01 365.104 251.63 366.682 249.76 368.128C246.48 363.011 245.81 357.369 245.48 351.655Z" fill="#585858"/>
<path d="M266.51 351.443L269.31 352.04L267.31 366.48C265.29 361.393 265.51 356.418 266.51 351.443Z" fill="#616161"/>
<path d="M289.19 357.723L291.3 357.662C291.5 361.039 291.61 364.417 289.3 367.228C289.14 367.43 287.66 367.026 287.6 366.733C287 363.578 288.12 360.665 289.19 357.723Z" fill="#616161"/>
<path d="M279.62 360.756C279.72 363.082 279.823 365.408 279.93 367.734C278.78 369.25 276.37 370.565 275.93 368.644C275.37 365.812 274.51 361.505 279.62 360.756Z" fill="#F3F3F3"/>
<path d="M255.73 362.081L258.15 362.223C257.74 363.931 259.44 366.389 257.3 367.279C255.55 368.007 255.44 365.792 255.08 364.498C255.24 363.749 255.39 362.991 255.55 362.223L255.73 362.081Z" fill="#585858"/>
<path d="M272.89 368.421C270.25 364.447 271.41 362.273 272.52 359.462C273.9 362.334 273.52 364.629 272.89 368.421Z" fill="#4F4F4F"/>
<path d="M281.7 357.723C281.34 359.047 281.01 360.392 279.45 360.817C279.394 360.114 279.591 359.414 280.004 358.846C280.418 358.277 281.02 357.879 281.7 357.723V357.723Z" fill="#F3F3F3"/>
<path d="M286.7 163.459C286.7 167.989 280.84 164.096 280.34 168.515C282.75 170.436 286.55 168.14 288.96 170.537C286.18 176.19 280.22 172.398 276.36 174.845C266.83 174.541 257.47 176.331 248.03 177.191C246.32 176.685 245.14 175.765 245.44 173.722C250.87 172.61 256.65 172.893 261.67 170.122C255.61 168.697 249.84 171.366 243.93 170.264C243.72 169.253 242.25 168.009 244.49 167.605C258.45 165.087 272.45 163.003 286.7 163.459Z" fill="#4F4F4F"/>
<path d="M275.46 177.838C275.46 181.458 272.63 181.296 270.28 181.579C264.96 182.227 259.63 182.752 254.28 183.329L249.66 182.621L249.81 179.527C258.39 179.142 266.81 176.716 275.46 177.838Z" fill="#4F4F4F"/>
<path d="M275.46 177.838C266.81 176.756 258.39 179.142 249.84 179.527L248.03 177.201C257.47 176.341 266.83 174.552 276.36 174.855L275.46 177.838Z" fill="#71C8A9"/>
<path d="M243.93 170.274C249.84 171.376 255.61 168.707 261.67 170.133C256.67 172.903 250.87 172.62 245.44 173.732C244.94 172.58 244.44 171.427 243.93 170.274Z" fill="#71C8A9"/>
<path d="M249.69 182.621L254.31 183.329C252.32 186.089 250.74 186.1 249.69 182.621Z" fill="#71C8A9"/>
<path d="M245.23 186.969L246.77 186.797C246.77 187.889 246.77 188.971 246.77 190.064C246.251 189.747 245.83 189.289 245.558 188.741C245.285 188.194 245.172 187.579 245.23 186.969V186.969Z" fill="#25242B"/>
<path d="M407 223.1C410.77 219.601 413.15 219.358 413 225.587C413.045 227.022 413.188 228.451 413.43 229.865L401.43 245.407L397.92 245.043C399.4 239.138 404.22 235.477 407.46 230.765C409.34 227.944 411.26 225.446 407 223.1Z" fill="#585858"/>
<path d="M382.72 228.409C382.425 228.856 382 229.2 381.504 229.392C381.008 229.584 380.465 229.615 379.95 229.481L379.83 226.882C379.857 226.776 379.904 226.677 379.969 226.591C380.034 226.504 380.115 226.431 380.208 226.376C380.301 226.322 380.404 226.287 380.511 226.273C380.618 226.259 380.726 226.266 380.83 226.295L382.72 228.409Z" fill="#25242B"/>
<path d="M379.83 226.882L379.95 229.481C378.33 228.682 378.55 227.812 379.83 226.882Z" fill="#616161"/>
<path d="M344.7 78.4964C339.78 79.0222 337.37 78.4155 336.09 75.5538C335.69 74.674 335.85 73.228 336.94 73.2381C340 73.2887 341.07 76.1099 344.7 78.4964Z" fill="#4F4F4F"/>
<path d="M254.47 352.565L253.22 354.588C252.33 353.486 252.85 352.404 253.29 351.332C254.39 351.069 254.29 351.949 254.47 352.565Z" fill="#585858"/>
<path d="M177.48 119.37L176.42 118.824C176.57 118.662 176.77 118.348 176.86 118.369C177.226 118.508 177.581 118.677 177.92 118.874L177.48 119.37Z" fill="#A3A2A7"/>
<path d="M246.74 95.6263C245.94 99.7318 243.44 101.562 239.32 101.188C236.89 99.6914 234.01 98.6094 232.12 96.587C229.63 93.9477 227.96 90.7624 229.77 86.6063C231.25 83.2288 233.88 82.2581 236.77 82.5614C240.43 82.8951 243.83 84.412 245.03 88.4871C245.78 90.7624 246.2 93.2297 246.74 95.6263Z" fill="#25242B"/>
<path d="M255.55 362.233C255.16 361.424 254.76 360.605 254.42 359.775C254.686 359.602 254.963 359.446 255.25 359.31L255.73 362.091L255.55 362.233Z" fill="#585858"/>
<path d="M419.51 228.025C419.29 226.113 415.69 225.234 416.51 224.91C419.84 223.575 421.05 218.762 425.44 219.51C426.44 219.672 427.37 219.884 428.33 220.066C428.28 225.982 423.81 226.922 419.51 228.025Z" fill="#4F4F4F"/>
<path d="M173.16 155.561L174.84 155.51C175.07 157.027 174.75 158.16 172.95 158.261L173.16 155.561Z" fill="#171717"/>
<path d="M427.87 211.006C430.04 213.605 427.87 213.837 426.16 213.888C421.94 214.019 417.72 213.888 413.16 213.888C414.34 211.208 416.03 211.107 417.67 210.925C421 213.645 424.46 210.46 427.87 211.006Z" fill="#616161"/>
<path d="M427.87 211.006C424.46 210.46 421.04 213.645 417.64 211.006C417.58 210.197 417.52 209.378 417.45 208.569C420.907 207.586 424.563 207.569 428.03 208.518L427.87 211.006Z" fill="#4F4F4F"/>
</g>
<defs>
<clipPath id="clip0">
<rect width="610.93" height="561.94" fill="white"/>
</clipPath>
</defs>
</svg>
