<svg width="20" height="20" viewBox="0 0 20 20" fill="none" xmlns="http://www.w3.org/2000/svg">
<path d="M17.9033 9.27084L10.385 5.10418C10.2616 5.03576 10.1229 4.9998 9.98177 4.99965C9.84068 4.9995 9.70186 5.03518 9.57833 5.10334L2.09666 9.23668C1.96648 9.30858 1.85793 9.41401 1.78224 9.54203C1.70656 9.67004 1.66652 9.81598 1.66626 9.96469C1.66601 10.1134 1.70555 10.2595 1.78079 10.3877C1.85603 10.516 1.96423 10.6218 2.09416 10.6942L9.61249 14.8942C9.73627 14.9637 9.87582 15.0003 10.0178 15.0005C10.1598 15.0006 10.2994 14.9643 10.4233 14.895L17.905 10.7283C18.035 10.6561 18.1432 10.5503 18.2185 10.4221C18.2938 10.2939 18.3335 10.1478 18.3333 9.9991C18.3331 9.85039 18.2932 9.70443 18.2176 9.57637C18.142 9.44832 18.0335 9.34282 17.9033 9.27084ZM10.0192 13.2125L4.21582 9.97084L9.97999 6.78584L15.7833 10.0017L10.0192 13.2125Z" fill="black"/>
<path d="M9.99997 18.3333C10.1414 18.3334 10.2806 18.2973 10.4041 18.2283L17.9041 14.0617L17.095 12.605L9.99997 16.5467L2.90414 12.605L2.09497 14.0617L9.59497 18.2283C9.71884 18.2972 9.85824 18.3333 9.99997 18.3333ZM16.6666 1.66667H15V3.33333H13.3333V5H15V6.66667H16.6666V5H18.3333V3.33333H16.6666V1.66667Z" fill="black"/>
</svg>
