<svg width="20" height="20" viewBox="0 0 20 20" fill="none" xmlns="http://www.w3.org/2000/svg">
<path d="M15.5556 8.68333C15.9333 8.68333 16.3 8.72778 16.6667 8.78333V4.88333C16.6667 3.99444 16.1444 3.19444 15.3333 2.85L9.22222 0.183333C8.65556 -0.0611111 8.01111 -0.0611111 7.44444 0.183333L1.33333 2.85C0.522222 3.20556 0 4.00556 0 4.88333V8.88333C0 13.9278 3.55556 18.65 8.33333 19.7944C8.94444 19.65 9.53333 19.4389 10.1111 19.1833C9.34444 18.0944 8.88889 16.7722 8.88889 15.35C8.88889 11.6722 11.8778 8.68333 15.5556 8.68333Z" fill="white" fill-opacity="0.6"/>
<path d="M15.5556 10.9056C13.1 10.9056 11.1111 12.8945 11.1111 15.3501C11.1111 17.8056 13.1 19.7945 15.5556 19.7945C18.0111 19.7945 20 17.8056 20 15.3501C20 12.8945 18.0111 10.9056 15.5556 10.9056ZM15.5556 12.4389C16.2444 12.4389 16.8 13.0056 16.8 13.6834C16.8 14.3612 16.2333 14.9278 15.5556 14.9278C14.8778 14.9278 14.3111 14.3612 14.3111 13.6834C14.3111 13.0056 14.8667 12.4389 15.5556 12.4389ZM15.5556 18.4056C14.5222 18.4056 13.6222 17.8945 13.0667 17.1056C13.1222 16.3056 14.7444 15.9056 15.5556 15.9056C16.3667 15.9056 17.9889 16.3056 18.0444 17.1056C17.4889 17.8945 16.5889 18.4056 15.5556 18.4056Z" fill="white" fill-opacity="0.6"/>
</svg>
