<svg width="50" height="46" viewBox="0 0 50 46" fill="none" xmlns="http://www.w3.org/2000/svg">
<path d="M49.4792 41.1458H4.6875V0.520833C4.6875 0.234375 4.45312 0 4.16667 0H0.520833C0.234375 0 0 0.234375 0 0.520833V45.3125C0 45.599 0.234375 45.8333 0.520833 45.8333H49.4792C49.7656 45.8333 50 45.599 50 45.3125V41.6667C50 41.3802 49.7656 41.1458 49.4792 41.1458ZM9.375 36.9792H44.2708C44.5573 36.9792 44.7917 36.7448 44.7917 36.4583V8.07292C44.7917 7.60417 44.2253 7.3763 43.8997 7.70182L30.2083 21.3932L22.0443 13.3203C21.9464 13.2234 21.8142 13.169 21.6764 13.169C21.5387 13.169 21.4065 13.2234 21.3086 13.3203L9.00391 25.6641C8.95611 25.7119 8.91828 25.7688 8.89258 25.8314C8.86688 25.894 8.85382 25.961 8.85417 26.0286V36.4583C8.85417 36.7448 9.08854 36.9792 9.375 36.9792Z" fill="#18171F" fill-opacity="0.8"/>
</svg>
