<svg width="21" height="25" viewBox="0 0 21 25" fill="none" xmlns="http://www.w3.org/2000/svg">
<path d="M20.8359 23.1695C20.8359 24.3647 19.7685 25.3305 18.4493 25.3305H3.22254C1.90457 25.3305 0.835938 24.3644 0.835938 23.1695V3.68478C0.835938 2.49345 1.90575 1.52298 3.22254 1.52298H18.4493C19.7693 1.52298 20.8359 2.49187 20.8359 3.68478V23.1695Z" fill="#D0D1D2"/>
<path d="M20.8359 21.6449C20.8359 22.8402 19.7685 23.8071 18.4493 23.8071H3.22254C1.90457 23.8071 0.835938 22.8394 0.835938 21.6449V2.16021C0.835938 0.96889 1.90575 -0.000396729 3.22254 -0.000396729H18.4493C19.7693 -0.000396729 20.8359 0.967703 20.8359 2.16021V21.6449" fill="#E7E6E6"/>
<path d="M3.84498 5.23708H17.3928C18.3035 5.23708 18.3035 3.95947 17.3928 3.95947H3.84498C2.93546 3.95947 2.93546 5.23708 3.84498 5.23708Z" fill="#35494D"/>
<path d="M3.84498 7.82989H17.3928C18.3035 7.82989 18.3035 6.55386 17.3928 6.55386H3.84498C2.93546 6.55386 2.93546 7.82989 3.84498 7.82989Z" fill="#35494D"/>
<path d="M3.84498 10.4813H17.3928C18.3035 10.4813 18.3035 9.20526 17.3928 9.20526H3.84498C2.93546 9.20526 2.93546 10.4813 3.84498 10.4813Z" fill="#35494D"/>
<path d="M3.84498 13.0729H17.3928C18.3035 13.0729 18.3035 11.7957 17.3928 11.7957H3.84498C2.93546 11.7957 2.93546 13.0729 3.84498 13.0729Z" fill="#35494D"/>
<path d="M3.84498 22.4519H10.0787C10.9894 22.4519 10.9894 21.1739 10.0787 21.1739H3.84498C2.93546 21.1739 2.93546 22.4519 3.84498 22.4519Z" fill="#35494D"/>
</svg>
