<svg width="50" height="38" viewBox="0 0 50 38" fill="none" xmlns="http://www.w3.org/2000/svg">
<path d="M37.5171 0C33.0832 0 28.3083 0.909504 25.0114 3.41064C21.7144 0.909504 16.9395 0 12.5057 0C9.20873 0 5.70714 0.500227 2.77399 1.79627C1.11414 2.54661 0 4.16098 0 6.00273V31.6508C0 34.6066 2.77399 36.7895 5.63893 36.0619C7.86721 35.4934 10.2319 35.2433 12.5057 35.2433C16.0528 35.2433 19.8272 35.8345 22.874 37.3352C24.2383 38.0173 25.7844 38.0173 27.126 37.3352C30.1728 35.8117 33.9472 35.2433 37.4943 35.2433C39.7681 35.2433 42.1328 35.4934 44.3611 36.0619C47.226 36.8122 50 34.6294 50 31.6508V6.00273C50 4.16098 48.8859 2.54661 47.226 1.79627C44.3156 0.500227 40.814 0 37.5171 0ZM45.4752 28.945C45.4752 30.3774 44.1564 31.4234 42.7467 31.1733C41.0414 30.8549 39.2678 30.7185 37.5171 30.7185C33.6517 30.7185 28.0809 32.1965 25.0114 34.1292V7.95816C28.0809 6.02547 33.6517 4.54752 37.5171 4.54752C39.6089 4.54752 41.678 4.75216 43.6562 5.18418C44.7021 5.41155 45.4752 6.34379 45.4752 7.41246V28.945Z" fill="#18171F" fill-opacity="0.8"/>
<path d="M29.5133 14.8022C28.7857 14.8022 28.1263 14.3475 27.899 13.6199C27.6034 12.7331 28.1036 11.7554 28.9904 11.4826C32.4919 10.3457 37.0167 9.98187 41.1777 10.4594C42.11 10.573 42.7921 11.4143 42.6784 12.3466C42.5647 13.2788 41.7234 13.961 40.7912 13.8473C37.1077 13.4152 33.0831 13.7563 30.0363 14.734C29.8544 14.7568 29.6725 14.8022 29.5133 14.8022ZM29.5133 20.8504C28.7857 20.8504 28.1263 20.3957 27.899 19.6681C27.6034 18.7813 28.1036 17.8036 28.9904 17.5308C32.4692 16.3939 37.0167 16.0301 41.1777 16.5076C42.11 16.6213 42.7921 17.4625 42.6784 18.3948C42.5647 19.327 41.7234 20.0092 40.7912 19.8955C37.1077 19.4635 33.0831 19.8045 30.0363 20.7822C29.8653 20.8258 29.6897 20.8487 29.5133 20.8504ZM29.5133 26.8987C28.7857 26.8987 28.1263 26.4439 27.899 25.7163C27.6034 24.8295 28.1036 23.8518 28.9904 23.579C32.4692 22.4421 37.0167 22.0783 41.1777 22.5558C42.11 22.6695 42.7921 23.5107 42.6784 24.443C42.5647 25.3752 41.7234 26.0346 40.7912 25.9437C37.1077 25.5117 33.0831 25.8527 30.0363 26.8304C29.8653 26.874 29.6897 26.8969 29.5133 26.8987Z" fill="#18171F" fill-opacity="0.8"/>
</svg>
