<svg width="20" height="20" viewBox="0 0 20 20" fill="none" xmlns="http://www.w3.org/2000/svg">
<path d="M10 0C8.02219 0 6.08879 0.58649 4.4443 1.6853C2.79981 2.78412 1.51809 4.3459 0.761209 6.17316C0.00433281 8.00043 -0.1937 10.0111 0.192152 11.9509C0.578004 13.8907 1.53041 15.6725 2.92894 17.0711C4.32746 18.4696 6.10929 19.422 8.0491 19.8079C9.98891 20.1937 11.9996 19.9957 13.8268 19.2388C15.6541 18.4819 17.2159 17.2002 18.3147 15.5557C19.4135 13.9112 20 11.9778 20 10C20 7.34783 18.9464 4.8043 17.0711 2.92893C15.1957 1.05357 12.6522 0 10 0V0ZM15 13.8125C15.1658 13.9783 15.2589 14.2031 15.2589 14.4375C15.2589 14.6719 15.1658 14.8967 15 15.0625C14.8342 15.2283 14.6094 15.3214 14.375 15.3214C14.1406 15.3214 13.9158 15.2283 13.75 15.0625L10 11.3125L6.25 15.075C6.16793 15.1571 6.07049 15.2222 5.96325 15.2666C5.85601 15.311 5.74108 15.3339 5.625 15.3339C5.50893 15.3339 5.39399 15.311 5.28676 15.2666C5.17952 15.2222 5.08208 15.1571 5 15.075C4.91793 14.9929 4.85282 14.8955 4.8084 14.7882C4.76398 14.681 4.74112 14.5661 4.74112 14.45C4.74112 14.3339 4.76398 14.219 4.8084 14.1118C4.85282 14.0045 4.91793 13.9071 5 13.825L8.75 10.05L4.89375 6.1625C4.72799 5.99674 4.63487 5.77192 4.63487 5.5375C4.63487 5.30308 4.72799 5.07826 4.89375 4.9125C5.05951 4.74674 5.28433 4.65362 5.51875 4.65362C5.75317 4.65362 5.97799 4.74674 6.14375 4.9125L10 8.8125L13.8563 4.95625C13.9383 4.87417 14.0358 4.80907 14.143 4.76465C14.2502 4.72023 14.3652 4.69737 14.4813 4.69737C14.5973 4.69737 14.7123 4.72023 14.8195 4.76465C14.9267 4.80907 15.0242 4.87417 15.1063 4.95625C15.1883 5.03833 15.2534 5.13576 15.2979 5.243C15.3423 5.35024 15.3651 5.46518 15.3651 5.58125C15.3651 5.69732 15.3423 5.81226 15.2979 5.9195C15.2534 6.02673 15.1883 6.12417 15.1063 6.20625L11.25 10.05L15 13.8125Z" fill="#FF8181"/>
</svg>
