<svg width="36" height="40" viewBox="0 0 36 40" fill="none" xmlns="http://www.w3.org/2000/svg">
<g clip-path="url(#clip0)">
<path d="M30.0467 35.0391H27.5439V35.7821C27.5439 37.1638 27.1593 38.2653 26.3902 39.0865C25.6212 39.9078 24.6891 40.2011 23.5942 39.9664L3.9629 36.0949C2.86793 35.8864 1.9359 35.2216 1.16681 34.1005C0.397727 32.9795 0.0131836 31.7281 0.0131836 30.3463V5.00558C0.0131836 3.62383 0.50201 2.44413 1.47966 1.46648C2.45731 0.488826 3.63702 0 5.01876 0H30.0467C31.4284 0 32.6081 0.488826 33.5858 1.46648C34.5634 2.44413 35.0522 3.62383 35.0522 5.00558V30.0335C35.0522 31.4152 34.5634 32.5949 33.5858 33.5726C32.6081 34.5502 31.4284 35.0391 30.0467 35.0391ZM5.01876 16.3072C5.01876 17.5065 5.40982 18.6015 6.19195 19.5922C6.29623 19.7486 6.57649 19.9962 7.03273 20.3352C7.48897 20.6741 7.89306 21.0326 8.24502 21.4106C8.59697 21.7886 8.77295 22.1601 8.77295 22.5251V27.5307C8.77295 27.9218 9.18356 28.2802 10.0048 28.6061C10.826 28.932 12.0839 29.3035 13.7785 29.7206C14.7953 29.9813 15.6752 30.0791 16.4182 30.0139C17.1612 29.9487 17.7413 29.7988 18.1584 29.5642C18.5755 29.3296 18.7841 29.0689 18.7841 28.7821V23.7765C18.7841 23.4115 18.9601 23.0661 19.312 22.7402C19.664 22.4143 20.0811 22.121 20.5634 21.8603C21.0457 21.5996 21.326 21.4301 21.4042 21.3519C21.5346 21.2476 21.7236 21.1303 21.9713 21C22.2189 20.8696 22.3754 20.7327 22.4405 20.5894C22.5057 20.446 22.5383 20.1918 22.5383 19.8268C22.5383 18.6536 22.1603 17.5717 21.4042 16.581C20.6482 15.5903 19.7487 14.9907 18.7059 14.7821C18.0541 14.6517 17.4415 14.7169 16.8679 14.9776C16.0858 13.648 15.0495 12.8529 13.759 12.5922C12.4685 12.3315 11.4452 12.7095 10.6891 13.7262C10.0895 13.257 9.47686 12.9572 8.85116 12.8268C7.78226 12.6182 6.8763 12.8529 6.13329 13.5307C5.39027 14.2085 5.01876 15.1341 5.01876 16.3072ZM32.5495 6.80446C32.5495 5.60521 32.1258 4.58845 31.2785 3.75418C30.4312 2.91992 29.421 2.50279 28.2478 2.50279H10.0635L23.5942 5.162C24.6891 5.39664 25.6212 6.07448 26.3902 7.19552C27.1593 8.31656 27.5439 9.55492 27.5439 10.9106V32.5363H28.2478C29.421 32.5363 30.4312 32.1126 31.2785 31.2653C32.1258 30.418 32.5495 29.4078 32.5495 28.2346V6.80446Z" fill="#18171F" fill-opacity="0.8"/>
</g>
<defs>
<clipPath id="clip0">
<rect width="35.0391" height="40" fill="white"/>
</clipPath>
</defs>
</svg>
