<svg width="20" height="21" viewBox="0 0 20 21" fill="none" xmlns="http://www.w3.org/2000/svg">
<path d="M17.1618 2.62194C17.1618 2.27762 17.094 1.93668 16.9622 1.61857C16.8305 1.30046 16.6373 1.01142 16.3939 0.767949C16.1504 0.524479 15.8613 0.331348 15.5432 0.199583C15.2251 0.0678185 14.8842 0 14.5399 0H2.62194C1.92656 0 1.25966 0.27624 0.767949 0.767949C0.27624 1.25966 0 1.92656 0 2.62194V14.5399C0 15.2352 0.27624 15.9021 0.767949 16.3939C1.25966 16.8856 1.92656 17.1618 2.62194 17.1618H8.97753L9.07764 16.7614C9.16917 16.3952 9.31886 16.0472 9.51908 15.7317H2.62194C1.96407 15.7317 1.43015 15.1977 1.43015 14.5399V2.62194C1.43015 1.96407 1.96407 1.43015 2.62194 1.43015H14.5399C15.1977 1.43015 15.7317 1.96407 15.7317 2.62194V9.40371C16.1483 9.02234 16.6431 8.77445 17.1618 8.65908V2.62194ZM13.3481 11.7825V4.51165L13.3414 4.41726C13.3153 4.24869 13.2293 4.09519 13.0992 3.98487C12.9691 3.87455 12.8036 3.81481 12.633 3.81659C12.5403 3.81533 12.4483 3.83234 12.3623 3.86663C12.2762 3.90093 12.1977 3.95185 12.1313 4.01648C12.0649 4.08111 12.0119 4.15819 11.9753 4.24332C11.9386 4.32844 11.9192 4.41994 11.9179 4.5126V12.6549L11.9246 12.7503C11.9408 12.8694 11.9885 12.9791 12.06 13.0706L13.3481 11.7825ZM5.23721 6.33843C5.21308 6.16775 5.12811 6.01154 4.99794 5.89854C4.86778 5.78555 4.70118 5.72337 4.52881 5.72346C4.43507 5.72321 4.34221 5.74144 4.25553 5.77711C4.16884 5.81278 4.09004 5.86518 4.02363 5.93133C3.95721 5.99748 3.90449 6.07607 3.86848 6.16261C3.83246 6.24915 3.81386 6.34194 3.81373 6.43568V12.6387L3.82041 12.735C3.86808 13.083 4.1665 13.3509 4.52881 13.3509C4.92353 13.3509 5.24388 13.0325 5.24388 12.6387V6.43568L5.23721 6.33843ZM9.25498 9.17203C9.22966 9.00582 9.14504 8.8544 9.01675 8.74574C8.88846 8.63707 8.72517 8.57852 8.55706 8.5809C8.3728 8.58216 8.19656 8.65644 8.06698 8.78745C7.9374 8.91846 7.86506 9.0955 7.86583 9.27977L7.8992 12.6616L7.90682 12.756C7.93233 12.9221 8.01701 13.0734 8.14525 13.182C8.2735 13.2907 8.43668 13.3493 8.60474 13.3471C8.789 13.3459 8.96524 13.2716 9.09482 13.1406C9.2244 13.0096 9.29674 12.8325 9.29598 12.6482L9.2626 9.26642L9.25498 9.17203ZM16.3037 10.176L10.6756 15.8041C10.3477 16.1322 10.115 16.5431 10.0025 16.993L9.5658 18.7388C9.52237 18.9125 9.52468 19.0945 9.5725 19.267C9.62032 19.4395 9.71203 19.5967 9.83867 19.7233C9.96532 19.8498 10.1226 19.9414 10.2952 19.9891C10.4677 20.0368 10.6497 20.039 10.8234 19.9954L12.5682 19.5597C13.0186 19.447 13.4299 19.214 13.758 18.8856L19.3852 13.2584C19.7835 12.8477 20.0043 12.2967 19.9999 11.7246C19.9956 11.1524 19.7664 10.6049 19.3619 10.2003C18.9573 9.79563 18.4099 9.56628 17.8378 9.56174C17.2656 9.5572 16.7146 9.77782 16.3037 10.176V10.176Z" fill="white"/>
</svg>
