<svg width="24" height="24" viewBox="0 0 24 24" fill="none" xmlns="http://www.w3.org/2000/svg">
<g clip-path="url(#clip0)">
<path d="M21.7472 19.481H20.9979V23.9766L16.5023 19.481H6.76181C5.93449 19.481 5.29449 19.122 4.8418 18.4039L8.26035 14.9854H17.2516C18.2818 14.9854 19.1638 14.6185 19.8975 13.8849C20.6311 13.1512 20.9979 12.2693 20.9979 11.239V5.99415H21.7472C22.3716 5.99415 22.9023 6.21268 23.3394 6.64976C23.7765 7.08683 23.995 7.61756 23.995 8.24195V17.2332C23.995 17.8576 23.7765 18.3883 23.3394 18.8254C22.9023 19.2624 22.3716 19.481 21.7472 19.481ZM17.2516 13.4868H7.51108L3.01545 17.9824V13.4868H2.26618C1.64179 13.4868 1.11106 13.2683 0.673983 12.8312C0.236909 12.3941 0.0183716 11.8634 0.0183716 11.239V2.2478C0.0183716 1.62341 0.236909 1.09268 0.673983 0.65561C1.11106 0.218537 1.64179 0 2.26618 0H17.2516C17.876 0 18.4067 0.218537 18.8438 0.65561C19.2809 1.09268 19.4994 1.62341 19.4994 2.2478V11.239C19.4994 11.8634 19.2809 12.3941 18.8438 12.8312C18.4067 13.2683 17.876 13.4868 17.2516 13.4868Z" fill="#9FADB2"/>
</g>
<defs>
<clipPath id="clip0">
<rect width="24" height="23.9766" fill="white"/>
</clipPath>
</defs>
</svg>
