<svg width="21" height="21" viewBox="0 0 21 21" fill="none" xmlns="http://www.w3.org/2000/svg">
<path d="M17.0691 4.16416C17.9719 5.06682 18.4952 6.28061 18.5318 7.55673C18.5683 8.83285 18.1154 10.0746 17.2657 11.0275L10.1991 18.1042L3.13408 11.0275C2.38294 10.1841 1.93933 9.11138 1.87544 7.98381C1.81156 6.85625 2.13116 5.74026 2.78224 4.81745C3.43331 3.89464 4.37754 3.21934 5.46124 2.90145C6.54495 2.58356 7.70435 2.64178 8.75075 3.06666L5.48575 6.33166L6.66408 7.51082L10.1999 3.97499L10.1891 3.96332L10.2007 3.97416C11.1529 3.12183 12.3953 2.66655 13.6727 2.70189C14.9502 2.73722 16.1655 3.26049 17.0691 4.16416V4.16416Z" fill="#FF8181"/>
</svg>
