<svg width="13" height="13" viewBox="0 0 13 13" fill="none" xmlns="http://www.w3.org/2000/svg">
<path d="M11.6519 1.9731C12.3289 2.6501 12.7214 3.56044 12.7489 4.51753C12.7763 5.47462 12.4366 6.40595 11.7994 7.1206L6.49936 12.4281L1.20061 7.1206C0.562643 6.40558 0.22261 5.47345 0.250318 4.51559C0.278027 3.55773 0.671374 2.64682 1.3496 1.96987C2.02784 1.29292 2.93949 0.901294 3.8974 0.875395C4.85531 0.849496 5.78679 1.19129 6.50061 1.8306C7.21471 1.19135 8.14654 0.849896 9.1046 0.876399C10.0627 0.902902 10.9742 1.29535 11.6519 1.9731ZM2.23248 2.85748C1.78514 3.30479 1.52402 3.90507 1.50175 4.53729C1.47948 5.16952 1.69773 5.78667 2.11248 6.26435L6.49998 10.6587L10.8875 6.26498C11.3023 5.78712 11.5204 5.16975 11.498 4.53738C11.4755 3.905 11.214 3.30468 10.7664 2.85748C10.3187 2.41028 9.71808 2.14948 9.08569 2.12767C8.45329 2.10586 7.83615 2.32468 7.35873 2.73998L4.73248 5.36685L3.84811 4.4831L5.61373 2.71623L5.56248 2.6731C5.08203 2.28862 4.47666 2.09485 3.86225 2.12886C3.24784 2.16288 2.66755 2.42231 2.23248 2.85748Z" fill="#FF8181"/>
</svg>
