<svg width="24" height="24" viewBox="0 0 24 24" fill="none" xmlns="http://www.w3.org/2000/svg">
<path d="M17.0949 11.5249C17.9468 11.5251 18.7821 11.7604 19.5088 12.205C20.2355 12.6495 20.8254 13.2861 21.2135 14.0444C21.6016 14.8028 21.7728 15.6535 21.7084 16.503C21.6439 17.3524 21.3462 18.1676 20.8481 18.8587C20.35 19.5498 19.6707 20.09 18.8853 20.4198C18.0998 20.7495 17.2385 20.8561 16.3964 20.7277C15.5542 20.5993 14.7638 20.2409 14.1123 19.6921C13.4607 19.1432 12.9734 18.4252 12.7038 17.6171H10.7689C10.4196 18.6578 9.71185 19.5405 8.772 20.1077C7.83215 20.6749 6.72133 20.8897 5.63777 20.7138C4.55421 20.5379 3.56841 19.9826 2.8563 19.1472C2.14419 18.3118 1.7521 17.2505 1.75 16.1527C1.74908 14.967 2.20335 13.8261 3.01909 12.9655C3.83483 12.1049 4.94979 11.5902 6.13392 11.5277C7.31804 11.4653 8.48098 11.8597 9.38277 12.6296C10.2846 13.3996 10.8564 14.4863 10.9803 15.6656H12.4924C12.6127 14.5289 13.1495 13.4769 13.9993 12.7123C14.8491 11.9478 15.9518 11.5248 17.0949 11.5249ZM6.37782 13.4735C5.66723 13.4735 4.98575 13.7558 4.48329 14.2582C3.98083 14.7607 3.69856 15.4422 3.69856 16.1527C3.69856 16.8633 3.98083 17.5448 4.48329 18.0473C4.98575 18.5497 5.66723 18.832 6.37782 18.832C7.0884 18.832 7.76988 18.5497 8.27234 18.0473C8.7748 17.5448 9.05708 16.8633 9.05708 16.1527C9.05708 15.4422 8.7748 14.7607 8.27234 14.2582C7.76988 13.7558 7.0884 13.4735 6.37782 13.4735ZM17.0949 13.4735C16.3843 13.4735 15.7028 13.7558 15.2003 14.2582C14.6979 14.7607 14.4156 15.4422 14.4156 16.1527C14.4156 16.8633 14.6979 17.5448 15.2003 18.0473C15.7028 18.5497 16.3843 18.832 17.0949 18.832C17.8054 18.832 18.4869 18.5497 18.9894 18.0473C19.4918 17.5448 19.7741 16.8633 19.7741 16.1527C19.7741 15.4422 19.4918 14.7607 18.9894 14.2582C18.4869 13.7558 17.8054 13.4735 17.0949 13.4735ZM15.158 3C15.7342 3.00002 16.2951 3.18581 16.7574 3.5298C17.2196 3.87379 17.5587 4.35765 17.7242 4.90958L18.7044 8.17341C19.477 8.30299 20.232 8.454 20.9715 8.6284C21.0992 8.65458 21.2203 8.70611 21.3276 8.77993C21.435 8.85374 21.5265 8.94835 21.5967 9.05815C21.6668 9.16795 21.7143 9.29071 21.7362 9.41916C21.758 9.54762 21.7539 9.67916 21.7241 9.806C21.6942 9.93284 21.6392 10.0524 21.5624 10.1576C21.4855 10.2628 21.3883 10.3515 21.2765 10.4185C21.1647 10.4855 21.0407 10.5294 20.9116 10.5476C20.7826 10.5657 20.6512 10.5578 20.5253 10.5243C17.8402 9.89301 14.9115 9.57637 11.7363 9.57637C8.56117 9.57637 5.63249 9.89301 2.94739 10.5243C2.69903 10.5753 2.44059 10.5274 2.22695 10.3909C2.01332 10.2544 1.86132 10.0399 1.80324 9.79314C1.74515 9.54635 1.78556 9.28664 1.91588 9.06916C2.04619 8.85168 2.25615 8.69357 2.50117 8.6284C3.25135 8.45212 4.00715 8.3007 4.76734 8.17438L5.74843 4.90958C5.91397 4.35765 6.25303 3.87379 6.71531 3.5298C7.17759 3.18581 7.73846 3.00002 8.31468 3H15.158Z" fill="#18171F" fill-opacity="0.8"/>
</svg>
