<svg width="20" height="20" viewBox="0 0 20 20" fill="none" xmlns="http://www.w3.org/2000/svg">
<path d="M18.5714 3.24C19.0058 3.49076 19.3664 3.85143 19.6172 4.28576C19.868 4.72008 20 5.21276 20 5.71429V14.2857C20 15.8012 19.398 17.2547 18.3263 18.3263C17.2547 19.398 15.8012 20 14.2857 20H5.71429C5.21276 20 4.72008 19.868 4.28576 19.6172C3.85143 19.3664 3.49076 19.0058 3.24 18.5714H14.2857C15.4224 18.5714 16.5124 18.1199 17.3162 17.3162C18.1199 16.5124 18.5714 15.4224 18.5714 14.2857V3.24ZM17.1429 2.85714C17.1429 2.09938 16.8418 1.37266 16.306 0.836838C15.7702 0.301019 15.0435 0 14.2857 0H2.85714C2.09938 0 1.37266 0.301019 0.836838 0.836838C0.301019 1.37266 0 2.09938 0 2.85714V14.2857C0 15.0435 0.301019 15.7702 0.836838 16.306C1.37266 16.8418 2.09938 17.1429 2.85714 17.1429H14.2857C15.0435 17.1429 15.7702 16.8418 16.306 16.306C16.8418 15.7702 17.1429 15.0435 17.1429 14.2857V2.85714ZM12.8571 8.57143C12.8571 8.76087 12.7819 8.94255 12.6479 9.07651C12.514 9.21046 12.3323 9.28571 12.1429 9.28571H9.28571V12.1429C9.28571 12.3323 9.21046 12.514 9.07651 12.6479C8.94255 12.7819 8.76087 12.8571 8.57143 12.8571C8.38199 12.8571 8.20031 12.7819 8.06635 12.6479C7.9324 12.514 7.85714 12.3323 7.85714 12.1429V9.28571H5C4.81056 9.28571 4.62888 9.21046 4.49492 9.07651C4.36097 8.94255 4.28571 8.76087 4.28571 8.57143C4.28571 8.38199 4.36097 8.20031 4.49492 8.06635C4.62888 7.9324 4.81056 7.85714 5 7.85714H7.85714V5C7.85714 4.81056 7.9324 4.62888 8.06635 4.49492C8.20031 4.36097 8.38199 4.28571 8.57143 4.28571C8.76087 4.28571 8.94255 4.36097 9.07651 4.49492C9.21046 4.62888 9.28571 4.81056 9.28571 5V7.85714H12.1429C12.3323 7.85714 12.514 7.9324 12.6479 8.06635C12.7819 8.20031 12.8571 8.38199 12.8571 8.57143Z" fill="#18171F" fill-opacity="0.8"/>
</svg>
