<svg width="22" height="20" viewBox="0 0 22 20" fill="none" xmlns="http://www.w3.org/2000/svg">
<path d="M12.1111 14.3333V15.4444C12.1111 16.3285 11.7599 17.1763 11.1348 17.8015C10.5097 18.4266 9.66183 18.7778 8.77778 18.7778H4.33333C3.44928 18.7778 2.60143 18.4266 1.97631 17.8015C1.35119 17.1763 1 16.3285 1 15.4444V4.33333C1 3.44928 1.35119 2.60143 1.97631 1.97631C2.60143 1.35119 3.44928 1 4.33333 1H8.77778C9.66183 1 10.5097 1.35119 11.1348 1.97631C11.7599 2.60143 12.1111 3.44928 12.1111 4.33333V5.44444M16.5556 14.3333L21 9.88889L16.5556 14.3333ZM21 9.88889L16.5556 5.44444L21 9.88889ZM21 9.88889H5.44444H21Z" stroke="white" stroke-width="2" stroke-linecap="round" stroke-linejoin="round"/>
</svg>
