<svg width="15" height="15" viewBox="0 0 15 15" fill="none" xmlns="http://www.w3.org/2000/svg">
<path d="M13.5396 4.95704C13.211 4.17266 12.7328 3.45971 12.1319 2.85792C11.5328 2.25509 10.821 1.77581 10.0372 1.44728C9.23417 1.10909 8.37138 0.935739 7.50007 0.937513H7.47077C6.58454 0.941908 5.72761 1.11769 4.92048 1.46339C4.14334 1.79529 3.43831 2.27543 2.8448 2.87697C2.24967 3.4774 1.77703 4.18786 1.45319 4.96876C1.11703 5.78082 0.946701 6.65191 0.952217 7.53077C0.956612 8.54738 1.19978 9.55665 1.65388 10.459V12.6856C1.65388 13.0576 1.95564 13.3594 2.32624 13.3594H4.54987C5.45643 13.8168 6.45682 14.0575 7.47224 14.0625H7.503C8.37897 14.0625 9.22712 13.8926 10.0269 13.5601C10.8068 13.2355 11.5159 12.7618 12.1143 12.1655C12.7178 11.5664 13.1925 10.8662 13.525 10.0855C13.8692 9.27687 14.045 8.41701 14.0494 7.52931C14.0523 6.63722 13.8795 5.7715 13.5396 4.95704ZM4.57624 8.20314C4.18952 8.20314 3.87458 7.8882 3.87458 7.50001C3.87458 7.11183 4.18952 6.79689 4.57624 6.79689C4.96296 6.79689 5.2779 7.11183 5.2779 7.50001C5.2779 7.8882 4.96442 8.20314 4.57624 8.20314ZM7.50007 8.20314C7.11335 8.20314 6.79841 7.8882 6.79841 7.50001C6.79841 7.11183 7.11335 6.79689 7.50007 6.79689C7.88679 6.79689 8.20173 7.11183 8.20173 7.50001C8.20173 7.8882 7.88679 8.20314 7.50007 8.20314ZM10.4239 8.20314C10.0372 8.20314 9.72224 7.8882 9.72224 7.50001C9.72224 7.11183 10.0372 6.79689 10.4239 6.79689C10.8106 6.79689 11.1256 7.11183 11.1256 7.50001C11.1256 7.8882 10.8106 8.20314 10.4239 8.20314Z" fill="#FF8181"/>
</svg>
