<svg width="20" height="23" viewBox="0 0 20 23" fill="none" xmlns="http://www.w3.org/2000/svg">
<path d="M5.00343 12.2245C4.85609 12.2245 4.71478 12.283 4.61059 12.3872C4.50641 12.4914 4.44788 12.6327 4.44788 12.78V16.1133C4.44788 16.2607 4.50641 16.402 4.61059 16.5062C4.71478 16.6104 4.85609 16.6689 5.00343 16.6689C5.15077 16.6689 5.29208 16.6104 5.39627 16.5062C5.50046 16.402 5.55899 16.2607 5.55899 16.1133V15.5578H6.11121C6.55324 15.5578 6.97716 15.3822 7.28972 15.0696C7.60228 14.7571 7.77788 14.3331 7.77788 13.8911C7.77788 13.4491 7.60228 13.0252 7.28972 12.7126C6.97716 12.4 6.55324 12.2245 6.11121 12.2245H5.00343ZM6.11121 14.4467H5.55899V13.3356H6.11121C6.25855 13.3356 6.39986 13.3941 6.50405 13.4983C6.60823 13.6025 6.66677 13.7438 6.66677 13.8911C6.66677 14.0385 6.60823 14.1798 6.50405 14.284C6.39986 14.3881 6.25855 14.4467 6.11121 14.4467Z" fill="#18171F" fill-opacity="0.8"/>
<path d="M13.3311 12.7789C13.3314 12.6317 13.39 12.4907 13.4942 12.3868C13.5984 12.2828 13.7395 12.2245 13.8866 12.2245H15.5589C15.7062 12.2245 15.8475 12.283 15.9517 12.3872C16.0559 12.4914 16.1144 12.6327 16.1144 12.78C16.1144 12.9274 16.0559 13.0687 15.9517 13.1728C15.8475 13.277 15.7062 13.3356 15.5589 13.3356H14.4411L14.44 14.4489H15.5589C15.7062 14.4489 15.8475 14.5074 15.9517 14.6116C16.0559 14.7158 16.1144 14.8571 16.1144 15.0045C16.1144 15.1518 16.0559 15.2931 15.9517 15.3973C15.8475 15.5015 15.7062 15.56 15.5589 15.56H14.44L14.4422 16.1122C14.4423 16.1852 14.4281 16.2575 14.4003 16.3249C14.3726 16.3924 14.3318 16.4537 14.2803 16.5054C14.1763 16.6098 14.0351 16.6686 13.8878 16.6689C13.7404 16.6692 13.599 16.6109 13.4946 16.507C13.3902 16.403 13.3314 16.2618 13.3311 16.1145L13.3278 15.0056V15.0033L13.3311 12.7789Z" fill="#18171F" fill-opacity="0.8"/>
<path d="M9.44447 12.2245H9.99781C10.5872 12.2245 11.1524 12.4586 11.5692 12.8753C11.9859 13.2921 12.22 13.8573 12.22 14.4467C12.22 15.036 11.9859 15.6013 11.5692 16.018C11.1524 16.4348 10.5872 16.6689 9.99781 16.6689H9.44447C9.29713 16.6689 9.15582 16.6104 9.05163 16.5062C8.94745 16.402 8.88892 16.2607 8.88892 16.1133V12.78C8.88892 12.6327 8.94745 12.4914 9.05163 12.3872C9.15582 12.283 9.29713 12.2245 9.44447 12.2245ZM10 15.5578C10.2947 15.5578 10.5773 15.4407 10.7857 15.2323C10.9941 15.024 11.1111 14.7414 11.1111 14.4467C11.1111 14.152 10.9941 13.8694 10.7857 13.661C10.5773 13.4526 10.2947 13.3356 10 13.3356V15.5578Z" fill="#18171F" fill-opacity="0.8"/>
<path d="M10 6.66667V0H3.33333C2.74396 0 2.17873 0.234126 1.76198 0.650874C1.34524 1.06762 1.11111 1.63285 1.11111 2.22222V9.63111C0.454444 9.94333 0 10.6133 0 11.3889V17.5C0 18.2756 0.454444 18.9444 1.11111 19.2578V20C1.11111 20.5894 1.34524 21.1546 1.76198 21.5713C2.17873 21.9881 2.74396 22.2222 3.33333 22.2222H16.6667C17.256 22.2222 17.8213 21.9881 18.238 21.5713C18.6548 21.1546 18.8889 20.5894 18.8889 20V19.2578C19.5456 18.9456 20 18.2756 20 17.5V11.3889C20 10.6133 19.5456 9.94445 18.8889 9.63111V8.88889H12.2222C11.6329 8.88889 11.0676 8.65476 10.6509 8.23802C10.2341 7.82127 10 7.25604 10 6.66667ZM1.94444 11.1111H18.0556C18.1292 11.1111 18.1999 11.1404 18.252 11.1925C18.3041 11.2446 18.3333 11.3152 18.3333 11.3889V17.5C18.3333 17.5737 18.3041 17.6443 18.252 17.6964C18.1999 17.7485 18.1292 17.7778 18.0556 17.7778H1.94444C1.87077 17.7778 1.80012 17.7485 1.74803 17.6964C1.69593 17.6443 1.66667 17.5737 1.66667 17.5V11.3889C1.66667 11.3152 1.69593 11.2446 1.74803 11.1925C1.80012 11.1404 1.87077 11.1111 1.94444 11.1111Z" fill="#18171F" fill-opacity="0.8"/>
<path d="M11.6666 6.66667V0.555555L18.3333 7.22222H12.2222C12.0748 7.22222 11.9335 7.16369 11.8293 7.0595C11.7252 6.95532 11.6666 6.81401 11.6666 6.66667Z" fill="#18171F" fill-opacity="0.8"/>
</svg>
