<svg width="20" height="20" viewBox="0 0 20 20" fill="none" xmlns="http://www.w3.org/2000/svg">
<path d="M1.72229 3.43771C1.1942 3.77239 0.759359 4.23522 0.458229 4.78313C0.157099 5.33104 -0.000533503 5.94622 1.35658e-06 6.57143V14C1.35658e-06 17.3143 2.68572 20 6 20H13.4286C14.0542 20.0004 14.6697 19.8426 15.218 19.5413C15.7663 19.2399 16.2295 18.8049 16.5646 18.2766L16.4251 18.2834L16.2857 18.2857H6C4.86336 18.2857 3.77327 17.8342 2.96954 17.0305C2.16582 16.2267 1.71429 15.1366 1.71429 14V3.71429C1.71429 3.62171 1.71657 3.52914 1.72229 3.43771ZM6.57143 0C5.58634 0 4.6416 0.391325 3.94503 1.08789C3.24847 1.78445 2.85714 2.7292 2.85714 3.71429V13.4286C2.85714 14.4137 3.24847 15.3584 3.94503 16.055C4.6416 16.7515 5.58634 17.1429 6.57143 17.1429H16.2857C17.2708 17.1429 18.2155 16.7515 18.9121 16.055C19.6087 15.3584 20 14.4137 20 13.4286V3.71429C20 2.7292 19.6087 1.78445 18.9121 1.08789C18.2155 0.391325 17.2708 0 16.2857 0H6.57143ZM11.92 10.4423L12.0263 10.5303L16.9474 15.3166C16.7348 15.391 16.511 15.4288 16.2857 15.4286H6.57143C6.33943 15.4286 6.11657 15.3886 5.90857 15.3166L10.8309 10.5303C10.9739 10.3909 11.1611 10.3058 11.3601 10.2898C11.5592 10.2737 11.7576 10.3276 11.9211 10.4423H11.92ZM6.57143 1.71429H16.2857C17.3897 1.71429 18.2857 2.61029 18.2857 3.71429V13.4286C18.2857 13.6674 18.2434 13.896 18.1669 14.1086L13.2217 9.30057C12.7672 8.85868 12.1654 8.60027 11.532 8.57496C10.8985 8.54965 10.2781 8.75922 9.78971 9.16343L9.63657 9.30057L4.69029 14.1097C4.61136 13.8913 4.57113 13.6608 4.57143 13.4286V3.71429C4.57143 2.61029 5.46743 1.71429 6.57143 1.71429ZM8.57143 4.28686C8.3805 4.28145 8.19043 4.3144 8.01246 4.38373C7.83448 4.45306 7.67222 4.55738 7.53526 4.69052C7.39831 4.82366 7.28944 4.9829 7.2151 5.15885C7.14076 5.33479 7.10246 5.52385 7.10246 5.71486C7.10246 5.90586 7.14076 6.09492 7.2151 6.27087C7.28944 6.44681 7.39831 6.60606 7.53526 6.73919C7.67222 6.87233 7.83448 6.97665 8.01246 7.04598C8.19043 7.11532 8.3805 7.14826 8.57143 7.14286C8.94316 7.13234 9.29615 6.97728 9.55536 6.71062C9.81458 6.44397 9.9596 6.08674 9.9596 5.71486C9.9596 5.34297 9.81458 4.98575 9.55536 4.71909C9.29615 4.45244 8.94316 4.29737 8.57143 4.28686V4.28686Z" fill="#18171F" fill-opacity="0.8"/>
</svg>
