<svg width="35" height="38" viewBox="0 0 35 38" fill="none" xmlns="http://www.w3.org/2000/svg">
<g filter="url(#filter0_d)">
<path d="M31.25 0.5H3.75C1.67969 0.5 0 2.17969 0 4.25V31.75C0 33.8203 1.67969 35.5 3.75 35.5H31.25C33.3203 35.5 35 33.8203 35 31.75V4.25C35 2.17969 33.3203 0.5 31.25 0.5ZM12.5 26.75C12.5 27.4406 11.9406 28 11.25 28H8.75C8.05937 28 7.5 27.4406 7.5 26.75V16.75C7.5 16.0594 8.05937 15.5 8.75 15.5H11.25C11.9406 15.5 12.5 16.0594 12.5 16.75V26.75ZM20 26.75C20 27.4406 19.4406 28 18.75 28H16.25C15.5594 28 15 27.4406 15 26.75V9.25C15 8.55937 15.5594 8 16.25 8H18.75C19.4406 8 20 8.55937 20 9.25V26.75ZM27.5 26.75C27.5 27.4406 26.9406 28 26.25 28H23.75C23.0594 28 22.5 27.4406 22.5 26.75V21.75C22.5 21.0594 23.0594 20.5 23.75 20.5H26.25C26.9406 20.5 27.5 21.0594 27.5 21.75V26.75Z" fill="#18171F" fill-opacity="0.8"/>
</g>
<defs>
<filter id="filter0_d" x="-4" y="0.5" width="43" height="43" filterUnits="userSpaceOnUse" color-interpolation-filters="sRGB">
<feFlood flood-opacity="0" result="BackgroundImageFix"/>
<feColorMatrix in="SourceAlpha" type="matrix" values="0 0 0 0 0 0 0 0 0 0 0 0 0 0 0 0 0 0 127 0"/>
<feOffset dy="4"/>
<feGaussianBlur stdDeviation="2"/>
<feColorMatrix type="matrix" values="0 0 0 0 0.0941176 0 0 0 0 0.0901961 0 0 0 0 0.121569 0 0 0 0.25 0"/>
<feBlend mode="normal" in2="BackgroundImageFix" result="effect1_dropShadow"/>
<feBlend mode="normal" in="SourceGraphic" in2="effect1_dropShadow" result="shape"/>
</filter>
</defs>
</svg>
