<svg width="50" height="43" viewBox="0 0 50 43" fill="none" xmlns="http://www.w3.org/2000/svg">
<path d="M46.1538 0H3.84615C2.82644 0.00114524 1.84882 0.406732 1.12778 1.12778C0.406731 1.84882 0.00114524 2.82644 0 3.84615V38.4618C3.15668e-05 38.9669 0.0995463 39.467 0.292863 39.9336C0.486179 40.4002 0.769512 40.8242 1.12668 41.1814C1.48385 41.5385 1.90787 41.8218 2.37452 42.015C2.84117 42.2083 3.34131 42.3077 3.84639 42.3077L7.06514 42.3075C7.42878 42.3074 7.78494 42.2042 8.0923 42.0099C8.39967 41.8155 8.64564 41.5381 8.80168 41.2096C9.73821 39.2365 11.2153 37.5695 13.0613 36.4023C14.9074 35.2351 17.0467 34.6155 19.2308 34.6155C21.4149 34.6155 23.5542 35.2351 25.4002 36.4023C27.2463 37.5695 28.7233 39.2365 29.6599 41.2096C29.8159 41.5381 30.0619 41.8156 30.3693 42.0099C30.6767 42.2042 31.033 42.3074 31.3966 42.3075L46.1538 42.3077C47.1736 42.3065 48.1512 41.901 48.8722 41.1799C49.5933 40.4589 49.9989 39.4813 50 38.4615V3.84615C49.9989 2.82644 49.5933 1.84882 48.8722 1.12778C48.1512 0.406732 47.1736 0.00114524 46.1538 0ZM19.2308 30.7692C17.7094 30.7692 16.2221 30.3181 14.9572 29.4728C13.6922 28.6276 12.7062 27.4262 12.124 26.0206C11.5418 24.6151 11.3895 23.0684 11.6863 21.5762C11.9831 20.0841 12.7157 18.7134 13.7915 17.6376C14.8673 16.5619 16.2379 15.8292 17.7301 15.5324C19.2222 15.2356 20.7689 15.3879 22.1745 15.9702C23.5801 16.5524 24.7814 17.5383 25.6267 18.8033C26.4719 20.0683 26.9231 21.5555 26.9231 23.0769C26.9207 25.1163 26.1095 27.0715 24.6675 28.5136C23.2254 29.9557 21.2702 30.7669 19.2308 30.7692ZM46.1538 38.4615L32.5563 38.4613C31.7174 37.0156 30.6482 35.7166 29.3909 34.6154H40.3846C40.8946 34.6154 41.3838 34.4128 41.7444 34.0521C42.1051 33.6915 42.3077 33.2023 42.3077 32.6923V9.61539C42.3077 9.10535 42.1051 8.61621 41.7444 8.25556C41.3838 7.89492 40.8946 7.69231 40.3846 7.69231H9.61538C9.10535 7.69231 8.61621 7.89492 8.25556 8.25556C7.89492 8.61621 7.69231 9.10535 7.69231 9.61539V32.6923C7.69259 33.1196 7.83523 33.5346 8.09768 33.8717C8.36014 34.2089 8.72745 34.449 9.14159 34.5541C7.85373 35.6682 6.76005 36.9887 5.90529 38.4615H3.84615V3.84615H46.1538V38.4615Z" fill="#18171F" fill-opacity="0.8"/>
</svg>
