<svg width="20" height="20" viewBox="0 0 20 20" fill="none" xmlns="http://www.w3.org/2000/svg">
<path d="M10.9333 14.1858L7.43418 12.2775C6.97734 12.7659 6.38416 13.1056 5.73174 13.2524C5.07931 13.3992 4.3978 13.3464 3.77578 13.1009C3.15375 12.8553 2.61998 12.4283 2.24382 11.8754C1.86765 11.3225 1.6665 10.6692 1.6665 10.0004C1.6665 9.33168 1.86765 8.67839 2.24382 8.12547C2.61998 7.57255 3.15375 7.14555 3.77578 6.89997C4.3978 6.6544 5.07931 6.6016 5.73174 6.74843C6.38416 6.89527 6.97734 7.23495 7.43418 7.72334L10.9342 5.81501C10.7355 5.0284 10.8305 4.19633 11.2014 3.47476C11.5723 2.75319 12.1936 2.19166 12.9489 1.89542C13.7042 1.59919 14.5416 1.58859 15.3042 1.86562C16.0667 2.14264 16.7021 2.68827 17.0911 3.40022C17.4801 4.11218 17.5962 4.94158 17.4174 5.73296C17.2387 6.52434 16.7775 7.22337 16.1202 7.69902C15.4629 8.17466 14.6548 8.39427 13.8472 8.31667C13.0396 8.23907 12.288 7.8696 11.7333 7.27751L8.23334 9.18584C8.36768 9.72031 8.36768 10.2797 8.23334 10.8142L11.7325 12.7225C12.2872 12.1304 13.0387 11.7609 13.8463 11.6833C14.6539 11.6057 15.4621 11.8254 16.1194 12.301C16.7766 12.7766 17.2379 13.4757 17.4166 14.2671C17.5953 15.0584 17.4793 15.8878 17.0903 16.5998C16.7012 17.3117 16.0659 17.8574 15.3033 18.1344C14.5408 18.4114 13.7034 18.4008 12.9481 18.1046C12.1928 17.8084 11.5714 17.2468 11.2005 16.5253C10.8296 15.8037 10.7346 14.9716 10.9333 14.185V14.1858ZM5.00001 11.6667C5.44204 11.6667 5.86596 11.4911 6.17852 11.1785C6.49108 10.866 6.66668 10.442 6.66668 10C6.66668 9.55798 6.49108 9.13406 6.17852 8.8215C5.86596 8.50894 5.44204 8.33334 5.00001 8.33334C4.55798 8.33334 4.13406 8.50894 3.8215 8.8215C3.50894 9.13406 3.33334 9.55798 3.33334 10C3.33334 10.442 3.50894 10.866 3.8215 11.1785C4.13406 11.4911 4.55798 11.6667 5.00001 11.6667ZM14.1667 6.66667C14.6087 6.66667 15.0326 6.49108 15.3452 6.17852C15.6577 5.86596 15.8333 5.44203 15.8333 5.00001C15.8333 4.55798 15.6577 4.13406 15.3452 3.8215C15.0326 3.50893 14.6087 3.33334 14.1667 3.33334C13.7246 3.33334 13.3007 3.50893 12.9882 3.8215C12.6756 4.13406 12.5 4.55798 12.5 5.00001C12.5 5.44203 12.6756 5.86596 12.9882 6.17852C13.3007 6.49108 13.7246 6.66667 14.1667 6.66667ZM14.1667 16.6667C14.6087 16.6667 15.0326 16.4911 15.3452 16.1785C15.6577 15.866 15.8333 15.442 15.8333 15C15.8333 14.558 15.6577 14.1341 15.3452 13.8215C15.0326 13.5089 14.6087 13.3333 14.1667 13.3333C13.7246 13.3333 13.3007 13.5089 12.9882 13.8215C12.6756 14.1341 12.5 14.558 12.5 15C12.5 15.442 12.6756 15.866 12.9882 16.1785C13.3007 16.4911 13.7246 16.6667 14.1667 16.6667Z" fill="#9DC78E"/>
</svg>
