<svg width="24" height="24" viewBox="0 0 24 24" fill="none" xmlns="http://www.w3.org/2000/svg">
<path d="M5.29002 13.0983C5.21542 13.302 5.06433 13.4686 4.86887 13.5626C4.67341 13.6567 4.44897 13.6708 4.24326 13.602C4.03754 13.5332 3.86675 13.387 3.76718 13.1942C3.66761 13.0015 3.6471 12.7776 3.71002 12.57C3.69335 12.62 3.71002 12.5683 3.71002 12.5683C3.73974 12.4766 3.77423 12.3865 3.81335 12.2983C3.88002 12.14 3.97835 11.9217 4.11335 11.6633C4.38669 11.1467 4.81669 10.4583 5.44669 9.77C6.72502 8.37833 8.81335 7 12 7C15.1884 7 17.2767 8.37833 18.5517 9.77C19.2324 10.5165 19.7843 11.3709 20.185 12.2983C20.2184 12.3767 20.2434 12.44 20.26 12.4867C20.2667 12.5 20.2834 12.5867 20.3 12.67C20.315 12.7467 20.3284 12.82 20.3334 12.8333C20.3334 12.8333 20.4734 13.3883 19.7634 13.6233C19.5543 13.6932 19.326 13.6773 19.1286 13.5792C18.9312 13.4811 18.7807 13.3088 18.71 13.1V13.095L18.6984 13.0683C18.6146 12.8542 18.5189 12.645 18.4117 12.4417C18.1159 11.8826 17.7501 11.3635 17.3234 10.8967C16.3067 9.78833 14.645 8.66667 12 8.66667C9.35502 8.66667 7.69335 9.78833 6.67669 10.8967C6.12625 11.5001 5.67863 12.1898 5.35169 12.9383C5.33419 12.9813 5.31752 13.0247 5.30169 13.0683L5.29002 13.0983Z" fill="#706F75"/>
<path d="M12 10.3333C11.116 10.3333 10.2681 10.6845 9.643 11.3096C9.01788 11.9348 8.66669 12.7826 8.66669 13.6667C8.66669 14.5507 9.01788 15.3986 9.643 16.0237C10.2681 16.6488 11.116 17 12 17C12.8841 17 13.7319 16.6488 14.357 16.0237C14.9822 15.3986 15.3333 14.5507 15.3333 13.6667C15.3333 12.7826 14.9822 11.9348 14.357 11.3096C13.7319 10.6845 12.8841 10.3333 12 10.3333ZM10.3334 13.6667C10.3334 13.2246 10.5089 12.8007 10.8215 12.4882C11.1341 12.1756 11.558 12 12 12C12.442 12 12.866 12.1756 13.1785 12.4882C13.4911 12.8007 13.6667 13.2246 13.6667 13.6667C13.6667 14.1087 13.4911 14.5326 13.1785 14.8452C12.866 15.1577 12.442 15.3333 12 15.3333C11.558 15.3333 11.1341 15.1577 10.8215 14.8452C10.5089 14.5326 10.3334 14.1087 10.3334 13.6667Z" fill="#706F75"/>
<rect x="1" y="1" width="22" height="22" rx="5" stroke="#706F75" stroke-width="2"/>
</svg>
