<svg width="20" height="20" viewBox="0 0 20 20" fill="none" xmlns="http://www.w3.org/2000/svg">
<mask id="path-1-inside-1" fill="white">
<path d="M17.7364 6.89649L12.7774 6.17579L10.5606 1.68165C10.5001 1.5586 10.4005 1.45899 10.2774 1.39844C9.96882 1.2461 9.59382 1.37305 9.43952 1.68165L7.22272 6.17579L2.26374 6.89649C2.12702 6.91602 2.00202 6.98048 1.90632 7.07813C1.79062 7.19705 1.72686 7.35704 1.72906 7.52294C1.73126 7.68884 1.79923 7.84709 1.91804 7.9629L5.50593 11.4609L4.65827 16.4004C4.63839 16.5153 4.65111 16.6335 4.69497 16.7415C4.73884 16.8496 4.8121 16.9432 4.90645 17.0117C5.0008 17.0802 5.11246 17.1209 5.22878 17.1292C5.34509 17.1375 5.4614 17.113 5.56452 17.0586L10.0001 14.7266L14.4356 17.0586C14.5567 17.1231 14.6973 17.1445 14.8321 17.1211C15.1719 17.0625 15.4005 16.7402 15.3419 16.4004L14.4942 11.4609L18.0821 7.9629C18.1798 7.8672 18.2442 7.7422 18.2637 7.60548C18.3165 7.26368 18.0782 6.94727 17.7364 6.89649Z"/>
</mask>
<path d="M17.7364 6.89649L18.0303 4.9182L18.024 4.91729L17.7364 6.89649ZM12.7774 6.17579L10.9838 7.06054L11.449 8.00374L12.4898 8.155L12.7774 6.17579ZM10.5606 1.68165L8.7661 2.56466L8.76695 2.5664L10.5606 1.68165ZM10.2774 1.39844L9.39207 3.19182L9.3944 3.19296L10.2774 1.39844ZM9.43952 1.68165L7.65064 0.787208L7.64586 0.7969L9.43952 1.68165ZM7.22272 6.17579L7.51037 8.155L8.55114 8.00374L9.01638 7.06054L7.22272 6.17579ZM2.26374 6.89649L2.54658 8.8764L2.55138 8.8757L2.26374 6.89649ZM1.90632 7.07813L0.477882 5.67827L0.472834 5.68345L1.90632 7.07813ZM1.91804 7.9629L3.31421 6.53087L3.31408 6.53074L1.91804 7.9629ZM5.50593 11.4609L7.47711 11.7992L7.65495 10.7629L6.9021 10.0289L5.50593 11.4609ZM4.65827 16.4004L6.629 16.7413L6.62946 16.7387L4.65827 16.4004ZM5.56452 17.0586L4.6338 15.2884L4.63071 15.29L5.56452 17.0586ZM10.0001 14.7266L10.9308 12.9563L10.0001 12.467L9.06934 12.9563L10.0001 14.7266ZM14.4356 17.0586L15.3753 15.2931L15.3663 15.2884L14.4356 17.0586ZM14.8321 17.1211L14.4923 15.1502L14.4894 15.1507L14.8321 17.1211ZM15.3419 16.4004L13.3707 16.7387L13.3709 16.7402L15.3419 16.4004ZM14.4942 11.4609L13.098 10.0289L12.3452 10.7629L12.523 11.7992L14.4942 11.4609ZM18.0821 7.9629L19.4783 9.39493L19.482 9.39132L18.0821 7.9629ZM18.2637 7.60548L16.2871 7.30051L16.2854 7.31156L16.2838 7.32263L18.2637 7.60548ZM18.024 4.91729L13.0651 4.19658L12.4898 8.155L17.4488 8.8757L18.024 4.91729ZM14.5711 5.29104L12.3543 0.7969L8.76695 2.5664L10.9838 7.06054L14.5711 5.29104ZM12.3551 0.798633C12.0997 0.279482 11.6796 -0.140615 11.1604 -0.39607L9.3944 3.19296C9.12134 3.0586 8.90046 2.83772 8.7661 2.56466L12.3551 0.798633ZM11.1627 -0.394927C9.86118 -1.03747 8.29413 -0.499713 7.65067 0.787221L11.2284 2.57608C10.8935 3.24582 10.0765 3.52968 9.39208 3.19182L11.1627 -0.394927ZM7.64586 0.7969L5.42906 5.29104L9.01638 7.06054L11.2332 2.5664L7.64586 0.7969ZM6.93508 4.19658L1.9761 4.91729L2.55138 8.8757L7.51037 8.155L6.93508 4.19658ZM1.9809 4.91659C1.40058 4.9995 0.875357 5.2727 0.477891 5.67828L3.33474 8.47799C3.12868 8.68825 2.85346 8.83255 2.54658 8.87639L1.9809 4.91659ZM0.472834 5.68345C-0.0125284 6.18232 -0.279984 6.85347 -0.270766 7.54943L3.72888 7.49645C3.73371 7.86061 3.59376 8.21178 3.3398 8.47281L0.472834 5.68345ZM-0.270766 7.54943C-0.261548 8.24539 0.0235902 8.90922 0.521994 9.39505L3.31408 6.53074C3.57486 6.78495 3.72406 7.1323 3.72888 7.49645L-0.270766 7.54943ZM0.521866 9.39493L4.10976 12.893L6.9021 10.0289L3.31421 6.53087L0.521866 9.39493ZM3.53474 11.1227L2.68709 16.0621L6.62946 16.7387L7.47711 11.7992L3.53474 11.1227ZM2.68754 16.0595C2.60396 16.5426 2.65742 17.0396 2.84188 17.4939L6.54807 15.9892C6.64479 16.2274 6.67283 16.488 6.629 16.7413L2.68754 16.0595ZM2.84188 17.4939C3.02634 17.9482 3.3344 18.3418 3.73114 18.6299L6.08176 15.3935C6.2898 15.5446 6.45134 15.7509 6.54807 15.9892L2.84188 17.4939ZM3.73114 18.6299C4.12788 18.9181 4.59743 19.0893 5.08653 19.1242L5.37102 15.1343C5.6275 15.1526 5.87372 15.2424 6.08176 15.3935L3.73114 18.6299ZM5.08653 19.1242C5.57563 19.159 6.06472 19.0562 6.49833 18.8272L4.63071 15.29C4.85808 15.1699 5.11455 15.116 5.37102 15.1343L5.08653 19.1242ZM6.49524 18.8288L10.9308 16.4968L9.06934 12.9563L4.6338 15.2884L6.49524 18.8288ZM9.06934 16.4968L13.5049 18.8288L15.3663 15.2884L10.9308 12.9563L9.06934 16.4968ZM13.4959 18.8241C14.0181 19.102 14.611 19.1896 15.1748 19.0915L14.4894 15.1507C14.7836 15.0995 15.0953 15.1441 15.3753 15.2931L13.4959 18.8241ZM15.1719 19.092C16.5953 18.8466 17.5599 17.4938 17.3128 16.0606L13.3709 16.7402C13.241 15.9866 13.7485 15.2784 14.4923 15.1502L15.1719 19.092ZM17.313 16.0621L16.4654 11.1227L12.523 11.7992L13.3707 16.7387L17.313 16.0621ZM15.8904 12.893L19.4783 9.39493L16.6859 6.53087L13.098 10.0289L15.8904 12.893ZM19.482 9.39132C19.8875 8.99386 20.1607 8.46863 20.2436 7.88832L16.2838 7.32263C16.3277 7.01576 16.472 6.74053 16.6822 6.53447L19.482 9.39132ZM20.2404 7.91044C20.4658 6.44938 19.4455 5.12847 18.0303 4.91821L17.4425 8.87478C16.7108 8.76608 16.1672 8.07798 16.2871 7.30051L20.2404 7.91044Z" fill="#FFB92B" mask="url(#path-1-inside-1)"/>
</svg>
