<svg width="13" height="13" viewBox="0 0 13 13" fill="none" xmlns="http://www.w3.org/2000/svg">
<path d="M7.20001 9.63932L4.57563 8.20807C4.233 8.57436 3.78812 8.82912 3.2988 8.93925C2.80948 9.04938 2.29835 9.00978 1.83183 8.82559C1.36531 8.64141 0.964982 8.32117 0.682862 7.90647C0.400741 7.49178 0.249878 7.00182 0.249878 6.50026C0.249878 5.9987 0.400741 5.50873 0.682862 5.09404C0.964982 4.67935 1.36531 4.3591 1.83183 4.17492C2.29835 3.99074 2.80948 3.95114 3.2988 4.06126C3.78812 4.17139 4.233 4.42615 4.57563 4.79244L7.20063 3.36119C7.0516 2.77124 7.12285 2.14719 7.40103 1.60601C7.6792 1.06483 8.1452 0.643682 8.71167 0.421507C9.27815 0.199333 9.90621 0.191385 10.4781 0.399153C11.05 0.606921 11.5265 1.01614 11.8183 1.55011C12.1101 2.08407 12.1971 2.70612 12.0631 3.29966C11.929 3.8932 11.5831 4.41747 11.0902 4.7742C10.5972 5.13093 9.99108 5.29564 9.38538 5.23744C8.77969 5.17924 8.21601 4.90214 7.80001 4.45807L5.17501 5.88932C5.27576 6.29017 5.27576 6.70972 5.17501 7.11057L7.79938 8.54182C8.21538 8.09775 8.77906 7.82065 9.38476 7.76245C9.99045 7.70425 10.5966 7.86895 11.0895 8.22569C11.5825 8.58242 11.9284 9.10669 12.0624 9.70023C12.1965 10.2938 12.1095 10.9158 11.8177 11.4498C11.5259 11.9837 11.0494 12.393 10.4775 12.6007C9.90558 12.8085 9.27752 12.8006 8.71105 12.5784C8.14457 12.3562 7.67858 11.9351 7.4004 11.3939C7.12223 10.8527 7.05098 10.2286 7.20001 9.63869V9.63932ZM2.75001 7.74994C3.08153 7.74994 3.39947 7.61825 3.63389 7.38383C3.86831 7.14941 4.00001 6.83146 4.00001 6.49994C4.00001 6.16842 3.86831 5.85048 3.63389 5.61606C3.39947 5.38164 3.08153 5.24994 2.75001 5.24994C2.41849 5.24994 2.10054 5.38164 1.86612 5.61606C1.6317 5.85048 1.50001 6.16842 1.50001 6.49994C1.50001 6.83146 1.6317 7.14941 1.86612 7.38383C2.10054 7.61825 2.41849 7.74994 2.75001 7.74994ZM9.62501 3.99994C9.95653 3.99994 10.2745 3.86825 10.5089 3.63383C10.7433 3.39941 10.875 3.08146 10.875 2.74994C10.875 2.41842 10.7433 2.10048 10.5089 1.86606C10.2745 1.63164 9.95653 1.49994 9.62501 1.49994C9.29349 1.49994 8.97554 1.63164 8.74112 1.86606C8.5067 2.10048 8.37501 2.41842 8.37501 2.74994C8.37501 3.08146 8.5067 3.39941 8.74112 3.63383C8.97554 3.86825 9.29349 3.99994 9.62501 3.99994ZM9.62501 11.4999C9.95653 11.4999 10.2745 11.3682 10.5089 11.1338C10.7433 10.8994 10.875 10.5815 10.875 10.2499C10.875 9.91842 10.7433 9.60048 10.5089 9.36606C10.2745 9.13164 9.95653 8.99994 9.62501 8.99994C9.29349 8.99994 8.97554 9.13164 8.74112 9.36606C8.5067 9.60048 8.37501 9.91842 8.37501 10.2499C8.37501 10.5815 8.5067 10.8994 8.74112 11.1338C8.97554 11.3682 9.29349 11.4999 9.62501 11.4999Z" fill="#9DC78E"/>
</svg>
