<svg width="20" height="20" viewBox="0 0 20 20" fill="none" xmlns="http://www.w3.org/2000/svg">
<path d="M10.4046 19.9967C9.84399 19.9988 9.30457 19.7746 8.90899 19.3769L0.619878 11.0899C0.403764 10.8745 0.236988 10.6147 0.131072 10.3286C0.0251564 10.0424 -0.0173743 9.73667 0.00641866 9.43247L0.535263 2.48769C0.571799 1.98209 0.789666 1.50668 1.14879 1.14892C1.50791 0.791158 1.98414 0.575096 2.48987 0.540479L9.43466 0.0116345C9.48966 -8.66844e-08 9.5436 0 9.5986 0C10.1592 0 10.6954 0.222115 11.0899 0.619806L19.3801 8.90575C19.5766 9.10219 19.7325 9.33542 19.8389 9.59213C19.9453 9.84883 20 10.124 20 10.4018C20 10.6797 19.9453 10.9549 19.8389 11.2116C19.7325 11.4683 19.5766 11.7015 19.3801 11.8979L11.9001 19.3769C11.7042 19.5739 11.4711 19.7302 11.2144 19.8366C10.9577 19.9429 10.6824 19.9974 10.4046 19.9967ZM5.91679 3.79922C5.56892 3.79932 5.22645 3.88521 4.91971 4.04927C4.61296 4.21333 4.35141 4.45051 4.15822 4.7398C3.96503 5.02909 3.84617 5.36156 3.81215 5.70775C3.77814 6.05395 3.83002 6.40319 3.96322 6.72455C4.09641 7.0459 4.30679 7.32945 4.57574 7.55008C4.84469 7.77071 5.16389 7.92161 5.50509 7.98941C5.84628 8.05721 6.19893 8.03982 6.5318 7.93879C6.86466 7.83775 7.16748 7.65619 7.41342 7.41017L7.42082 7.40383L7.42823 7.39642L7.41976 7.40383C7.71379 7.10721 7.91343 6.7302 7.99353 6.32031C8.07363 5.91042 8.03061 5.48598 7.86988 5.1005C7.70915 4.71502 7.43791 4.38575 7.09034 4.15418C6.74277 3.9226 6.33443 3.79909 5.91679 3.79922V3.79922Z" fill="#18171F" fill-opacity="0.8"/>
</svg>
