<svg width="20" height="20" viewBox="0 0 20 20" fill="none" xmlns="http://www.w3.org/2000/svg">
<g clip-path="url(#clip0)">
<path d="M15.2941 15.3469C15.2941 16.9291 11.7835 16.8803 9.96596 16.5066C8.20064 16.9156 4.73096 16.9294 4.73096 15.3469C4.73096 13.7647 9.16283 12.4822 10.0135 12.4822C10.8628 12.4822 15.2941 13.765 15.2941 15.3469Z" fill="#C18E6B"/>
<path d="M11.6281 5.50438C11.6281 7.08657 10.9388 8.36907 10.0891 8.36907C9.23845 8.36907 8.54907 7.08657 8.54907 5.50438C8.54907 3.92219 9.23845 2.63969 10.0891 2.63969C10.5503 2.63969 11.6281 3.92251 11.6281 5.50438" fill="#C18E6B"/>
<path d="M11.0499 19.475C11.1606 19.5503 11.2765 19.615 11.3934 19.6806C11.3871 19.8431 11.4846 20.0047 11.6931 20.0047H19.479C19.6418 20.0047 19.7409 19.9047 19.7799 19.7844C19.8226 19.7587 19.8575 19.7221 19.8813 19.6784C19.905 19.6346 19.9166 19.5854 19.9149 19.5356V17.8819C19.9151 17.833 19.9043 17.7848 19.8834 17.7406C19.8726 17.6896 19.8492 17.642 19.8154 17.6022C19.7815 17.5624 19.7383 17.5317 19.6896 17.5128C17.9646 16.8219 16.6043 15.7566 15.2446 14.5106C15.1168 14.3913 14.9281 14.365 14.7928 14.4903C13.2631 15.8935 11.3365 16.9175 10.9174 19.111C10.8903 19.2531 10.9209 19.3913 11.0499 19.475" fill="#DE6498"/>
<path d="M11.8155 7.64467C12.0677 7.09592 13.0374 6.52529 13.1824 7.33592C13.5158 9.20123 13.6727 11.4328 13.4308 13.3297C13.3465 13.9884 12.5758 13.7925 12.4587 13.7322C10.9496 12.9756 11.5649 8.19373 11.8155 7.64498" fill="#DDA37C"/>
<path d="M9.57812 3.05124H10.3594V16.2137H9.57812V3.05124Z" fill="#C18E6B"/>
<path d="M10.2656 3.35062C10.3203 2.67281 10.2084 1.76687 11.1694 2.94406C11.4275 3.25969 12.0525 6.40031 12.3034 7.37156C12.9159 9.74312 14.0547 11.4591 14.5178 14.2122C14.6788 16.1797 13.0963 19.5109 11.4859 17.9809C10.9172 17.4437 10.3825 17.0834 10.2656 14.7559V3.35062Z" fill="#EFB086"/>
<path d="M9.1094 19.1094C8.68909 16.9156 6.76284 15.8919 5.23284 14.4887C5.09753 14.3637 4.9094 14.39 4.78159 14.509C3.42159 15.755 2.06159 16.8203 0.336275 17.5112C0.287618 17.5302 0.244432 17.5609 0.210609 17.6007C0.176786 17.6404 0.153389 17.688 0.142525 17.739C0.121627 17.7833 0.110845 17.8317 0.110963 17.8806V19.5347C0.110963 19.6565 0.1694 19.7347 0.2469 19.7834C0.285338 19.9037 0.383775 20.0037 0.5469 20.0037H8.33346C8.5419 20.0037 8.63909 19.8419 8.6319 19.6797C8.74909 19.614 8.86596 19.5494 8.97565 19.474C9.10503 19.39 9.13628 19.2519 9.1094 19.1094" fill="#DE6498"/>
<path d="M8.20942 7.64467C7.95786 7.09592 6.98848 6.52529 6.84348 7.33592C6.50973 9.20123 6.35255 11.4328 6.59473 13.3297C6.6788 13.9884 7.45067 13.7925 7.56755 13.7322C9.07692 12.9756 8.46161 8.19373 8.20942 7.64498" fill="#DDA37C"/>
<path d="M9.70003 14.7625C9.70128 14.7437 9.70972 14.2062 9.70003 14.19V3.35562C9.64597 2.6778 9.75722 1.77155 8.79628 2.94905C8.53847 3.26468 7.91315 6.4053 7.66284 7.37655C7.04972 9.7478 5.91128 11.4641 5.44784 14.2172C5.2869 16.185 6.8694 19.5162 8.48034 17.9859C9.04815 17.4487 9.58378 17.0881 9.70003 14.7603" fill="#EFB086"/>
</g>
<defs>
<clipPath id="clip0">
<rect width="20" height="20" fill="white"/>
</clipPath>
</defs>
</svg>
