<svg width="22" height="23" viewBox="0 0 22 23" fill="none" xmlns="http://www.w3.org/2000/svg">
<path d="M10.6052 5.78218L10.8352 3.41331C10.9262 2.46136 11.8152 1.8154 12.7131 2.04739C14.064 2.39737 15.013 3.6523 15.013 5.09122V8.12605C15.013 8.80101 15.013 9.13899 15.159 9.38598C15.242 9.52697 15.356 9.64596 15.492 9.73096C15.7319 9.88195 16.0589 9.88195 16.7119 9.88195H17.1079C18.8108 9.88195 19.6617 9.88195 20.1857 10.2719C20.5787 10.5649 20.8557 10.9939 20.9657 11.4799C21.1116 12.1298 20.7847 12.9428 20.1297 14.5667L19.8037 15.3766C19.6146 15.8457 19.5373 16.3524 19.5777 16.8566C19.8097 19.7304 17.5308 22.1513 14.745 21.9923L4.32158 21.3933C3.18264 21.3283 2.61367 21.2953 2.0997 20.8403C1.58473 20.3854 1.48774 19.9164 1.29475 18.9794C0.884003 16.9862 0.902752 14.9282 1.34974 12.9428C1.63273 11.6949 2.82466 11.0229 4.05559 11.1829C7.31941 11.6029 10.2782 9.16399 10.6052 5.78318V5.78218Z" fill="#FF8181" stroke="#FF8181" stroke-width="2" stroke-linecap="round" stroke-linejoin="round"/>
<path d="M6.00059 11.4998L5.8636 11.9568C4.97675 14.9131 5.0246 18.0712 6.00059 20.9993" stroke="#FF8181" stroke-width="2" stroke-linecap="round" stroke-linejoin="round"/>
</svg>
