<svg width="22" height="23" viewBox="0 0 22 23" fill="none" xmlns="http://www.w3.org/2000/svg">
<path d="M11.3948 17.2178L11.1648 19.5867C11.0738 20.5386 10.1848 21.1846 9.28689 20.9526C7.93596 20.6026 6.98702 19.3477 6.98702 17.9088V14.874C6.98702 14.199 6.98702 13.861 6.84103 13.614C6.75803 13.473 6.64404 13.354 6.50804 13.269C6.26806 13.118 5.94108 13.118 5.28811 13.118H4.89213C3.18923 13.118 2.33828 13.118 1.8143 12.7281C1.42133 12.4351 1.14434 12.0061 1.03435 11.5201C0.888358 10.8702 1.21534 10.0572 1.8703 8.43331L2.19628 7.62335C2.38537 7.15425 2.46274 6.64759 2.42227 6.14344C2.19029 3.2696 4.46916 0.848733 7.255 1.00772L17.6784 1.60669C18.8174 1.67169 19.3863 1.70469 19.9003 2.15966C20.4153 2.61463 20.5123 3.08361 20.7053 4.02056C21.116 6.01383 21.0972 8.07176 20.6503 10.0572C20.3673 11.3051 19.1753 11.9771 17.9444 11.8171C14.6806 11.3971 11.7218 13.836 11.3948 17.2168V17.2178Z" fill="#9FADB2" stroke="#9FADB2" stroke-width="2" stroke-linecap="round" stroke-linejoin="round"/>
<path d="M15.9994 11.5002L16.1364 11.0432C17.0232 8.08689 16.9754 4.92881 15.9994 2.00071" fill="#9FADB2"/>
<path d="M15.9994 11.5002L16.1364 11.0432C17.0232 8.08689 16.9754 4.92881 15.9994 2.00071" stroke="#9FADB2" stroke-width="2" stroke-linecap="round" stroke-linejoin="round"/>
</svg>
