<svg width="20" height="20" viewBox="0 0 20 20" fill="none" xmlns="http://www.w3.org/2000/svg">
<path d="M9.67082 4.81837L9.86249 2.84421C9.93832 2.05087 10.6792 1.51254 11.4275 1.70587C12.5533 1.99754 13.3442 3.04337 13.3442 4.24254V6.77171C13.3442 7.33421 13.3442 7.61587 13.4658 7.82171C13.535 7.93921 13.63 8.03837 13.7433 8.10921C13.9433 8.23504 14.2158 8.23504 14.76 8.23504H15.09C16.5092 8.23504 17.2183 8.23504 17.655 8.56004C17.9825 8.80421 18.2133 9.16171 18.305 9.56671C18.4267 10.1084 18.1542 10.7859 17.6083 12.1392L17.3367 12.8142C17.1791 13.2051 17.1146 13.6274 17.1483 14.0475C17.3417 16.4425 15.4425 18.46 13.1208 18.3275L4.43415 17.8284C3.48499 17.7742 3.01082 17.7467 2.58249 17.3675C2.15332 16.9884 2.07249 16.5975 1.91165 15.8167C1.56935 14.1556 1.58497 12.4405 1.95749 10.7859C2.19332 9.74587 3.18665 9.18587 4.21249 9.31921C6.93249 9.66921 9.39832 7.63671 9.67082 4.81921V4.81837Z" fill="#FF8181" stroke="#FF8181" stroke-width="2" stroke-linecap="round" stroke-linejoin="round"/>
<path d="M5.83331 9.58337L5.71915 9.96421C4.98007 12.4279 5.01994 15.0598 5.83331 17.5" stroke="#FF8181" stroke-width="2" stroke-linecap="round" stroke-linejoin="round"/>
</svg>
