<svg width="20" height="20" viewBox="0 0 20 20" fill="none" xmlns="http://www.w3.org/2000/svg">
<path d="M10.3292 15.1816L10.1375 17.1558C10.0617 17.9491 9.32085 18.4875 8.57251 18.2941C7.44668 18.0025 6.65585 16.9566 6.65585 15.7575V13.2283C6.65585 12.6658 6.65585 12.3841 6.53418 12.1783C6.46501 12.0608 6.37001 11.9616 6.25668 11.8908C6.05668 11.765 5.78418 11.765 5.24001 11.765H4.91001C3.49085 11.765 2.78168 11.765 2.34501 11.44C2.01751 11.1958 1.78668 10.8383 1.69501 10.4333C1.57335 9.89163 1.84585 9.21413 2.39168 7.86079L2.66335 7.18579C2.82092 6.79485 2.8854 6.37261 2.85168 5.95246C2.65835 3.55746 4.55751 1.53996 6.87918 1.67246L15.5658 2.17163C16.515 2.22579 16.9892 2.25329 17.4175 2.63246C17.8467 3.01163 17.9275 3.40246 18.0883 4.18329C18.4307 5.84445 18.415 7.55948 18.0425 9.21413C17.8067 10.2541 16.8133 10.8141 15.7875 10.6808C13.0675 10.3308 10.6017 12.3633 10.3292 15.1808V15.1816Z" stroke="#9FADB2" stroke-width="2" stroke-linecap="round" stroke-linejoin="round"/>
<path d="M14.1667 10.4166L14.2809 10.0358C15.0199 7.57205 14.9801 4.94018 14.1667 2.49996" stroke="#9FADB2" stroke-width="2" stroke-linecap="round" stroke-linejoin="round"/>
</svg>
