<svg width="46" height="46" viewBox="0 0 46 46" fill="none" xmlns="http://www.w3.org/2000/svg">
<path d="M16.75 39.6667H10.5C8.28985 39.6667 6.17024 38.7887 4.60743 37.2259C3.04463 35.6631 2.16666 33.5435 2.16666 31.3333V12.5833C2.16666 10.3732 3.04463 8.25358 4.60743 6.69078C6.17024 5.12797 8.28985 4.25 10.5 4.25H33.4167C35.6268 4.25 37.7464 5.12797 39.3092 6.69078C40.872 8.25358 41.75 10.3732 41.75 12.5833V18.8333" stroke="#18171F" stroke-opacity="0.8" stroke-width="4" stroke-linecap="round" stroke-linejoin="round"/>
<path d="M14.6667 2.16663V6.33329" stroke="#18171F" stroke-opacity="0.8" stroke-width="4" stroke-linecap="round" stroke-linejoin="round"/>
<path d="M29.25 2.16663V6.33329" stroke="#18171F" stroke-opacity="0.8" stroke-width="4" stroke-linecap="round" stroke-linejoin="round"/>
<path d="M2.16666 14.6666H41.75" stroke="#18171F" stroke-opacity="0.8" stroke-width="4" stroke-linecap="round" stroke-linejoin="round"/>
<path d="M36.5417 30.5895L33.4167 33.7145" stroke="#18171F" stroke-opacity="0.8" stroke-width="4" stroke-linecap="round" stroke-linejoin="round"/>
<path d="M33.4167 43.8333C39.1696 43.8333 43.8333 39.1696 43.8333 33.4167C43.8333 27.6637 39.1696 23 33.4167 23C27.6637 23 23 27.6637 23 33.4167C23 39.1696 27.6637 43.8333 33.4167 43.8333Z" stroke="#18171F" stroke-opacity="0.8" stroke-width="4" stroke-linecap="round" stroke-linejoin="round"/>
</svg>
