<svg width="20" height="19" viewBox="0 0 20 19" fill="none" xmlns="http://www.w3.org/2000/svg">
<path d="M9.99989 9.61764L13.8548 13.4716L12.5692 14.7572L10.9084 13.0964V18.1705H9.09136V13.0946L7.43058 14.7572L6.14502 13.4716L9.99989 9.61764ZM9.99989 2.01838e-08C11.5598 7.42899e-05 13.0653 0.573383 14.2302 1.61092C15.395 2.64846 16.138 4.07788 16.3178 5.6274C17.4482 5.93568 18.4344 6.63142 19.1039 7.59302C19.7734 8.55463 20.0837 9.72094 19.9806 10.8881C19.8774 12.0553 19.3674 13.1491 18.5396 13.9784C17.7118 14.8077 16.6189 15.3197 15.4519 15.4249L15.451 13.6279C15.4525 12.1989 14.8927 10.8265 13.8923 9.80612C12.8919 8.78574 11.5308 8.199 10.1021 8.1722C8.67339 8.14541 7.29127 8.6807 6.2533 9.66284C5.21533 10.645 4.60452 11.9954 4.55237 13.4235L4.54874 13.6279V15.4249C3.38169 15.3198 2.2887 14.808 1.46078 13.9787C0.632871 13.1495 0.122703 12.0557 0.0194462 10.8885C-0.0838103 9.7213 0.226413 8.55493 0.895895 7.59325C1.56538 6.63156 2.55153 5.93574 3.68201 5.6274C3.86163 4.0778 4.60453 2.64827 5.76941 1.61069C6.9343 0.573115 8.43991 -0.000124198 9.99989 2.01838e-08Z" fill="white"/>
</svg>
