<svg width="20" height="20" viewBox="0 0 20 20" fill="none" xmlns="http://www.w3.org/2000/svg">
<path d="M17.6944 3.47041C18.3377 3.47041 18.8592 2.94891 18.8592 2.30561C18.8592 1.66231 18.3377 1.14081 17.6944 1.14081C17.0511 1.14081 16.5296 1.66231 16.5296 2.30561C16.5296 2.94891 17.0511 3.47041 17.6944 3.47041Z" fill="#9FADB2"/>
<path d="M17.6944 18.8592C18.3377 18.8592 18.8592 18.3377 18.8592 17.6944C18.8592 17.0511 18.3377 16.5296 17.6944 16.5296C17.0511 16.5296 16.5296 17.0511 16.5296 17.6944C16.5296 18.3377 17.0511 18.8592 17.6944 18.8592Z" fill="#9FADB2"/>
<path d="M10 11.1648C10.6433 11.1648 11.1648 10.6433 11.1648 10C11.1648 9.3567 10.6433 8.83521 10 8.83521C9.3567 8.83521 8.83521 9.3567 8.83521 10C8.83521 10.6433 9.3567 11.1648 10 11.1648Z" fill="#9FADB2"/>
<path d="M2.30561 18.8592C2.94891 18.8592 3.47041 18.3377 3.47041 17.6944C3.47041 17.0511 2.94891 16.5296 2.30561 16.5296C1.66231 16.5296 1.14081 17.0511 1.14081 17.6944C1.14081 18.3377 1.66231 18.8592 2.30561 18.8592Z" fill="#9FADB2"/>
<path d="M2.30561 3.47041C2.94891 3.47041 3.47041 2.94891 3.47041 2.30561C3.47041 1.66231 2.94891 1.14081 2.30561 1.14081C1.66231 1.14081 1.14081 1.66231 1.14081 2.30561C1.14081 2.94891 1.66231 3.47041 2.30561 3.47041Z" fill="#9FADB2"/>
<path d="M9.60002 8.07642V2.40002H4.26562C4.21742 3.40802 3.40802 4.21742 2.40002 4.26562V9.60002H8.07642C8.155 9.22555 8.34093 8.88205 8.61149 8.61149C8.88205 8.34093 9.22555 8.155 9.60002 8.07642Z" fill="#9FADB2"/>
<path d="M11.9236 9.60002H17.6V4.26562C16.592 4.21742 15.7826 3.40802 15.7342 2.40002H10.4V8.07642C10.7745 8.155 11.118 8.34093 11.3886 8.61149C11.6591 8.88205 11.845 9.22555 11.9236 9.60002Z" fill="#9FADB2"/>
<path d="M8.07642 10.4H2.40002V15.7342C3.40802 15.7824 4.21742 16.592 4.26562 17.6H9.60002V11.9236C9.22555 11.845 8.88205 11.6591 8.61149 11.3886C8.34093 11.118 8.155 10.7745 8.07642 10.4Z" fill="#9FADB2"/>
<path d="M17.6 15.7342V10.4H11.9236C11.845 10.7745 11.6591 11.118 11.3886 11.3886C11.118 11.6591 10.7745 11.845 10.4 11.9236V17.6H15.7342C15.7824 16.592 16.592 15.7824 17.6 15.7342Z" fill="#9FADB2"/>
</svg>
