<svg width="20" height="20" viewBox="0 0 20 20" fill="none" xmlns="http://www.w3.org/2000/svg">
<path d="M14.1622 9.684H14.1634L14.4597 9.36774C14.6393 9.17605 14.7794 8.95086 14.872 8.70502C14.9646 8.45918 15.0079 8.19751 14.9993 7.93496C14.9908 7.6724 14.9306 7.4141 14.8222 7.1748C14.7139 6.9355 14.5594 6.71989 14.3677 6.54028C14.176 6.36066 13.9509 6.22056 13.705 6.12798C13.4592 6.03539 13.1975 5.99214 12.935 6.00068C12.6724 6.00922 12.4141 6.06939 12.1748 6.17776C11.9355 6.28612 11.7199 6.44054 11.5403 6.63222C11.5403 6.63223 11.5403 6.63225 11.5403 6.63226L9.12316 9.21167L8.32815 8.5054L8.31588 8.4945L8.30327 8.48402C7.90419 8.15225 7.39177 7.98861 6.87427 8.02765C6.35676 8.0667 5.8747 8.30537 5.52991 8.69326C5.18512 9.08114 5.00462 9.58786 5.02651 10.1064C5.04841 10.6249 5.271 11.1146 5.64727 11.472L5.65927 11.4834L5.67164 11.4944L7.92164 13.4944L7.92189 13.4946C8.31126 13.8405 8.8202 14.0209 9.34047 13.9973C9.86075 13.9738 10.3513 13.7482 10.7079 13.3686L10.7085 13.3679L14.1622 9.684ZM2.17157 2.17157C2.92172 1.42143 3.93913 1 5 1H15C16.0609 1 17.0783 1.42143 17.8284 2.17157C18.5786 2.92172 19 3.93913 19 5V15C19 16.0609 18.5786 17.0783 17.8284 17.8284C17.0783 18.5786 16.0609 19 15 19H5C3.93913 19 2.92172 18.5786 2.17157 17.8284C1.42143 17.0783 1 16.0609 1 15V5C1 3.93913 1.42143 2.92172 2.17157 2.17157Z" stroke="#9DC78E" stroke-width="2"/>
</svg>
