<svg width="19" height="20" viewBox="0 0 19 20" fill="none" xmlns="http://www.w3.org/2000/svg">
<path d="M9.32408 0.548036C9.32408 0.548036 10.5235 -0.472335 12.0245 0.271832C13.9751 1.23942 14.436 3.50227 14.4576 4.81996C14.4791 6.13764 15.6257 6.08442 15.3042 7.20023C14.9827 8.31604 16.2472 8.22017 15.8615 9.38919C15.4758 10.5582 16.9654 10.5899 16.4403 11.8438C15.9151 13.0977 18.3693 13.735 17.158 15.0742C15.9468 16.4135 9.30253 13.9158 9.35619 13.6712C9.40984 13.4267 8.97223 5.42558 8.97223 5.42558L9.32408 0.548036Z" fill="#D4716C"/>
<path d="M9.32409 0.548021C9.32409 0.548021 8.12383 -0.504016 6.46265 0.388368C4.70867 1.33089 5.07987 3.54448 3.8154 4.55385C2.55094 5.56323 4.41575 6.50927 2.90279 7.44432C1.38983 8.37936 3.77098 9.13409 2.44186 10.0392C1.11274 10.9444 3.38483 11.8864 2.05615 12.9086C0.727465 13.9307 0.887997 15.1824 1.88462 15.4802C2.88124 15.7779 8.65777 14.5126 8.88295 14.2487C9.10814 13.9848 9.4292 7.92591 9.4723 7.75615C9.5154 7.58638 9.32409 0.548021 9.32409 0.548021Z" fill="#D4716C"/>
<path d="M4.94704 6.31874C4.94704 6.31874 4.85512 7.45479 5.54079 9.02757C6.22646 10.6003 3.2797 12.0135 4.57628 13.2463C5.87285 14.4791 14.3608 13.3527 14.4787 13.3633C14.5966 13.3738 15.5263 12.9767 14.897 11.3652C14.3072 9.85662 14.0763 10.3347 13.2969 6.91293C12.5176 3.49117 4.94704 6.31874 4.94704 6.31874Z" fill="#B35250"/>
<path d="M18.9961 19.3831H0.00397806C-0.117851 15.0417 2.62703 13.6941 4.76893 12.9992C5.39303 12.7964 5.96567 12.6495 6.40152 12.5004C6.49242 12.4691 6.57716 12.4376 6.65574 12.4059C6.70353 12.3859 6.74883 12.3662 6.79164 12.3465C6.81231 12.3364 6.83254 12.3267 6.85189 12.3166L6.86465 12.31C7.00826 12.2356 7.13942 12.1393 7.25344 12.0246C7.56615 11.7079 7.70162 11.2866 7.74296 10.8652C7.77149 10.5313 7.75671 10.1952 7.69898 9.86508C7.66055 9.62642 7.6035 9.39113 7.52833 9.16138H11.4735C11.4735 9.16138 11.0987 10.2297 11.305 11.1678C11.3745 11.484 11.5104 11.7862 11.7492 12.0272C11.8428 12.1214 11.9482 12.203 12.0628 12.27C12.0905 12.2863 12.1191 12.3021 12.1508 12.3175L12.1662 12.3254L12.1965 12.3404C12.3315 12.403 12.47 12.4578 12.6113 12.5044C13.1716 12.6957 13.9558 12.884 14.7835 13.1901C16.8133 13.9422 19.1078 15.4063 18.9961 19.3831Z" fill="#F8A495"/>
<path d="M18.9961 19.3831H0.00397806C-0.117851 15.0417 2.62703 13.6941 4.76893 12.9992C4.87713 12.964 4.98444 12.9302 5.08912 12.8981C5.58787 12.7454 6.04132 12.6236 6.40152 12.5022C6.49242 12.4708 6.57716 12.4393 6.65574 12.4077C6.70353 12.3877 6.74883 12.3679 6.79164 12.3483C6.81231 12.3382 6.83254 12.3285 6.85189 12.3184L6.86465 12.3118C7.29611 12.7441 8.38201 13.6906 9.63284 13.7042H9.6368C10.4206 13.7121 11.2694 13.3524 12.0619 12.2709C12.0896 12.2871 12.1182 12.303 12.1499 12.3184L12.1653 12.3263L12.1956 12.3412C12.3306 12.4039 12.4691 12.4587 12.6104 12.5053C12.8879 12.6003 13.2209 12.694 13.5863 12.8022C13.9589 12.9121 14.3652 13.0366 14.7826 13.191C16.8133 13.9422 19.1078 15.4063 18.9961 19.3831Z" fill="#722722"/>
<path d="M13.826 5.32184C13.8259 5.52303 13.8145 5.72405 13.7917 5.92394C13.5177 8.37503 11.6221 10.834 9.32404 10.834C7.41128 10.834 5.77693 9.13063 5.12469 7.14443C4.99462 6.75022 4.90502 6.34378 4.85728 5.93142C4.85435 5.90679 4.85171 5.88216 4.84936 5.85753C4.83133 5.67765 4.82166 5.4982 4.82166 5.31964C4.82166 2.68295 6.83733 0.548096 9.32404 0.548096C11.8108 0.548096 13.826 2.68295 13.826 5.32184Z" fill="#D4716C"/>
<path d="M14.0182 6.92357C14.0182 6.92357 14.3287 4.0463 12.5286 2.45022C11.3402 1.39818 13.3216 6.8708 14.0182 6.92357Z" fill="#B35250"/>
<g opacity="0.27">
<path opacity="0.27" d="M13.87 6.86105C13.87 6.86105 13.778 5.08596 13.1808 4.1342C12.5835 3.18244 13.329 7.2494 13.329 7.2494L13.87 6.86105Z" fill="#010101"/>
</g>
<path d="M5.26983 7.24816L5.12469 7.14437C4.99462 6.75015 4.90502 6.34372 4.85728 5.93136C4.85435 5.90673 4.85171 5.8821 4.84937 5.85747C4.94656 5.29406 5.11897 4.61059 5.41805 4.13295C6.01532 3.18031 5.26983 7.24816 5.26983 7.24816Z" fill="#B35250"/>
<path d="M5.5461 8.14589C6.12907 8.14589 6.60166 7.67724 6.60166 7.09913C6.60166 6.52102 6.12907 6.05237 5.5461 6.05237C4.96313 6.05237 4.49054 6.52102 4.49054 7.09913C4.49054 7.67724 4.96313 8.14589 5.5461 8.14589Z" fill="#F8A495"/>
<path d="M5.54606 7.75256C5.91017 7.75256 6.20534 7.45995 6.20534 7.099C6.20534 6.73805 5.91017 6.44543 5.54606 6.44543C5.18195 6.44543 4.88678 6.73805 4.88678 7.099C4.88678 7.45995 5.18195 7.75256 5.54606 7.75256Z" fill="#F08777"/>
<path d="M13.1232 8.15638C13.7062 8.15638 14.1787 7.68773 14.1787 7.10962C14.1787 6.53152 13.7062 6.06287 13.1232 6.06287C12.5402 6.06287 12.0676 6.53152 12.0676 7.10962C12.0676 7.68773 12.5402 8.15638 13.1232 8.15638Z" fill="#F9A88B"/>
<path d="M13.1232 7.76318C13.4873 7.76318 13.7825 7.47057 13.7825 7.10962C13.7825 6.74867 13.4873 6.45605 13.1232 6.45605C12.7591 6.45605 12.4639 6.74867 12.4639 7.10962C12.4639 7.47057 12.7591 7.76318 13.1232 7.76318Z" fill="#E58977"/>
<path d="M11.3032 11.1669C11.0638 11.4228 10.7496 11.5964 10.4056 11.663C9.21322 11.9102 8.27466 11.3301 7.74204 10.8652C7.77058 10.5313 7.75579 10.1952 7.69806 9.86508C8.03496 9.58052 8.46554 9.34874 8.9225 9.16138H11.4734C11.4734 9.16138 11.0978 10.2288 11.3032 11.1669Z" fill="#F08777"/>
<path d="M13.4267 5.50782C13.4267 5.53201 13.4267 5.5562 13.4267 5.58039C13.4243 5.74928 13.4142 5.9189 13.3963 6.08925C13.1465 8.45898 11.4171 10.834 9.32494 10.834C7.23274 10.834 5.50779 8.46513 5.25446 6.09849C5.24038 5.96889 5.231 5.83929 5.22631 5.70969C5.22367 5.6424 5.22235 5.57467 5.22235 5.50782C5.22235 2.96217 7.05902 0.89856 9.32494 0.89856C11.5909 0.89856 13.4267 2.96217 13.4267 5.50782Z" fill="#F8A495"/>
<path d="M10.5784 5.17488C10.592 5.16213 10.9197 4.87185 11.4651 5.15113C11.503 5.17051 11.547 5.17417 11.5876 5.16133C11.6282 5.14849 11.662 5.12017 11.6819 5.08252C11.6915 5.06387 11.6973 5.04351 11.699 5.0226C11.7008 5.00169 11.6984 4.98065 11.6919 4.96068C11.6855 4.9407 11.6752 4.92219 11.6617 4.90619C11.6481 4.8902 11.6315 4.87703 11.6128 4.86745C11.2227 4.66822 10.9061 4.69592 10.709 4.75398C10.5793 4.79073 10.4592 4.85543 10.3572 4.94354C10.3572 4.94354 10.209 5.07197 10.3097 5.174C10.4218 5.28792 10.5802 5.174 10.5802 5.174L10.5784 5.17488Z" fill="#341724"/>
<path d="M7.50905 6.36071C7.65916 6.36071 7.78085 6.15139 7.78085 5.89318C7.78085 5.63498 7.65916 5.42566 7.50905 5.42566C7.35893 5.42566 7.23724 5.63498 7.23724 5.89318C7.23724 6.15139 7.35893 6.36071 7.50905 6.36071Z" fill="#341724"/>
<path d="M11.0561 6.35009C11.2062 6.35009 11.3279 6.14077 11.3279 5.88257C11.3279 5.62436 11.2062 5.41504 11.0561 5.41504C10.906 5.41504 10.7843 5.62436 10.7843 5.88257C10.7843 6.14077 10.906 6.35009 11.0561 6.35009Z" fill="#341724"/>
<path d="M7.91675 5.1973C7.90048 5.18807 7.51696 4.9774 7.04591 5.36619C7.01308 5.39328 6.9709 5.40634 6.92851 5.40255C6.88611 5.39877 6.84692 5.37843 6.81941 5.34596C6.80589 5.32995 6.79569 5.31143 6.78938 5.29145C6.78308 5.27147 6.7808 5.25044 6.78268 5.22958C6.78457 5.20872 6.79057 5.18844 6.80034 5.16991C6.81012 5.15138 6.82348 5.13498 6.83964 5.12165C7.1761 4.84237 7.49145 4.80103 7.6964 4.81379C7.83147 4.82113 7.96321 4.85838 8.08212 4.92286C8.08212 4.92286 8.25497 5.01566 8.17932 5.13705C8.09488 5.27251 7.91543 5.19554 7.91543 5.19554L7.91675 5.1973Z" fill="#341724"/>
<path d="M8.55225 6.82822C8.55225 6.82822 8.91686 5.75508 9.20626 5.77619C9.49566 5.7973 10.1923 7.15765 10.1923 7.15765L8.55225 6.82822Z" fill="#F08777"/>
<path d="M13.4259 6.04663C13.4236 6.20171 13.4135 6.35658 13.3955 6.51064C13.3549 6.84951 13.2813 7.1836 13.1756 7.50814C13.1527 7.57807 13.129 7.648 13.1035 7.71705C13.0956 7.7386 13.0872 7.76103 13.0789 7.78214C13.0705 7.80325 13.0599 7.8314 13.0498 7.85603C13.0283 7.91101 13.0058 7.96598 12.9817 8.02008C12.9575 8.07418 12.9333 8.12915 12.9073 8.18325L12.8831 8.23383C12.873 8.25494 12.8625 8.27781 12.8519 8.29672C12.6756 8.6493 12.4619 8.98194 12.2146 9.28895C12.1331 9.38981 12.0484 9.48686 11.9604 9.5801C11.8724 9.67246 11.7845 9.76131 11.6899 9.84399C11.4558 10.0576 11.1982 10.244 10.922 10.3995C10.4356 10.6792 9.88527 10.8289 9.32416 10.834H9.25687C8.97363 10.8281 8.6925 10.7838 8.42123 10.7021C8.31875 10.6708 8.21715 10.6348 8.11731 10.5939C7.89306 10.4997 7.67858 10.3838 7.47695 10.2477C7.30176 10.1319 7.13535 10.0032 6.97908 9.8629C6.93861 9.8264 6.89859 9.78989 6.85945 9.75207C6.54682 9.45016 6.27318 9.11033 6.04491 8.7405C6.04487 8.73962 6.04487 8.73874 6.04491 8.73786C6.03084 8.71499 6.01676 8.69388 6.00093 8.66925C5.93584 8.56105 5.87441 8.45037 5.81665 8.33719C5.80213 8.30904 5.78806 8.28045 5.77267 8.25186C5.7001 8.10408 5.63368 7.95279 5.57431 7.79929C5.41437 7.38757 5.30651 6.95747 5.25325 6.51899C5.23917 6.40068 5.22994 6.28237 5.2251 6.16494C5.48899 6.47281 5.99917 6.94605 6.75169 7.09383C7.40789 7.2227 8.40583 6.51943 9.31273 6.53043C9.44961 6.53276 9.58584 6.54971 9.71912 6.58101C9.75562 6.58892 9.79169 6.59816 9.82775 6.60827C9.87789 6.62191 9.92759 6.6373 9.97685 6.65226C10.0112 6.66369 10.0455 6.67557 10.0793 6.68788C10.6023 6.877 11.0751 7.15584 11.6165 7.0604C12.2489 6.94913 12.7547 6.36374 13.4259 6.04663Z" fill="#9C5EA5"/>
<g opacity="0.12">
<path opacity="0.12" d="M4.75486 19.3831H4.18311C4.26667 18.6451 4.41929 17.3736 4.47998 17.36C4.54067 17.3463 4.66558 18.5193 4.75486 19.3831Z" fill="#010101"/>
</g>
<g opacity="0.12">
<path opacity="0.12" d="M15.858 19.3831H15.3267L15.5079 17.3586L15.858 19.3831Z" fill="#010101"/>
</g>
<path d="M6.87561 7.9629L6.22908 8.24702L5.94232 7.60622L6.58885 7.32166L6.87561 7.9629Z" fill="#FFFFFD"/>
<path d="M9.25508 7.32521L8.60811 7.60977L8.32135 6.96852L8.96788 6.68396L9.25508 7.32521Z" fill="#FFFFFD"/>
<path d="M8.51526 8.74928L7.86873 9.0334L7.58197 8.39259L8.2285 8.10803L8.51526 8.74928Z" fill="#FFFFFD"/>
<path d="M11.0873 8.16469L10.4408 8.44881L10.154 7.808L10.8005 7.52344L11.0873 8.16469Z" fill="#FFFFFD"/>
<path d="M10.2943 9.70547L9.64778 9.99003L9.36102 9.34877L10.0075 9.06421L10.2943 9.70547Z" fill="#FFFFFD"/>
<path d="M7.64752 10.1729L7.47687 10.2477C7.30169 10.1318 7.13528 10.0032 6.979 9.86285C6.93854 9.82634 6.89852 9.78984 6.85938 9.75201L7.36164 9.5321L7.64752 10.1729Z" fill="#FFFFFD"/>
<path d="M9.25681 10.8336C8.97356 10.8277 8.69243 10.7833 8.42116 10.7016L8.41632 10.6902L9.06285 10.4056L9.25681 10.8336Z" fill="#FFFFFD"/>
<path d="M12.2154 9.28891C12.1339 9.38977 12.0491 9.48683 11.9612 9.58007C11.8732 9.67243 11.7853 9.76127 11.6907 9.84396L11.44 9.28363L12.0865 8.99951L12.2154 9.28891Z" fill="#FFFFFD"/>
<path d="M13.0489 7.77162L12.4024 8.05618L12.1152 7.41493L12.7617 7.13037L13.0489 7.77162Z" fill="#FFFFFD"/>
<g opacity="0.23">
<path opacity="0.23" d="M11.4602 7.67969C11.4602 7.67969 9.21455 8.59054 7.44342 7.89256C7.44342 7.89256 8.78309 10.0639 11.4602 7.67969Z" fill="#010101"/>
</g>
<path d="M13.9325 11.7268C13.4725 13.2117 13.5591 13.6348 13.5978 13.7315C13.6011 13.7402 13.6054 13.7484 13.6106 13.7561C12.9574 13.2776 13.5573 11.2589 12.8822 10.2178C12.2071 9.17679 13.1272 6.52735 12.4103 5.9248C11.6934 5.32225 12.2603 4.53279 11.2852 4.52223C10.3102 4.51167 10.3313 3.52341 9.03472 3.82073C7.74474 4.11672 7.00629 2.74142 6.99837 2.72691C6.49478 5.10718 5.16742 6.62674 5.16742 6.62674L4.97302 4.84154C4.97302 4.84154 5.6908 2.5567 6.06596 2.18505C6.44113 1.81341 7.57717 0.824707 9.58141 0.824707C11.5856 0.824707 12.7428 2.51448 12.88 2.81179C13.0172 3.10911 14.0372 5.65959 13.8036 7.732C13.5701 9.80441 14.4787 9.96274 13.9325 11.7268Z" fill="#D4716C"/>
<path d="M13.611 13.7566C12.9578 13.2781 13.5578 11.2593 12.8826 10.2183C12.2075 9.17725 13.1276 6.52781 12.4107 5.92526C11.6938 5.32272 12.2607 4.53325 11.2857 4.52269C10.3106 4.51214 10.3313 3.52343 9.03469 3.82075C7.74472 4.11674 7.00627 2.74144 6.99835 2.72693C7.00979 2.73573 7.91976 3.42623 9.58139 3.09857C11.2527 2.76915 11.0732 3.8511 12.0998 4.24649C13.1263 4.64188 12.8822 7.44482 12.9891 8.86894C13.0959 10.2931 13.6752 10.3564 13.4931 11.5465C13.3141 12.7134 13.384 13.3058 13.5978 13.732C13.6022 13.7403 13.6061 13.7487 13.6105 13.7566H13.611Z" fill="#B35250"/>
<path d="M9.63198 13.7025C7.9167 17.3244 5.67937 13.9189 5.08826 12.898C5.58701 12.7454 6.04045 12.6236 6.40066 12.5022C6.49156 12.4708 6.57629 12.4393 6.65487 12.4076C6.70267 12.3877 6.74797 12.3679 6.79078 12.3483C6.81145 12.3382 6.83168 12.3285 6.85103 12.3184L6.86379 12.3118C7.29612 12.7423 8.38202 13.6888 9.63198 13.7025Z" fill="white"/>
<path d="M13.5846 12.7986C13.3449 13.6343 12.6953 15.3566 11.4136 15.3495C9.78632 15.3394 9.64514 13.8168 9.63678 13.7015C10.4205 13.7095 11.2694 13.3497 12.0619 12.2682C12.0896 12.2845 12.1182 12.3003 12.1499 12.3157L12.1653 12.3236L12.1956 12.3386C12.3306 12.4013 12.4691 12.456 12.6104 12.5026C12.8866 12.5985 13.2191 12.6922 13.5846 12.7986Z" fill="white"/>
<path d="M9.54883 16.7956C9.86849 16.7956 10.1276 16.5387 10.1276 16.2217C10.1276 15.9047 9.86849 15.6477 9.54883 15.6477C9.22917 15.6477 8.97003 15.9047 8.97003 16.2217C8.97003 16.5387 9.22917 16.7956 9.54883 16.7956Z" fill="white"/>
<path d="M9.57043 18.6978C9.8901 18.6978 10.1492 18.4409 10.1492 18.1239C10.1492 17.8069 9.8901 17.5499 9.57043 17.5499C9.25077 17.5499 8.99164 17.8069 8.99164 18.1239C8.99164 18.4409 9.25077 18.6978 9.57043 18.6978Z" fill="white"/>
</svg>
