<svg width="100" height="105" viewBox="0 0 100 105" fill="none" xmlns="http://www.w3.org/2000/svg">
<path d="M60.419 8.16669C60.419 8.16669 66.4463 4.83995 71.1279 12.5108C76.7268 21.6855 77.8396 65.4173 87.999 80.8171C98.1585 96.217 10.5482 79.688 10.5482 79.688C10.5482 79.688 18.8569 57.942 20.8148 28.304C22.484 3.11722 43.6457 -2.8332 54.3755 1.11512C57.7744 2.3676 60.6355 5.68502 60.419 8.16669Z" fill="#362B39"/>
<g opacity="0.12">
<path opacity="0.12" d="M72.4571 38.7708C72.4571 38.7708 72.7062 60.6798 76.6475 75.1763C80.5889 89.6729 20.2537 76.7547 20.2537 76.7547C20.2537 76.7547 23.6107 49.1212 25.1728 35.4348L60.8613 43.1382L72.4571 38.7708Z" fill="#010101"/>
</g>
<path d="M99.979 104.761H0.0208896C-0.807885 75.0064 23.5339 71.7425 33.691 68.2272C34.1706 68.0627 34.6168 67.8951 35.0296 67.7244C35.2834 67.6219 35.5208 67.5172 35.7443 67.4101C35.8537 67.3565 35.9608 67.3053 36.0633 67.2518C36.8459 66.8519 37.5589 66.3284 38.1748 65.7013C39.8207 64.0205 40.5331 61.7856 40.7519 59.5484C40.8963 57.7767 40.8141 55.9938 40.5074 54.2428C40.3046 52.9753 40.0042 51.7253 39.6088 50.504H60.3724C60.3724 50.504 58.3983 56.1727 59.4854 61.1524C59.8533 62.8332 60.568 64.4349 61.8251 65.7153C62.4369 66.3374 63.1442 66.8577 63.9203 67.2564L64.0018 67.2983L64.1624 67.3775C64.8718 67.7103 65.6002 68.0011 66.3438 68.2482C76.5568 71.7542 100.803 75.0576 99.979 104.761Z" fill="#F29B7E"/>
<path d="M81.548 104.761H23.2056L25.0447 84.5955L77.5578 84.7654L81.548 104.761Z" fill="#F26959"/>
<path d="M99.9791 104.761H63.8948L64.0205 67.2937L64.1811 67.3729C64.8905 67.7057 65.6189 67.9964 66.3625 68.2435C76.5569 71.7542 100.803 75.0576 99.9791 104.761Z" fill="#765D6C"/>
<path d="M35.153 104.761H0.0208896C-0.807885 75.0064 23.5339 71.7425 33.691 68.2272C34.1706 68.0627 34.6168 67.8951 35.0296 67.7244L35.153 104.761Z" fill="#765D6C"/>
<path d="M72.7692 30.1106C72.7688 31.1786 72.7082 32.2458 72.5876 33.307C71.1465 46.3299 61.1686 59.3807 49.0746 59.3807C36.9805 59.3807 27.0283 46.3601 25.5616 33.3558C25.4383 32.2777 25.3761 31.1934 25.3754 30.1083C25.3754 16.1215 35.9841 4.77942 49.0699 4.77942C62.1557 4.77942 72.7692 16.1238 72.7692 30.1106Z" fill="#362B39"/>
<g opacity="0.12">
<path opacity="0.12" d="M72.9995 38.2912C72.9995 38.2912 72.5153 28.8674 69.3748 23.8133C66.2343 18.7592 70.1547 40.3422 70.1547 40.3422L72.9995 38.2912Z" fill="#010101"/>
</g>
<g opacity="0.12">
<path opacity="0.12" d="M24.8911 38.2912C24.8911 38.2912 25.3753 28.8674 28.5158 23.8133C31.6563 18.7592 27.736 40.3422 27.736 40.3422L24.8911 38.2912Z" fill="#010101"/>
</g>
<path d="M34.6751 40.4489C35.1668 37.4196 33.1096 34.5651 30.0803 34.0734C27.0509 33.5817 24.1964 35.6388 23.7047 38.6682C23.213 41.6976 25.2701 44.552 28.2995 45.0438C31.3289 45.5355 34.1833 43.4783 34.6751 40.4489Z" fill="#F29B7E"/>
<path d="M31.6434 42.0082C32.998 40.6536 32.998 38.4573 31.6434 37.1026C30.2887 35.748 28.0924 35.748 26.7378 37.1026C25.3832 38.4573 25.3832 40.6536 26.7378 42.0082C28.0924 43.3628 30.2887 43.3628 31.6434 42.0082Z" fill="#C47E65"/>
<path d="M74.5573 40.5056C75.049 37.4762 72.9918 34.6218 69.9625 34.13C66.9331 33.6383 64.0786 35.6955 63.5869 38.7248C63.0952 41.7542 65.1523 44.6087 68.1817 45.1004C71.2111 45.5921 74.0655 43.535 74.5573 40.5056Z" fill="#F29B7E"/>
<path d="M71.5234 42.0663C72.878 40.7117 72.878 38.5154 71.5234 37.1608C70.1687 35.8061 67.9724 35.8061 66.6178 37.1608C65.2632 38.5154 65.2632 40.7117 66.6178 42.0663C67.9724 43.4209 70.1687 43.4209 71.5234 42.0663Z" fill="#C47E65"/>
<path d="M59.4948 61.1477C58.2403 62.5067 56.586 63.4313 54.7712 63.7877C48.4856 65.0984 43.5548 62.0207 40.7519 59.553C40.8967 57.7798 40.8145 55.9953 40.5074 54.2428C42.2791 52.7319 44.5466 51.5004 46.9514 50.504H60.3724C60.3724 50.504 58.4076 56.1681 59.4948 61.1477Z" fill="#C47E65"/>
<path d="M70.6646 31.1093C70.6646 31.2374 70.6646 31.3654 70.6646 31.4934C70.6538 32.3921 70.6002 33.293 70.504 34.1963C69.1887 46.7676 60.0978 59.3831 49.0862 59.3831C38.0747 59.3831 28.9978 46.8118 27.6685 34.2405C27.5963 33.5421 27.5451 32.8646 27.5195 32.1779C27.5195 31.8194 27.5009 31.4609 27.5009 31.1047C27.5009 17.6022 37.1668 6.63953 49.0909 6.63953C61.015 6.63953 70.6646 17.5975 70.6646 31.1093Z" fill="#F29B7E"/>
<path d="M57.2785 35.8049C58.3199 35.8049 59.1642 34.6938 59.1642 33.3232C59.1642 31.9526 58.3199 30.8416 57.2785 30.8416C56.2371 30.8416 55.3928 31.9526 55.3928 33.3232C55.3928 34.6938 56.2371 35.8049 57.2785 35.8049Z" fill="#341724"/>
<path d="M58.3354 32.3385C58.2905 32.2965 58.2626 32.2394 58.2573 32.1781C58.2519 32.1169 58.2695 32.0558 58.3065 32.0066C58.3434 31.9575 58.3973 31.9238 58.4577 31.912C58.518 31.9002 58.5806 31.9112 58.6334 31.9427C58.7079 31.9614 59.2876 32.0731 59.8789 31.4445C59.9243 31.3964 59.9869 31.3682 60.0531 31.3663C60.1192 31.3643 60.1834 31.3887 60.2316 31.4341C60.2797 31.4794 60.3079 31.5421 60.3099 31.6082C60.3118 31.6744 60.2874 31.7386 60.242 31.7868C60.0675 31.9887 59.8536 32.153 59.6135 32.2695C59.3733 32.386 59.1119 32.4522 58.8452 32.4642H58.822C58.6502 32.4792 58.4785 32.4348 58.3354 32.3385Z" fill="#341724"/>
<path d="M55.898 28.7976C55.9911 28.7696 58.226 28.1411 60.1466 30.7298C60.213 30.8189 60.2962 30.8941 60.3916 30.9511C60.487 31.008 60.5927 31.0456 60.7026 31.0617C60.8125 31.0778 60.9246 31.0721 61.0323 31.0449C61.14 31.0177 61.2413 30.9696 61.3304 30.9033C61.4195 30.8369 61.4947 30.7537 61.5517 30.6583C61.6086 30.5629 61.6462 30.4572 61.6623 30.3473C61.6784 30.2373 61.6727 30.1253 61.6455 30.0176C61.6183 29.9099 61.5702 29.8086 61.5039 29.7195C60.1257 27.857 58.5612 27.268 57.495 27.0934C56.7948 26.9661 56.0749 26.9971 55.3882 27.1842C55.3882 27.1842 54.3871 27.4543 54.6246 28.1713C54.89 28.9745 55.905 28.7952 55.905 28.7952L55.898 28.7976Z" fill="#341724"/>
<path d="M40.3118 35.919C41.3533 35.919 42.1975 34.8079 42.1975 33.4373C42.1975 32.0667 41.3533 30.9556 40.3118 30.9556C39.2704 30.9556 38.4261 32.0667 38.4261 33.4373C38.4261 34.8079 39.2704 35.919 40.3118 35.919Z" fill="#341724"/>
<path d="M38.7754 32.576H38.7522C38.4857 32.564 38.2245 32.498 37.9844 32.3819C37.7443 32.2658 37.5303 32.1022 37.3553 31.9008C37.329 31.8778 37.3077 31.8495 37.2928 31.8178C37.278 31.7861 37.27 31.7516 37.2692 31.7166C37.2685 31.6816 37.2751 31.6468 37.2886 31.6145C37.3021 31.5822 37.3221 31.553 37.3475 31.5289C37.3729 31.5048 37.4031 31.4863 37.4361 31.4745C37.4691 31.4628 37.5042 31.458 37.5391 31.4606C37.574 31.4632 37.608 31.473 37.6389 31.4895C37.6698 31.506 37.6969 31.5287 37.7185 31.5563C38.3098 32.1848 38.8825 32.0731 38.964 32.0568C39.0168 32.0252 39.0794 32.0143 39.1397 32.0261C39.2001 32.0378 39.254 32.0716 39.291 32.1207C39.328 32.1698 39.3455 32.2309 39.3401 32.2922C39.3348 32.3535 39.3069 32.4106 39.262 32.4526C39.1183 32.5472 38.9469 32.5906 38.7754 32.576Z" fill="#341724"/>
<path d="M41.6947 28.9116C41.5992 28.8837 39.3666 28.2528 37.4437 30.8439C37.3097 31.0239 37.1097 31.1433 36.8877 31.1758C36.6657 31.2083 36.4399 31.1513 36.2599 31.0173C36.0799 30.8834 35.9605 30.6834 35.928 30.4614C35.8955 30.2394 35.9525 30.0135 36.0865 29.8335C37.4646 27.9711 39.0291 27.3821 40.0953 27.2052C40.7965 27.0794 41.5167 27.1104 42.2045 27.296C42.2045 27.296 43.2032 27.5661 42.9657 28.2854C42.7004 29.0886 41.6853 28.907 41.6853 28.907L41.6947 28.9116Z" fill="#341724"/>
<path d="M45.0122 38.1189C45.0122 38.1189 46.9305 32.4223 48.453 32.5317C49.9755 32.6411 53.6422 39.865 53.6422 39.865L45.0122 38.1189Z" fill="#C47E65"/>
<path d="M70.6622 33.9705C70.6503 34.7929 70.5967 35.6142 70.5016 36.4312C70.2908 38.2299 69.9048 40.0037 69.3492 41.7274C69.2281 42.0999 69.1024 42.47 68.9674 42.8379C68.7719 43.378 68.5577 43.9158 68.3272 44.4442C68.1642 44.826 67.992 45.2055 67.8104 45.578C66.5593 48.1916 64.9213 50.6018 62.9518 52.7273C61.3634 54.4494 59.5208 55.9183 57.488 57.083C54.9294 58.566 52.0293 59.3586 49.0722 59.3831C46.8948 59.3749 44.7405 58.9366 42.733 58.0934C40.5256 57.1611 38.4935 55.8589 36.7244 54.2428C34.8071 52.4946 33.1484 50.4825 31.7983 48.2668C30.8235 46.6823 29.9981 45.0106 29.3329 43.2732C28.4903 41.0868 27.9226 38.8041 27.6428 36.4777C27.5706 35.8492 27.5194 35.2229 27.4938 34.5967C28.8906 36.2263 31.5678 38.7429 35.5301 39.5274C38.9825 40.2119 44.2346 36.4801 49.0093 36.5383C53.5792 36.5941 56.9735 40.0978 61.136 39.3598C64.4673 38.7685 67.1306 35.6536 70.6622 33.9705Z" fill="white"/>
<g opacity="0.12">
<path opacity="0.12" d="M25.0261 104.761H22.016C22.456 100.843 23.2592 94.0962 23.5781 94.0147C23.897 93.9332 24.5559 100.175 25.0261 104.761Z" fill="#010101"/>
</g>
<g opacity="0.12">
<path opacity="0.12" d="M83.464 104.761H80.6658L81.6203 94.0146L83.464 104.761Z" fill="#010101"/>
</g>
<path d="M70.4993 34.4198C58.6054 29.8266 48.6159 14.0333 48.6159 14.0333L48.5647 14.1195C40.4934 28.2203 27.1818 35.3533 27.1818 35.3533C27.0949 34.9622 27.0243 34.5656 26.97 34.1637C25.8921 26.5045 29.7636 16.9922 34.7968 11.0441C40.0977 4.78177 45.5685 5.85499 53.805 6.3625C62.0416 6.87001 68.9209 18.6591 70.334 23.8482C71.7471 29.0374 70.4993 34.4198 70.4993 34.4198Z" fill="#362B39"/>
<g opacity="0.12">
<path opacity="0.12" d="M48.5717 14.1195C40.5005 28.2203 27.1889 35.3533 27.1889 35.3533C27.102 34.9622 27.0314 34.5657 26.9771 34.1637C28.2481 32.9764 38.7498 23.0544 43.0404 15.2183C45.0238 11.5912 46.9864 12.2338 48.5717 14.1195Z" fill="#010101"/>
</g>
<path d="M34.7131 45.8806C34.8644 46.034 34.98 46.219 35.0518 46.4222C35.1235 46.6254 35.1496 46.842 35.1281 47.0564C35.1067 47.2709 35.0382 47.478 34.9276 47.6629C34.8171 47.8479 34.6671 48.0063 34.4883 48.1267C34.3096 48.2471 34.1065 48.3267 33.8935 48.3597C33.6806 48.3928 33.4629 48.3784 33.2561 48.3178C33.0493 48.2572 32.8584 48.1517 32.697 48.0089C32.5355 47.8661 32.4076 47.6894 32.3222 47.4916C32.2346 47.7979 32.051 48.068 31.7984 48.2621C30.8238 46.6791 29.9985 45.0089 29.333 43.2732C29.5279 43.1631 29.7453 43.0987 29.9687 43.085C30.1922 43.0713 30.4158 43.1086 30.6227 43.194C30.6301 42.8051 30.7918 42.435 31.0721 42.1652C31.3523 41.8953 31.7283 41.7479 32.1173 41.7553C32.5063 41.7627 32.8764 41.9244 33.1462 42.2047C33.416 42.4849 33.5634 42.8609 33.556 43.2499C33.556 43.2616 33.556 43.2709 33.556 43.2802C33.7315 43.1437 33.9357 43.0489 34.1532 43.0029C34.3707 42.9569 34.5958 42.9609 34.8115 43.0147C35.0272 43.0685 35.2278 43.1706 35.3982 43.3133C35.5687 43.4561 35.7044 43.6357 35.7953 43.8386C35.8861 44.0415 35.9296 44.2624 35.9225 44.4845C35.9154 44.7067 35.8579 44.9244 35.7544 45.1211C35.6508 45.3178 35.5038 45.4884 35.3247 45.62C35.1455 45.7515 34.9387 45.8407 34.72 45.8806H34.7131Z" fill="#F26959"/>
<path d="M42.7773 55.9772C42.9174 56.1169 43.0277 56.2835 43.1017 56.4669C43.1756 56.6504 43.2115 56.847 43.2074 57.0447C43.2033 57.2425 43.1591 57.4374 43.0776 57.6176C42.9961 57.7978 42.8789 57.9597 42.7331 58.0934C40.5257 57.1611 38.4937 55.8589 36.7245 54.2428C36.7842 54.0463 36.8844 53.8644 37.0187 53.7089C37.1529 53.5535 37.3182 53.4278 37.504 53.3401C37.6897 53.2524 37.8918 53.2045 38.0971 53.1996C38.3025 53.1947 38.5066 53.2329 38.6963 53.3116C38.7169 52.9321 38.8839 52.5753 39.1623 52.3166C39.4408 52.0578 39.8088 51.9172 40.1888 51.9245C40.5688 51.9317 40.9312 52.0862 41.1995 52.3554C41.4679 52.6246 41.6212 52.9874 41.6273 53.3675V53.3977C41.8031 53.26 42.0079 53.1642 42.2263 53.1177C42.4447 53.0712 42.6709 53.0751 42.8875 53.1293C43.1041 53.1834 43.3055 53.2863 43.4764 53.4301C43.6472 53.5738 43.783 53.7547 43.8733 53.959C43.9636 54.1632 44.0061 54.3853 43.9975 54.6084C43.9889 54.8316 43.9295 55.0498 43.8238 55.2465C43.7181 55.4432 43.5689 55.6131 43.3875 55.7434C43.2062 55.8736 42.9975 55.9608 42.7773 55.9981V55.9772Z" fill="#F26959"/>
<path d="M46.4229 44.7748C46.4246 44.4992 46.3485 44.2287 46.2034 43.9944C46.0584 43.76 45.8503 43.5713 45.6029 43.4498C45.3555 43.3283 45.0789 43.279 44.8048 43.3074C44.5307 43.3359 44.2701 43.441 44.053 43.6108V43.5805C44.047 43.2004 43.8936 42.8376 43.6253 42.5684C43.3569 42.2992 42.9945 42.1447 42.6145 42.1375C42.2345 42.1302 41.8665 42.2708 41.5881 42.5296C41.3097 42.7883 41.1426 43.1451 41.1221 43.5246C40.9431 43.4487 40.7507 43.4099 40.5563 43.4106C40.1794 43.4096 39.8166 43.5538 39.5432 43.8132C39.2697 44.0726 39.1066 44.4273 39.0878 44.8038C39.0689 45.1802 39.1957 45.5495 39.4418 45.8349C39.688 46.1204 40.0346 46.3001 40.4097 46.3369C40.243 46.4904 40.1141 46.6805 40.0333 46.8922C39.9524 47.1039 39.9217 47.3315 39.9435 47.5571C39.9654 47.7826 40.0392 48.0001 40.1592 48.1923C40.2793 48.3846 40.4422 48.5464 40.6353 48.6651C40.8284 48.7838 41.0463 48.8561 41.272 48.8764C41.4977 48.8967 41.7251 48.8644 41.9362 48.782C42.1474 48.6997 42.3366 48.5695 42.489 48.4018C42.6413 48.234 42.7528 48.0332 42.8145 47.8152C42.8985 48.0147 43.0257 48.1933 43.1868 48.3379C43.348 48.4825 43.5392 48.5896 43.7467 48.6516C43.9541 48.7135 44.1728 48.7288 44.3868 48.6962C44.6009 48.6637 44.8051 48.5841 44.9848 48.4633C45.1645 48.3425 45.3152 48.1833 45.4261 47.9973C45.537 47.8113 45.6053 47.6031 45.6262 47.3876C45.647 47.1721 45.6199 46.9546 45.5468 46.7508C45.4736 46.547 45.3562 46.3619 45.2031 46.2088C45.5424 46.1509 45.8505 45.9755 46.0735 45.7134C46.2965 45.4512 46.4202 45.1189 46.4229 44.7748Z" fill="#F26959"/>
<path d="M57.4205 40.8264C57.4212 40.5512 57.3445 40.2814 57.1993 40.0476C57.0541 39.8138 56.8461 39.6255 56.5991 39.5042C56.3521 39.3828 56.0759 39.3333 55.8021 39.3613C55.5283 39.3893 55.2679 39.4936 55.0505 39.6624C55.0505 39.6624 55.0505 39.6438 55.0505 39.6345C55.058 39.2455 54.9105 38.8695 54.6407 38.5892C54.3709 38.309 54.0008 38.1473 53.6118 38.1399C53.2229 38.1325 52.8469 38.2799 52.5666 38.5497C52.2863 38.8195 52.1247 39.1896 52.1172 39.5786C51.9392 39.5025 51.7475 39.4636 51.5539 39.4646C51.1767 39.463 50.8135 39.6067 50.5396 39.866C50.2657 40.1252 50.1021 40.48 50.083 40.8566C50.0638 41.2333 50.1904 41.6028 50.4366 41.8885C50.6828 42.1742 51.0295 42.3541 51.4049 42.3909C51.2379 42.5444 51.1088 42.7346 51.0278 42.9464C50.9468 43.1583 50.916 43.386 50.9378 43.6118C50.9597 43.8376 51.0336 44.0552 51.1538 44.2476C51.274 44.4399 51.4372 44.6018 51.6305 44.7204C51.8238 44.8391 52.042 44.9113 52.2679 44.9313C52.4939 44.9514 52.7214 44.9188 52.9326 44.8361C53.1438 44.7533 53.3329 44.6228 53.4851 44.4546C53.6373 44.2864 53.7484 44.0852 53.8097 43.8668C53.8937 44.0663 54.0207 44.2447 54.1817 44.3893C54.3427 44.5338 54.5338 44.641 54.7411 44.703C54.9484 44.7651 55.1669 44.7804 55.3808 44.7481C55.5948 44.7157 55.7989 44.6364 55.9786 44.5159C56.1583 44.3953 56.3091 44.2365 56.4202 44.0508C56.5313 43.8651 56.5999 43.6571 56.6211 43.4417C56.6423 43.2264 56.6156 43.009 56.5429 42.8052C56.4702 42.6013 56.3533 42.4161 56.2006 42.2628C56.5405 42.2053 56.8491 42.0297 57.0723 41.7669C57.2954 41.5042 57.4187 41.1712 57.4205 40.8264Z" fill="#F26959"/>
<path d="M68.2504 43.1382C68.252 42.8626 68.176 42.5921 68.0309 42.3578C67.8859 42.1234 67.6778 41.9347 67.4304 41.8132C67.183 41.6917 66.9064 41.6424 66.6323 41.6708C66.3582 41.6993 66.0976 41.8044 65.8805 41.9742C65.8805 41.9742 65.8805 41.9532 65.8805 41.9439C65.8879 41.5549 65.7405 41.1789 65.4707 40.8986C65.2009 40.6183 64.8308 40.4567 64.4418 40.4493C64.0528 40.4419 63.6768 40.5893 63.3965 40.8591C63.1162 41.1289 62.9546 41.499 62.9472 41.888C62.7526 41.8066 62.5428 41.768 62.332 41.7751C62.1212 41.7821 61.9143 41.8345 61.7256 41.9287C61.5369 42.023 61.3707 42.1568 61.2385 42.3211C61.1062 42.4854 61.0109 42.6763 60.9591 42.8807C60.9073 43.0852 60.9002 43.2985 60.9383 43.5059C60.9764 43.7134 61.0589 43.9102 61.18 44.0829C61.3011 44.2556 61.458 44.4002 61.64 44.5067C61.8221 44.6132 62.025 44.6793 62.2348 44.7003C62.0681 44.8538 61.9393 45.0439 61.8584 45.2556C61.7775 45.4673 61.7468 45.6949 61.7687 45.9205C61.7905 46.146 61.8644 46.3635 61.9844 46.5557C62.1044 46.748 62.2674 46.9098 62.4604 47.0285C62.6535 47.1471 62.8715 47.2195 63.0972 47.2398C63.3229 47.2601 63.5503 47.2278 63.7614 47.1454C63.9726 47.0631 64.1617 46.9329 64.3141 46.7651C64.4665 46.5974 64.5779 46.3966 64.6397 46.1785C64.7236 46.378 64.8507 46.5564 65.0117 46.701C65.1727 46.8455 65.3637 46.9527 65.571 47.0147C65.7783 47.0768 65.9968 47.0922 66.2108 47.0598C66.4248 47.0274 66.6289 46.9481 66.8086 46.8276C66.9883 46.707 67.1391 46.5482 67.2502 46.3625C67.3613 46.1768 67.4299 45.9688 67.4511 45.7534C67.4723 45.5381 67.4456 45.3207 67.3729 45.1169C67.3002 44.9131 67.1833 44.7278 67.0306 44.5745C67.3702 44.5166 67.6787 44.3408 67.9017 44.0782C68.1248 43.8155 68.2482 43.4827 68.2504 43.1382Z" fill="#F26959"/>
<path d="M57.4787 52.1057C57.4803 51.8301 57.4042 51.5596 57.2592 51.3253C57.1141 51.0909 56.906 50.9022 56.6586 50.7807C56.4113 50.6592 56.1347 50.6099 55.8606 50.6383C55.5864 50.6668 55.3259 50.7719 55.1088 50.9417V50.9137C55.1032 50.5336 54.9502 50.1704 54.682 49.9009C54.4139 49.6313 54.0515 49.4765 53.6714 49.4689C53.2913 49.4614 52.9231 49.6017 52.6444 49.8604C52.3658 50.1191 52.1985 50.4759 52.1778 50.8555C51.9834 50.7754 51.774 50.738 51.5639 50.7459C51.3538 50.7538 51.1478 50.8067 50.9599 50.9012C50.7721 50.9957 50.6067 51.1294 50.4751 51.2934C50.3435 51.4574 50.2487 51.6478 50.1971 51.8516C50.1455 52.0555 50.1383 52.268 50.1761 52.4749C50.2138 52.6818 50.2956 52.8781 50.4159 53.0506C50.5362 53.223 50.6922 53.3676 50.8733 53.4745C51.0544 53.5814 51.2563 53.6481 51.4654 53.6701C51.2978 53.8234 51.1681 54.0135 51.0864 54.2254C51.0048 54.4374 50.9735 54.6654 50.995 54.8915C51.0165 55.1176 51.0903 55.3356 51.2104 55.5284C51.3306 55.7211 51.4938 55.8833 51.6874 56.0022C51.8809 56.1211 52.0994 56.1934 52.3256 56.2135C52.5519 56.2335 52.7797 56.2008 52.9911 56.1177C53.2025 56.0347 53.3917 55.9038 53.5439 55.7351C53.6961 55.5665 53.807 55.3649 53.8679 55.1461C53.9514 55.346 54.0781 55.525 54.239 55.6702C54.3999 55.8153 54.5909 55.923 54.7984 55.9855C55.0059 56.048 55.2246 56.0637 55.4389 56.0316C55.6532 55.9995 55.8577 55.9203 56.0377 55.7997C56.2177 55.6791 56.3688 55.5201 56.4801 55.3341C56.5913 55.1482 56.66 54.9399 56.6811 54.7243C56.7022 54.5086 56.6753 54.291 56.6023 54.087C56.5293 53.8829 56.412 53.6977 56.2588 53.5444C56.5989 53.4864 56.9076 53.3103 57.1307 53.0472C57.3538 52.784 57.477 52.4507 57.4787 52.1057Z" fill="#F26959"/>
<g opacity="0.12">
<path opacity="0.12" d="M59.9021 43.7667C59.9021 43.7667 48.5088 46.416 38.9197 45.0634C38.9197 45.0564 46.8745 50.0757 59.9021 43.7667Z" fill="#010101"/>
</g>
</svg>
