<svg width="100" height="109" viewBox="0 0 100 109" fill="none" xmlns="http://www.w3.org/2000/svg">
<path d="M34.4703 95.7647C34.4703 95.7647 17.4528 80.683 21.2226 73.7015C24.9925 66.7199 29.7325 66.5694 32.5344 61.9821C35.3363 57.3949 42.6745 58.9255 42.6745 58.9255L40.6877 86.7453L34.4703 95.7647Z" fill="#4C4A89"/>
<path d="M66.6366 92.8077C66.6366 92.8077 83.6541 77.7261 79.8843 70.7468C76.1144 63.7675 71.1706 65.2449 68.3687 60.6692C65.5668 56.0936 58.4324 55.9824 58.4324 55.9824L60.4215 83.8023L66.6366 92.8077Z" fill="#4C4A89"/>
<path d="M32.8818 71.9694C32.8818 71.9694 33.4422 64.8349 43.4295 63.1538C53.4167 61.4727 67.2804 64.6821 69.0078 72.5807C70.7353 80.4792 49.2371 82.2113 48.9314 82.1094C48.6257 82.0076 32.8818 71.9694 32.8818 71.9694Z" fill="#43447B"/>
<path d="M99.9792 108.23H0.0208406C0 107.595 0 106.982 0 106.361C0 106.28 0 106.199 0 106.129C0 106.06 0 105.942 0 105.847C0 105.752 0 105.643 0 105.544C0 105.483 0 105.425 0 105.368C0 105.31 0 105.243 0 105.18C0 105.076 0 104.972 0.0115781 104.867C0.0231562 104.763 0.0115781 104.661 0.0254718 104.557C0.0393655 104.453 0.0254718 104.411 0.0254718 104.337L0.0393655 104.085C0.0393655 104.02 0.0393655 103.955 0.0393655 103.89L0.0532592 103.675C0.0532592 103.642 0.0532592 103.612 0.0532592 103.582L0.0671529 103.402C0.0671529 103.341 0.0717842 103.281 0.0810467 103.221C0.0810467 103.196 0.0810467 103.168 0.0810467 103.142L0.101887 102.89L0.122728 102.642L0.143568 102.411L0.164409 102.202C0.164409 102.128 0.180618 102.054 0.187565 101.971C0.194512 101.887 0.201459 101.832 0.210721 101.762C0.226931 101.6 0.245456 101.438 0.266296 101.278C0.266296 101.216 0.282505 101.153 0.289452 101.093L0.310293 100.929C0.310293 100.838 0.333449 100.748 0.347343 100.658C0.361237 100.567 0.377446 100.438 0.393655 100.329C0.405233 100.259 0.414496 100.188 0.426074 100.118C0.481649 99.7545 0.541855 99.3933 0.606692 99.039C0.63448 98.8839 0.664583 98.731 0.694686 98.5759C0.693738 98.5659 0.693738 98.5558 0.694686 98.5458C0.708579 98.4832 0.720157 98.4184 0.734051 98.3559C0.754892 98.2494 0.775732 98.1429 0.798889 98.0386C0.812782 97.9808 0.82436 97.9229 0.835938 97.865L0.933194 97.4296C0.951719 97.3555 0.967929 97.2814 0.986454 97.1981L1.04898 96.9434C1.06518 96.8739 1.08371 96.8044 1.09992 96.735L1.12771 96.6307C1.14392 96.5659 1.16013 96.5011 1.17865 96.4386C1.19717 96.376 1.21802 96.2857 1.23886 96.207L1.38937 95.9152C1.41021 95.8458 1.42874 95.774 1.44958 95.7022L1.50052 95.5331C1.50052 95.4892 1.52599 95.4475 1.53757 95.4035L1.56536 95.3155L1.62093 95.1349C1.64409 95.0561 1.66725 94.9797 1.69272 94.9033C1.71819 94.8269 1.75292 94.7134 1.78534 94.6185L1.84092 94.4471C1.88723 94.3082 1.93586 94.1692 1.98449 94.0326L2.04006 93.8752C2.27162 93.2499 2.50318 92.6433 2.7579 92.0551C2.78106 92.0041 2.80421 91.9532 2.82505 91.8999C2.92463 91.6684 3.02651 91.453 3.13072 91.2354L3.21639 91.0547L3.34144 90.7977L3.42248 90.6356L3.52206 90.4388L3.62394 90.242C3.65868 90.1771 3.6911 90.1123 3.72583 90.0498L3.83003 89.8576C3.93655 89.6561 4.0477 89.4593 4.16117 89.2648L4.25379 89.1027L4.47378 88.7345C4.73081 88.3107 4.99942 87.8962 5.27498 87.4933C5.29814 87.4563 5.32361 87.4215 5.34908 87.3845C5.6038 87.0163 5.86778 86.6574 6.13639 86.3054L6.23596 86.178C6.35174 86.0298 6.46752 85.8793 6.59025 85.7334C6.62035 85.6964 6.65046 85.657 6.68288 85.62C6.86813 85.3884 7.05801 85.1708 7.2502 84.9508L7.37293 84.8141C7.60449 84.5478 7.85226 84.2862 8.09772 84.0315L8.37328 83.7466C8.62954 83.4873 8.89043 83.2341 9.15596 82.9871L9.26248 82.8991L9.41299 82.7625C9.87611 82.3364 10.3508 81.9304 10.8371 81.5445L10.9876 81.4241L11.1404 81.3037L11.291 81.1879L11.7541 80.8405L12.0366 80.6321L12.0644 80.6113L12.3214 80.4284L12.6062 80.2292L12.8748 80.044L13.2013 79.824L13.4723 79.648L13.7316 79.4813L14.0558 79.2775C14.3267 79.1085 14.6 78.9441 14.8732 78.7843L15.0284 78.694C15.4158 78.4593 15.8095 78.2401 16.2093 78.0363L16.3784 77.946L16.5497 77.858C16.8415 77.7029 17.1356 77.5547 17.432 77.4088L17.6334 77.3115L18.085 77.0939L18.2563 77.0128L18.8931 76.7211L19.1247 76.6145L19.2752 76.5474L19.4466 76.4733C19.6087 76.4015 19.7708 76.3344 19.9352 76.2649C20.3983 76.0704 20.8475 75.8874 21.3014 75.7091C21.5931 75.5934 21.8849 75.4776 22.1767 75.3734L23.0196 75.0654L23.397 74.9311L24.0662 74.6995L24.3904 74.5907C25.2217 74.3105 26.0368 74.0512 26.8311 73.8057L27.2757 73.6691L28.2297 73.3796L28.4821 73.3055L29.5357 72.9929L29.7673 72.9281L29.9734 72.8656L30.2466 72.7845C31.1173 72.5275 31.9416 72.2797 32.7035 72.0366L32.8887 71.9764C33.1666 71.886 33.4352 71.7981 33.6969 71.7077C34.1754 71.541 34.6216 71.3735 35.0353 71.2053C35.2877 71.1011 35.5262 70.9969 35.7508 70.8903C35.8597 70.8371 35.9662 70.7861 36.0681 70.7329L36.207 70.6588C36.9358 70.2693 37.6011 69.7712 38.1799 69.1814C39.8263 67.5003 40.5395 65.2657 40.7572 63.0288C40.9063 61.2563 40.8285 59.4719 40.5256 57.7191C40.3238 56.4511 40.0234 55.2007 39.6272 53.9794H60.3913C60.3913 53.9794 58.4184 59.648 59.5045 64.6312C59.8703 66.3124 60.5859 67.9148 61.8432 69.193C62.4577 69.8155 63.1675 70.3361 63.9458 70.7352L64.0292 70.7769L64.1866 70.8556C64.3464 70.932 64.5108 71.0084 64.6845 71.0872C65.1893 71.3071 65.7543 71.5202 66.3703 71.7309C67.1784 72.0088 68.0746 72.2867 69.0402 72.5761L69.2995 72.6525L69.6631 72.7614L70.2281 72.9281L71.9046 73.4259L72.12 73.4908C72.3353 73.5556 72.5553 73.6205 72.7753 73.6899L73.4399 73.8937L73.6714 73.9632L73.903 74.0349L74.3661 74.1785L74.5977 74.2526L75.2923 74.4842L75.5239 74.5606L75.987 74.7181L76.6493 74.9496L76.9411 75.0538L77.2745 75.1742L77.4876 75.2506L77.6566 75.3132C78.0364 75.4552 78.4223 75.6011 78.8144 75.7508L79.046 75.8411L79.0807 75.855L79.3655 75.9685C79.743 76.1213 80.1227 76.2788 80.5002 76.4432L80.5604 76.4687L80.8197 76.5821L81.1393 76.7234L81.6557 76.9549L81.7877 77.0175C82.003 77.117 82.2184 77.2189 82.4337 77.3254C82.5333 77.3717 82.6305 77.4204 82.7301 77.4713L83.2372 77.726L83.397 77.8094L83.5591 77.8928L83.7189 77.9761C83.9852 78.1174 84.2515 78.2609 84.5155 78.4115L84.6752 78.4995L84.8327 78.5898L84.9925 78.6801L85.1615 78.7796L85.3097 78.8653L85.4996 78.9788L85.9372 79.2451L86.0947 79.3423L86.405 79.5392L86.5601 79.6411L86.7153 79.7406L86.8704 79.8425L87.0256 79.9467L87.1784 80.0509L87.3336 80.1551L87.6392 80.3682L87.9426 80.5835L88.2459 80.8035L88.5446 81.0351C88.6951 81.1485 88.8433 81.2666 88.9915 81.3801L89.1398 81.4982C89.3852 81.6927 89.6307 81.8942 89.8715 82.1002C89.9687 82.1813 90.0637 82.2623 90.1586 82.348L90.3045 82.4731L90.3323 82.4985L90.5893 82.7301L90.7977 82.9246C90.8695 82.9894 90.9413 83.0543 91.0108 83.1214L91.0524 83.1608L91.2377 83.3368L91.2886 83.3877L91.4785 83.573L91.4947 83.5915C91.5642 83.6587 91.6337 83.7258 91.7008 83.7953L91.7356 83.83C91.7934 83.8902 91.8537 83.9504 91.9115 84.0129L92.1431 84.263L92.3886 84.527L92.4974 84.6451L92.6271 84.791L92.7591 84.9369L92.9003 85.099C92.9814 85.1939 93.0647 85.2888 93.1458 85.3861L93.2569 85.5204C93.3542 85.6362 93.4491 85.752 93.5441 85.8701L93.6506 86.0021C93.6923 86.053 93.7339 86.1063 93.7733 86.1595C93.852 86.2591 93.9308 86.3587 94.0049 86.4606L94.1461 86.6504L94.2573 86.801C94.2897 86.8449 94.3221 86.8866 94.3522 86.9306C94.573 87.2394 94.7868 87.5481 94.9936 87.8569L95.1233 88.0537L95.2345 88.2251L95.3803 88.4566C95.4104 88.5052 95.4382 88.5539 95.4683 88.6002C95.6984 88.9707 95.9199 89.3504 96.1329 89.7395L96.2325 89.9201C96.2695 89.9919 96.3089 90.0637 96.3483 90.1354L96.4617 90.3554C96.6632 90.7421 96.8554 91.1358 97.043 91.541L97.2097 91.9115C97.3208 92.1616 97.4273 92.414 97.5316 92.671L97.5871 92.8053C97.608 92.8563 97.6288 92.9072 97.6473 92.9582C97.6659 93.0091 97.6913 93.067 97.7122 93.1203C97.7739 93.2747 97.8341 93.4344 97.8928 93.5996C97.9206 93.6691 97.946 93.7385 97.9692 93.808C98.105 94.1847 98.2355 94.5706 98.3605 94.9658L98.4161 95.1488L98.4786 95.3502C98.5087 95.4498 98.5388 95.5494 98.5666 95.6489L98.6222 95.8365L98.6708 96.0078L98.7056 96.1329C98.8291 96.5806 98.9441 97.036 99.0506 97.4991L99.1062 97.7446C99.1548 97.9576 99.1988 98.173 99.2428 98.3906L99.2775 98.5643C99.2775 98.5944 99.2914 98.6268 99.2961 98.6592L99.3308 98.826C99.3308 98.8931 99.3563 98.9603 99.3678 99.0297C99.3794 99.0992 99.3933 99.1733 99.4072 99.2474C99.4211 99.3215 99.4373 99.4164 99.4512 99.5021C99.5207 99.9143 99.5847 100.332 99.6434 100.755L99.6712 100.952C99.6967 101.144 99.7198 101.338 99.743 101.535C99.743 101.6 99.7592 101.667 99.7661 101.732L99.8009 102.061C99.8009 102.123 99.8148 102.184 99.8194 102.244C99.8194 102.244 99.8194 102.265 99.8194 102.274L99.8402 102.505C99.8958 103.105 99.9421 103.719 99.9722 104.344V104.492C99.9722 104.566 99.9722 104.64 99.9838 104.724C99.9954 104.807 99.9838 104.904 99.9838 104.992C99.9849 105.007 99.9849 105.022 99.9838 105.036V105.231C99.9838 105.296 99.9838 105.361 99.9838 105.428C99.9838 105.495 99.9838 105.592 99.9838 105.676C99.9838 105.708 99.9838 105.743 99.9838 105.775C99.9838 105.842 99.9838 105.909 99.9838 105.979C100.005 106.676 100 107.445 99.9792 108.23Z" fill="#BE6D57"/>
<path d="M99.9792 108.23H0.0208406C0 107.595 0 106.982 0 106.361C0 106.28 0 106.199 0 106.129C0 106.06 0 105.942 0 105.847C0 105.752 0 105.643 0 105.544C0 105.483 0 105.425 0 105.368C0 105.31 0 105.243 0 105.18C0 105.076 0 104.972 0.0115781 104.867C0.0231562 104.763 0.0115781 104.661 0.0254718 104.557C0.0393655 104.453 0.0254718 104.411 0.0254718 104.337L0.0393655 104.085C0.0393655 104.02 0.0393655 103.955 0.0393655 103.89L0.0532592 103.675C0.0532592 103.642 0.0532592 103.612 0.0532592 103.582L0.0671529 103.402C0.0671529 103.341 0.0717842 103.281 0.0810467 103.221C0.0810467 103.196 0.0810467 103.168 0.0810467 103.142L0.101887 102.89L0.122728 102.642L0.143568 102.411L0.164409 102.202C0.164409 102.128 0.180618 102.054 0.187565 101.971C0.194512 101.887 0.201459 101.832 0.210721 101.762C0.226931 101.6 0.245456 101.438 0.266296 101.278C0.266296 101.216 0.282505 101.153 0.289452 101.093L0.310293 100.929C0.310293 100.838 0.333449 100.748 0.347343 100.658C0.361237 100.567 0.377446 100.438 0.393655 100.329C0.405233 100.259 0.414496 100.188 0.426074 100.118C0.481649 99.7545 0.541855 99.3933 0.606692 99.039C0.63448 98.8838 0.664583 98.731 0.694686 98.5758C0.693738 98.5658 0.693738 98.5558 0.694686 98.5457C0.708579 98.4832 0.720157 98.4184 0.734051 98.3559C0.754892 98.2493 0.775732 98.1428 0.798889 98.0386C0.812782 97.9807 0.82436 97.9228 0.835938 97.8649L0.933194 97.4296C0.951719 97.3555 0.967929 97.2814 0.986454 97.198L1.04898 96.9433C1.06518 96.8739 1.08371 96.8044 1.09992 96.7349L1.12771 96.6307C1.14392 96.5659 1.16013 96.501 1.17865 96.4385C1.19717 96.376 1.21802 96.2857 1.23886 96.207L1.38937 95.9152C1.41021 95.8457 1.42874 95.7739 1.44958 95.7022L1.50052 95.5331C1.50052 95.4891 1.52599 95.4474 1.53757 95.4034L1.56536 95.3154L1.62093 95.1348C1.64409 95.0561 1.66725 94.9797 1.69272 94.9033C1.71819 94.8269 1.75292 94.7134 1.78534 94.6184L1.84092 94.4471C1.88723 94.3082 1.93586 94.1692 1.98449 94.0326L2.04006 93.8751C2.27162 93.2499 2.50318 92.6432 2.7579 92.0551C2.78106 92.0041 2.80421 91.9532 2.82505 91.8999C2.92463 91.6683 3.02651 91.453 3.13072 91.2353L3.21639 91.0547L3.34144 90.7977L3.42248 90.6356L3.52206 90.4388L3.62394 90.2419C3.65868 90.1771 3.6911 90.1123 3.72583 90.0497L3.83003 89.8575C3.93655 89.6561 4.0477 89.4592 4.16117 89.2647L4.25379 89.1026L4.47378 88.7345C4.73081 88.3107 4.99942 87.8962 5.27498 87.4933C5.29814 87.4562 5.32361 87.4215 5.34908 87.3845C5.6038 87.0163 5.86778 86.6573 6.13639 86.3054L6.23596 86.178C6.35174 86.0298 6.46752 85.8793 6.59025 85.7334C6.62035 85.6964 6.65046 85.657 6.68288 85.62C6.86813 85.3884 7.05801 85.1707 7.2502 84.9507L7.37293 84.8141C7.60449 84.5478 7.85226 84.2862 8.09772 84.0314L8.37328 83.7466C8.62954 83.4873 8.89043 83.2341 9.15596 82.9871L9.26248 82.8991L9.41299 82.7625C9.87611 82.3364 10.3508 81.9304 10.8371 81.5445L10.9876 81.424L11.1404 81.3036L11.291 81.1879L11.7541 80.8405L12.0366 80.6321L12.0644 80.6113L12.3214 80.4283L12.6062 80.2292L12.8748 80.0439L13.2013 79.824L13.4723 79.648L13.7316 79.4812L14.0558 79.2775C14.3267 79.1084 14.6 78.944 14.8732 78.7842L15.0284 78.6939C15.4158 78.4593 15.8095 78.2401 16.2093 78.0363L16.3784 77.946L16.5497 77.858C16.8415 77.7029 17.1356 77.5547 17.432 77.4088L17.6334 77.3115L18.085 77.0938L18.2563 77.0128L18.8931 76.721L19.1247 76.6145L19.2752 76.5474L19.4466 76.4733C19.6087 76.4015 19.7708 76.3343 19.9352 76.2648C20.3983 76.0703 20.8475 75.8874 21.3014 75.7091C21.5931 75.5933 21.8849 75.4775 22.1767 75.3733C22.4684 75.2691 22.7394 75.1649 23.0196 75.0654L23.397 74.9311L24.0662 74.6995L24.3904 74.5907C25.2217 74.3105 26.0368 74.0511 26.8311 73.8057L27.2757 73.669L28.2297 73.3796L28.4821 73.3055L29.5357 72.9929L29.7673 72.928L29.9734 72.8655L30.2466 72.7845C31.1173 72.5274 31.9416 72.2797 32.7035 72.0365L32.8887 71.9763C33.1828 72.2472 33.5834 72.583 34.0697 72.9581C38.0665 75.9893 48.709 81.4657 67.1321 73.4352C67.7496 73.1619 68.3841 72.8732 69.0355 72.5691L69.2949 72.6455L69.6584 72.7544L70.2235 72.9211L71.9 73.419L72.1153 73.4838L72.7706 73.6829L73.4352 73.8867L73.6668 73.9562L73.8983 74.028L74.3615 74.1715L74.593 74.2456L75.2877 74.4772L75.5193 74.5536L75.9824 74.7111L76.6447 74.9426L76.9364 75.0468L77.2699 75.1672L77.4829 75.2437L77.652 75.3062C78.0317 75.4482 78.4177 75.5941 78.8098 75.7438L79.0413 75.8341L79.0761 75.848L79.3609 75.9615C79.7383 76.1143 80.1181 76.2718 80.4955 76.4362L80.5557 76.4617L80.8151 76.5751L81.1347 76.7164L81.651 76.948L81.783 77.0105C81.9984 77.1101 82.2137 77.2119 82.4291 77.3185C82.5287 77.3648 82.6259 77.4134 82.7255 77.4643L83.2326 77.7191L83.3924 77.8024L83.5545 77.8858L83.7142 77.9691C83.9805 78.1104 84.2468 78.254 84.5108 78.4045L84.6706 78.4925L84.8281 78.5828L84.9878 78.6731L85.1569 78.7727L85.3051 78.8583L85.495 78.9718L85.9326 79.2381L86.0901 79.3354L86.4004 79.5322L86.5555 79.6341L86.7107 79.7336L86.8658 79.8355L87.021 79.9397L87.1738 80.0439L87.3289 80.1481L87.6346 80.3612L87.9379 80.5765L88.2413 80.7965L88.54 81.0281C88.6905 81.1415 88.8387 81.2596 88.9869 81.3731L89.1351 81.4912C89.3806 81.6857 89.626 81.8872 89.8669 82.0933C89.9641 82.1743 90.059 82.2554 90.154 82.341L90.2999 82.4661L90.3277 82.4915L90.5847 82.7231L90.7931 82.9176C90.8649 82.9825 90.9367 83.0473 91.0061 83.1144L91.0478 83.1538L91.2331 83.3298L91.284 83.3807L91.4739 83.566L91.4901 83.5845C91.5596 83.6517 91.629 83.7188 91.6962 83.7883L91.7309 83.823C91.7888 83.8832 91.849 83.9434 91.9069 84.006L92.1385 84.256L92.3839 84.52L92.4928 84.6381L92.6224 84.784L92.7544 84.9299L92.8957 85.092C92.9767 85.1869 93.0601 85.2819 93.1411 85.3791L93.2523 85.5134C93.3495 85.6292 93.4445 85.745 93.5394 85.8631L93.6459 85.9951C93.6876 86.046 93.7293 86.0993 93.7687 86.1525C93.8474 86.2521 93.9261 86.3517 94.0002 86.4536L94.1415 86.6435L94.2526 86.794C94.2851 86.838 94.3175 86.8796 94.3476 86.9236C94.5683 87.2324 94.7821 87.5411 94.989 87.8499L95.1187 88.0467L95.2298 88.2181L95.3757 88.4496C95.4058 88.4983 95.4336 88.5469 95.4637 88.5932C95.6937 88.9637 95.9152 89.3435 96.1283 89.7325L96.2279 89.9131C96.2649 89.9849 96.3043 90.0567 96.3436 90.1285L96.4571 90.3484C96.6586 90.7352 96.8508 91.1288 97.0383 91.534L97.205 91.9045C97.3162 92.1546 97.4227 92.407 97.5269 92.6641L97.5825 92.7984C97.6033 92.8493 97.6242 92.9003 97.6427 92.9512C97.6612 93.0021 97.6867 93.06 97.7075 93.1133C97.7693 93.2677 97.8295 93.4274 97.8882 93.5926C97.9159 93.6621 97.9414 93.7316 97.9646 93.801C98.1004 94.1777 98.2309 94.5636 98.3559 94.9588L98.4115 95.1418L98.474 95.3432C98.5041 95.4428 98.5342 95.5424 98.562 95.642L98.6176 95.8295L98.6662 96.0009L98.7009 96.1259C98.8244 96.5736 98.9394 97.029 99.046 97.4921L99.1015 97.7376C99.1502 97.9506 99.1942 98.166 99.2382 98.3836L99.2729 98.5573C99.2729 98.5874 99.2868 98.6198 99.2914 98.6523L99.3262 98.819C99.3262 98.8861 99.3516 98.9533 99.3632 99.0228C99.3748 99.0922 99.3887 99.1663 99.4026 99.2404C99.4165 99.3145 99.4327 99.4095 99.4466 99.4951C99.516 99.9073 99.5801 100.325 99.6388 100.748L99.6666 100.945C99.692 101.137 99.7152 101.331 99.7383 101.528C99.7383 101.593 99.7545 101.66 99.7615 101.725L99.7962 102.054C99.7962 102.116 99.8101 102.177 99.8147 102.237C99.8147 102.237 99.8147 102.258 99.8147 102.267L99.8356 102.499C99.8912 103.098 99.9375 103.712 99.9676 104.337V104.485C99.9676 104.559 99.9676 104.634 99.9792 104.717C99.9907 104.8 99.9792 104.897 99.9792 104.985C99.9803 105 99.9803 105.015 99.9792 105.029V105.224C99.9792 105.289 99.9792 105.354 99.9792 105.421C99.9792 105.488 99.9792 105.585 99.9792 105.669C99.9792 105.701 99.9792 105.736 99.9792 105.768C99.9792 105.835 99.9792 105.902 99.9792 105.972C100.005 106.676 100 107.445 99.9792 108.23Z" fill="white"/>
<path d="M29.1907 48.5817C32.2587 48.5817 34.7458 46.0945 34.7458 43.0265C34.7458 39.9584 32.2587 37.4713 29.1907 37.4713C26.1226 37.4713 23.6355 39.9584 23.6355 43.0265C23.6355 46.0945 26.1226 48.5817 29.1907 48.5817Z" fill="#BE6D57"/>
<path d="M32.5663 43.8194C33.0064 41.9549 31.8517 40.0866 29.9871 39.6466C28.1226 39.2065 26.2543 40.3612 25.8143 42.2258C25.3742 44.0903 26.529 45.9586 28.3935 46.3986C30.258 46.8387 32.1263 45.6839 32.5663 43.8194Z" fill="#A24330"/>
<path d="M69.0703 48.6372C72.1383 48.6372 74.6255 46.1501 74.6255 43.082C74.6255 40.014 72.1383 37.5269 69.0703 37.5269C66.0023 37.5269 63.5151 40.014 63.5151 43.082C63.5151 46.1501 66.0023 48.6372 69.0703 48.6372Z" fill="#BE6D57"/>
<path d="M72.4423 43.8752C72.8824 42.0106 71.7276 40.1424 69.8631 39.7023C67.9986 39.2623 66.1303 40.417 65.6903 42.2815C65.2502 44.1461 66.4049 46.0143 68.2695 46.4544C70.134 46.8945 72.0023 45.7397 72.4423 43.8752Z" fill="#A24330"/>
<path d="M59.4952 64.6173C58.2394 65.9738 56.5853 66.8965 54.7713 67.2525C48.496 68.5631 43.5568 65.4833 40.7526 63.0172C40.9017 61.2447 40.8239 59.4603 40.521 57.7075C42.2948 56.1977 44.5594 54.9658 46.9654 53.9678H60.396C60.396 53.9678 58.4092 59.6364 59.4952 64.6173Z" fill="#A24330"/>
<path d="M70.6658 34.5791C70.6658 34.7065 70.6658 34.8362 70.6658 34.9635C70.655 35.862 70.601 36.7628 70.5037 37.6659C69.1884 50.2443 60.0973 62.8528 49.075 62.8528C38.0526 62.8528 28.987 50.2767 27.6532 37.7145C27.5791 37.0198 27.5304 36.3251 27.505 35.6513C27.4911 35.2923 27.4841 34.9357 27.4841 34.5791C27.4841 21.0675 37.1518 10.1123 49.075 10.1123C60.9981 10.1123 70.6658 21.0721 70.6658 34.5791Z" fill="#BE6D57"/>
<path d="M57.2792 39.2752C58.3202 39.2752 59.1641 38.1639 59.1641 36.7929C59.1641 35.4219 58.3202 34.3105 57.2792 34.3105C56.2382 34.3105 55.3943 35.4219 55.3943 36.7929C55.3943 38.1639 56.2382 39.2752 57.2792 39.2752Z" fill="#341724"/>
<path d="M40.3126 39.3886C41.3537 39.3886 42.1976 38.2773 42.1976 36.9063C42.1976 35.5353 41.3537 34.424 40.3126 34.424C39.2716 34.424 38.4277 35.5353 38.4277 36.9063C38.4277 38.2773 39.2716 39.3886 40.3126 39.3886Z" fill="#341724"/>
<path d="M42.3017 33.0601C42.2206 33.0045 40.2963 31.7193 37.6704 33.588C37.5792 33.6522 37.4762 33.6978 37.3674 33.7221C37.2585 33.7465 37.146 33.7492 37.0361 33.7301C36.9262 33.7109 36.8212 33.6703 36.727 33.6106C36.6328 33.5509 36.5513 33.4732 36.4871 33.3819C36.423 33.2907 36.3774 33.1877 36.353 33.0789C36.3287 32.9701 36.326 32.8575 36.3451 32.7476C36.3643 32.6377 36.4048 32.5327 36.4646 32.4385C36.5243 32.3443 36.602 32.2628 36.6932 32.1987C38.5758 30.8626 40.2477 30.7746 41.3245 30.9367C42.0295 31.0321 42.7043 31.2837 43.2997 31.673C43.2997 31.673 44.168 32.238 43.7211 32.847C43.221 33.5417 42.3109 33.0462 42.3109 33.0462L42.3017 33.0601Z" fill="#341724"/>
<path d="M55.2877 32.7776C55.3664 32.722 57.2907 31.4369 59.9189 33.3056C60.1032 33.4355 60.3315 33.4868 60.5536 33.4484C60.7757 33.41 60.9735 33.2849 61.1034 33.1006C61.2333 32.9164 61.2846 32.6881 61.2462 32.466C61.2078 32.2438 61.0827 32.0461 60.8984 31.9162C59.0135 30.5801 57.344 30.4921 56.2672 30.6542C55.5614 30.7494 54.8858 31.001 54.2897 31.3905C54.2897 31.3905 53.4236 31.9556 53.8705 32.5669C54.3707 33.2477 55.2807 32.7637 55.2807 32.7637L55.2877 32.7776Z" fill="#341724"/>
<path d="M45.0133 41.5861C45.0133 41.5861 46.9306 35.8897 48.452 36.0031C49.9734 36.1166 53.6413 43.3367 53.6413 43.3367L45.0133 41.5861Z" fill="#A24330"/>
<path d="M70.6635 37.4388C70.6508 38.2615 70.5967 39.0831 70.5014 39.9003C70.4072 40.7247 70.2729 41.5475 70.0985 42.3688C69.9441 43.116 69.7558 43.8601 69.5335 44.6011C69.4733 44.8002 69.4131 44.9993 69.3482 45.1962L69.2903 45.3791C69.1884 45.6894 69.0819 45.9997 68.9684 46.3053C68.9684 46.3308 68.9499 46.3563 68.943 46.3794C68.8457 46.6388 68.7462 46.8981 68.6443 47.1552C68.5632 47.3566 68.4799 47.5558 68.3965 47.7549L68.327 47.9147C68.3016 47.9749 68.2738 48.0374 68.2483 48.1C68.1765 48.2644 68.1024 48.4288 68.0167 48.5909C67.9311 48.753 67.8755 48.8965 67.8014 49.054C67.7273 49.2115 67.637 49.3898 67.5536 49.5565C67.3545 49.9532 67.1468 50.3392 66.9307 50.7143C66.625 51.2561 66.3055 51.7887 65.9697 52.3074C65.5413 52.9674 65.0898 53.6088 64.6128 54.2248C64.5178 54.3498 64.4229 54.4702 64.3279 54.5906L64.1659 54.7921C63.7768 55.2714 63.3716 55.7345 62.9548 56.1815L62.9432 56.193C62.6345 56.5172 62.3257 56.8322 62.017 57.1378L61.7622 57.381C61.6187 57.5153 61.4751 57.6496 61.3269 57.7792C61.1787 57.9089 61.0838 57.9946 60.9587 58.1011C59.9563 58.9697 58.8766 59.7447 57.7331 60.4167L57.4853 60.5603C55.6236 61.626 53.5835 62.344 51.4647 62.6791L50.895 62.7555C50.2863 62.826 49.6739 62.8616 49.0611 62.862C47.1842 62.8576 45.3221 62.5294 43.5568 61.8918C43.3716 61.8269 43.1887 61.7575 43.0057 61.6857L42.7209 61.5722C41.7699 61.1773 40.8523 60.7065 39.9769 60.1643C39.7592 60.0323 39.5462 59.8957 39.3332 59.7522C39.1201 59.6086 38.87 59.4419 38.65 59.289C38.2147 58.9803 37.7886 58.6476 37.3718 58.291C37.1403 58.1057 36.9295 57.9135 36.7119 57.719C36.6355 57.6496 36.559 57.5801 36.4803 57.5083C35.9477 57.0174 35.4352 56.5002 34.9427 55.9568C34.8084 55.8117 34.6764 55.6635 34.5468 55.5122C33.9679 54.85 33.4191 54.153 32.9027 53.4282C32.5121 52.8786 32.1385 52.3159 31.7819 51.7401C31.5828 51.4159 31.3906 51.0894 31.2053 50.756C30.9738 50.3554 30.7584 49.9455 30.5523 49.5333C30.5523 49.5171 30.5361 49.5032 30.5292 49.4893L30.4528 49.3342C30.293 49.0123 30.1401 48.6858 29.9896 48.3593C29.9155 48.1949 29.8437 48.0305 29.772 47.8638C29.6701 47.6322 29.5728 47.4006 29.4779 47.1552C29.4246 47.0232 29.3737 46.8912 29.3227 46.7592L29.2347 46.5276C29.0773 46.1039 28.9268 45.6755 28.7901 45.2448C28.7392 45.0873 28.6906 44.9299 28.6419 44.7817C28.1631 43.2117 27.8252 41.6021 27.6323 39.9721C27.5582 39.3469 27.5096 38.7194 27.4841 38.0942C28.5836 39.4033 29.8909 40.5228 31.3535 41.4078C31.5851 41.5468 31.8167 41.6811 32.0737 41.8107C33.158 42.3766 34.3175 42.7851 35.517 43.0241C36.2637 43.1496 37.0273 43.1331 37.7678 42.9755C38.0225 42.9292 38.2819 42.8713 38.5458 42.8064C40.1367 42.4058 41.9012 41.6857 43.712 41.079L44.2747 40.8961C45.847 40.3982 47.4471 40.0161 48.9986 40.0347C50.5037 40.0532 51.8815 40.4468 53.2037 40.9377C53.6668 41.1091 54.1068 41.2897 54.5514 41.4727C56.7281 42.3642 58.8075 43.2673 61.1254 42.862C61.7739 42.7424 62.4042 42.5401 63.0011 42.26C63.2327 42.1511 63.4781 42.0284 63.712 41.9057C65.3792 41.0003 66.9747 39.6711 68.7415 38.5457C68.9036 38.4392 69.068 38.3373 69.2347 38.2377C69.7002 37.9274 70.1772 37.6704 70.6635 37.4388Z" fill="#FED8AD"/>
<g opacity="0.19">
<path opacity="0.19" d="M25.025 108.23H22.0146C22.4546 104.312 23.2558 97.564 23.5754 97.4852C23.8949 97.4065 24.5456 103.645 25.025 108.23Z" fill="#010101"/>
</g>
<g opacity="0.19">
<path opacity="0.19" d="M79.6294 108.371H76.8322L77.7839 97.6265L79.6294 108.371Z" fill="#010101"/>
</g>
<path d="M70.6473 37.425C66.3147 36.4548 66.6968 16.0194 58.4694 21.2157C44.6104 29.9803 34.2666 18.1591 32.5345 26.8218C30.8024 35.4845 27.6439 37.726 27.6439 37.726C27.6439 37.726 22.2161 25.5042 27.4401 18.7241C27.6467 18.456 27.8678 18.1993 28.1024 17.9553C28.9985 17.029 28.7415 16.3691 28.0607 15.5702C27.028 14.3661 25.0249 12.8401 24.534 9.54959C23.5661 3.03112 30.7677 -1.62096 46.0369 0.534885C62.3851 2.8505 63.8486 7.32891 67.0951 10.983C67.8978 11.9134 68.8343 12.7196 69.8738 13.375C70.1216 13.5278 70.3601 13.6899 70.5917 13.8566C80.3729 20.8869 74.8779 38.3698 70.6473 37.425Z" fill="#35221B"/>
<path d="M70.6009 13.8566C68.8804 17.5106 62.4708 19.2497 64.6845 16.9919C66.1989 15.4497 66.8311 12.8678 67.0951 10.9829C67.8978 11.9134 68.8343 12.7195 69.8738 13.3749C70.1308 13.5278 70.3693 13.6899 70.6009 13.8566Z" fill="#261814"/>
<path d="M27.4401 18.7287C27.6467 18.4606 27.8678 18.2039 28.1023 17.9599C28.9985 17.0337 28.7414 16.3737 28.0606 15.5748C28.8942 15.8239 29.7458 16.0082 30.6078 16.1259C33.9979 16.6169 29.8946 18.0039 27.4401 18.7287Z" fill="#261814"/>
<path d="M30.5453 49.4732L30.4689 49.3181C30.3091 48.9962 30.1563 48.6697 30.0058 48.3432C29.9317 48.1788 29.8599 48.0144 29.7881 47.8477L29.8645 47.975C30.1697 48.435 30.3995 48.9408 30.5453 49.4732V49.4732Z" fill="white"/>
<path d="M32.0945 41.8317C32.0945 42.5263 31.4854 43.0497 30.8394 43.6054C29.9409 44.3788 29.0216 45.1731 29.2532 46.5092C29.0957 46.0854 28.9452 45.6571 28.8086 45.2264C29.1189 44.3487 29.8553 43.7119 30.4735 43.1817C31.0432 42.6907 31.5341 42.267 31.5341 41.8317C31.5261 41.6648 31.4698 41.5039 31.372 41.3685C31.6035 41.5075 31.8351 41.6418 32.0921 41.7714C32.0947 41.7914 32.0955 41.8116 32.0945 41.8317Z" fill="white"/>
<path d="M38.5643 42.7787C38.3628 43.2418 37.8974 43.6447 37.4065 44.0639C36.2232 45.085 34.9982 46.1479 36.4362 48.4334C37.9946 50.9227 36.8507 52.0342 35.9314 52.928C35.0121 53.8219 34.2665 54.549 35.8573 56.5613C36.0925 56.8531 36.3046 57.1628 36.4918 57.4875C35.9592 56.9966 35.4467 56.4794 34.9542 55.936C34.8199 55.7909 34.6879 55.6427 34.5583 55.4914C33.984 54.0372 34.7898 53.243 35.5401 52.5251C36.4663 51.6174 37.2791 50.8324 35.9615 48.7298C34.2688 46.0275 35.8712 44.6451 37.0406 43.6355C37.3027 43.4206 37.5502 43.1885 37.7816 42.9408C38.041 42.9014 38.3003 42.8389 38.5643 42.7787Z" fill="white"/>
<path d="M45.9534 43.1053C45.9534 43.8 45.3444 44.3233 44.6984 44.8791C43.5128 45.9002 42.2901 46.9631 43.7258 49.2486C45.2842 51.7379 44.1403 52.8494 43.221 53.7456C42.3017 54.6417 41.5561 55.3665 43.1492 57.3764C44.9114 59.6064 44.307 60.9263 43.5683 61.8826C43.3831 61.8178 43.2002 61.7483 43.0172 61.6766C43.7536 60.7688 44.3047 59.743 42.7092 57.7238C40.8035 55.3132 41.8803 54.2666 42.8297 53.3426C43.7791 52.4187 44.571 51.6499 43.2511 49.5473C41.5584 46.845 43.1608 45.4626 44.3325 44.453C44.9021 43.9621 45.393 43.5383 45.393 43.1053C45.393 42.8205 45.1615 42.4893 44.7354 42.1188C44.3553 41.8075 44.0174 41.4479 43.7304 41.049L44.2931 40.8661C44.5308 41.1695 44.8001 41.4466 45.0966 41.6928C45.6709 42.1814 45.9511 42.6445 45.9534 43.1053Z" fill="white"/>
<path d="M54.9195 42.3411C54.9195 43.0358 54.3128 43.5591 53.6645 44.1148C52.4812 45.136 51.2585 46.1989 52.6942 48.4844C54.2526 50.9737 53.1087 52.0852 52.1894 52.979C51.2701 53.8729 50.5245 54.6 52.1153 56.6122C54.1646 59.2011 53.0161 60.5627 52.1778 61.5584C51.8235 61.9775 51.541 62.311 51.4831 62.6699L50.9135 62.7463C50.9482 62.1535 51.3766 61.658 51.7564 61.1972C52.5877 60.2107 53.4468 59.1895 51.6846 56.9596C49.7765 54.549 50.8556 53.5024 51.805 52.5784C52.7544 51.6545 53.544 50.8857 52.2265 48.7831C50.5337 46.0808 52.1362 44.6984 53.3055 43.6888C53.8752 43.1979 54.3684 42.7625 54.3661 42.3411C54.3661 42.0563 54.1345 41.7251 53.7085 41.3546C53.5325 41.2041 53.3727 41.0559 53.2291 40.9077C53.6922 41.0791 54.1322 41.2597 54.5768 41.4426C54.7888 41.6951 54.9096 42.0116 54.9195 42.3411V42.3411Z" fill="white"/>
<path d="M63.7305 41.871C63.6842 42.517 63.0983 43.0288 62.4801 43.5544C61.2968 44.5756 60.0718 45.6385 61.5098 47.924C63.0682 50.411 61.922 51.5248 61.0027 52.4186C60.0834 53.3124 59.3378 54.0395 60.9309 56.0518C61.2642 56.4589 61.545 56.9062 61.7669 57.3833C61.6233 57.5176 61.4797 57.6519 61.3315 57.7816C61.1215 57.2795 60.8383 56.8113 60.491 56.3922C58.5852 53.9817 59.662 52.935 60.6137 52.0111C61.5654 51.0871 62.3527 50.3183 61.0351 48.2158C59.3424 45.5134 60.9448 44.131 62.1142 43.1214C62.4522 42.8581 62.7563 42.554 63.0196 42.216C63.2581 42.1164 63.4966 41.9983 63.7305 41.871Z" fill="white"/>
<path d="M67.5628 49.5542C67.3636 49.9509 67.156 50.3369 66.9399 50.712C66.6342 51.2539 66.3146 51.7865 65.9789 52.3052C65.833 51.24 66.5115 50.5823 67.1367 49.9756C67.2826 49.8344 67.4284 49.6931 67.5628 49.5542Z" fill="white"/>
<path d="M70.2559 39.7406C70.2559 40.4352 69.6492 40.9586 69.0008 41.5166C67.8175 42.5378 66.5949 43.6007 68.0306 45.8862C68.2874 46.2819 68.4935 46.7082 68.6442 47.1552C68.5632 47.3566 68.4798 47.5558 68.3964 47.7549L68.327 47.9147C68.3015 47.9749 68.2737 48.0374 68.2483 48.0999C68.2483 47.5998 68.0607 46.9885 67.5536 46.1826C65.8609 43.4826 67.4633 42.1002 68.6326 41.0883C69.2046 40.5973 69.6955 40.162 69.6932 39.7382C69.6932 39.4557 69.4616 39.1246 69.0356 38.7541C68.9383 38.6707 68.8457 38.5874 68.7577 38.5063C68.9198 38.3998 69.0842 38.2979 69.2509 38.1984L69.3991 38.3257C69.9757 38.8189 70.2559 39.2798 70.2559 39.7406Z" fill="white"/>
<g opacity="0.19">
<path opacity="0.19" d="M62.5889 47.2386C62.5889 47.2386 48.2784 50.5685 36.2349 48.8596C36.2349 48.8596 46.2244 55.1627 62.5889 47.2386Z" fill="#010101"/>
</g>
<path d="M92.1015 84.2329C89.5543 83.8415 86.104 83.3692 82.4129 83.0288C72.5507 82.1164 65.4209 82.5402 61.79 84.2537C56.2742 86.8588 50.7515 88.3385 45.3723 88.6534C44.6568 88.6951 43.9412 88.7159 43.2303 88.7159C37.0986 88.7159 31.1474 87.1807 25.5089 84.1403C19.6643 80.9864 14.9798 80.5117 11.7449 80.8336C12.4951 80.2755 13.2662 79.7568 14.0466 79.2705C15.0038 79.2946 15.9584 79.3821 16.9041 79.5322C19.9144 80.0092 23.0358 81.1207 26.2129 82.8342C37.0963 88.702 48.8527 88.7298 61.1625 82.9176C65.0875 81.0651 72.2775 80.602 82.5634 81.5583C85.37 81.8177 88.0352 82.1511 90.2837 82.4707C90.9066 83.0264 91.5156 83.6123 92.1015 84.2329Z" fill="#F2D4C9"/>
<path d="M80.4492 76.4154C71.761 75.7693 65.4417 76.2533 62.0956 77.8326C56.5798 80.4376 51.0571 81.915 45.6779 82.2322C44.9624 82.2739 44.2469 82.2948 43.536 82.2948C37.4042 82.2948 31.4531 80.7595 25.8145 77.7191C24.3661 76.9283 22.8579 76.2523 21.3037 75.6976C22.0077 75.4228 22.7023 75.1634 23.3878 74.9195C24.4182 75.3525 25.4718 75.8458 26.5046 76.4154C37.388 82.2832 49.1444 82.311 61.4542 76.4988C64.4298 75.0932 69.288 74.4911 75.9407 74.6949C77.4204 75.1974 78.9325 75.7624 80.4492 76.4154Z" fill="#F2D4C9"/>
<path d="M97.1703 91.8768L97.1541 91.9556C97.0892 91.9417 90.5962 90.7028 83.0751 90.0081C73.2129 89.0958 66.0831 89.5218 62.4522 91.2354C56.9364 93.8405 51.4137 95.3178 46.0345 95.6351C45.319 95.6768 44.6034 95.6976 43.8925 95.6976C37.7608 95.6976 31.8096 94.1623 26.1711 91.1219C19.3354 87.4355 14.0882 87.4169 10.888 88.0375C7.47942 88.7067 5.66629 90.2073 5.65008 90.2212L4.69836 89.0911C4.78173 89.0194 6.8241 87.329 10.6032 86.588C12.9014 86.1563 15.2576 86.1328 17.5639 86.5185C20.5742 86.9978 23.6957 88.1093 26.8727 89.8229C37.7561 95.6906 49.5125 95.7184 61.8224 89.9062C65.7473 88.0537 72.9373 87.5906 83.2233 88.5447C89.0679 89.0865 94.2966 89.9502 96.4223 90.3277C96.6848 90.8263 96.9341 91.3427 97.1703 91.8768Z" fill="#F2D4C9"/>
<path d="M43.2303 102.119C37.0985 102.119 31.1474 100.583 25.5089 97.5431C18.6755 93.8566 13.426 93.8381 10.2258 94.4587C6.81719 95.1256 5.00406 96.6261 4.98785 96.6423L4.03613 95.5123C4.1195 95.4405 6.16187 93.7501 9.94096 93.0068C12.2395 92.572 14.5968 92.5469 16.904 92.9327C19.9143 93.4097 23.0358 94.5212 26.2128 96.2347C37.0962 102.103 48.8526 102.13 61.1625 96.3181C65.0874 94.4656 72.2774 94.0025 82.5634 94.9588C90.154 95.6535 96.7095 96.9109 96.7744 96.9225L96.4942 98.3744C96.4293 98.3628 89.9363 97.1239 82.4152 96.4292C72.553 95.5169 65.4232 95.9406 61.7923 97.6542C56.2765 100.259 50.7537 101.737 45.3746 102.054C44.6567 102.091 43.9412 102.119 43.2303 102.119Z" fill="#F2D4C9"/>
<path d="M96.3644 104.414L96.0842 105.865C96.0194 105.852 89.5264 104.613 82.0053 103.918C72.1431 103.006 65.0133 103.432 61.3824 105.145C58.6966 106.424 55.9002 107.457 53.0276 108.23H32.9512C30.2255 107.451 27.5932 106.376 25.1013 105.025C18.2656 101.338 13.0184 101.32 9.81819 101.94C6.4096 102.61 4.59647 104.11 4.58026 104.124L3.62854 102.994C3.7119 102.922 5.75428 101.232 9.53337 100.491C11.8315 100.059 14.1878 100.036 16.4941 100.421C19.5044 100.901 22.6259 102.012 25.8029 103.726C36.6863 109.594 48.4427 109.621 60.7525 103.809C64.6775 101.957 71.8675 101.494 82.1535 102.448C89.7441 103.152 96.2973 104.4 96.3644 104.414Z" fill="#F2D4C9"/>
<path d="M99.9791 108.23H67.5604C67.5419 105.553 67.447 101.767 67.1969 96.4733C67.1344 95.1511 67.1066 93.7733 67.1112 92.3793C67.1297 83.0173 68.4705 72.8216 69.0309 72.5576C71.0871 73.1736 73.4583 73.8428 75.9522 74.6949C77.2143 75.1256 78.4994 75.605 79.8077 76.1468C80.0208 76.2348 80.2361 76.3251 80.4492 76.4178C83.8508 77.8859 87.2733 79.8055 90.2813 82.4708C90.9065 83.0265 91.5155 83.6124 92.1014 84.233C93.8191 86.0503 95.2736 88.0995 96.4223 90.3207C96.6832 90.824 96.9325 91.3427 97.1703 91.8768C99.0806 96.1908 100.164 101.542 99.9791 108.23Z" fill="#5A549B"/>
<path d="M34.938 108.23H0.0208288C-0.375142 94.0349 4.95773 85.87 11.7448 80.8289C12.4951 80.2708 13.2662 79.7521 14.0465 79.2659C16.159 77.975 18.3777 76.8664 20.6785 75.9522L21.3037 75.6975C22.0076 75.4227 22.7023 75.1634 23.3877 74.9195C26.9422 73.669 30.2813 72.8053 32.8818 71.9647C33.0855 72.1523 33.9539 84.7307 34.5027 95.723C34.7343 100.618 34.9149 105.198 34.938 108.23Z" fill="#5A549B"/>
<path d="M79.8077 76.1468C77.462 82.5773 69.1837 90.4689 67.1112 92.3793C67.1297 83.0173 68.4705 72.8216 69.0308 72.5576C71.0871 73.1736 73.8589 72.3399 76.3528 73.1921C77.6149 73.6228 78.4994 75.605 79.8077 76.1468Z" fill="#4C4A89"/>
<path d="M34.5027 95.723L34.4749 95.7647C34.4749 95.7647 20.609 83.4734 20.6785 75.9523C20.8869 75.8689 25.5413 72.5182 26.625 72.1801C28.8897 71.4855 31.1358 72.5391 32.8772 71.9717C33.0879 72.1524 33.9562 84.7308 34.5027 95.723Z" fill="#4C4A89"/>
<path d="M32.3306 89.42V108.23H29.6399V89.42C29.6399 89.0619 29.7821 88.7185 30.0353 88.4654C30.2885 88.2122 30.6319 88.0699 30.9899 88.0699C31.3479 88.0699 31.6913 88.2122 31.9445 88.4654C32.1977 88.7185 32.3399 89.0619 32.3399 89.42H32.3306Z" fill="white"/>
<path d="M71.5132 86.9236V108.227H68.8132V86.9236C68.8132 86.5656 68.9555 86.2222 69.2086 85.969C69.4618 85.7158 69.8052 85.5736 70.1632 85.5736C70.5213 85.5736 70.8647 85.7158 71.1178 85.969C71.371 86.2222 71.5132 86.5656 71.5132 86.9236V86.9236Z" fill="white"/>
</svg>
