<svg width="100" height="107" viewBox="0 0 100 107" fill="none" xmlns="http://www.w3.org/2000/svg">
<g clip-path="url(#clip0)">
<path d="M99.9792 106.6H0.0209632C-0.106493 101.998 0.366254 98.0256 1.29553 94.5982C1.54426 93.6867 1.82235 92.813 2.12979 91.9772C3.17491 89.0953 4.69873 86.4104 6.63711 84.0355C11.6404 77.9246 18.6644 74.8517 24.7962 72.8101L25.0928 72.7127C26.1403 72.3698 27.1622 72.0569 28.1402 71.7649C30.2258 71.1392 32.1238 70.6062 33.6834 70.064C34.1631 69.8994 34.6103 69.7326 35.0251 69.5634C35.2754 69.4591 35.5141 69.3549 35.7389 69.2483L35.9104 69.1648L36.0564 69.0907C36.8389 68.6909 37.5518 68.1674 38.1675 67.5403L38.2278 67.4778C38.9081 66.7654 39.4572 65.9386 39.8499 65.0352C40.3426 63.874 40.6484 62.6422 40.756 61.3853C40.9064 59.613 40.8286 57.8287 40.5243 56.0762C40.3224 54.8089 40.0225 53.5592 39.6275 52.3383H60.3913C60.3913 52.3383 58.4192 58.0066 59.506 62.9983C59.6094 63.481 59.7449 63.9564 59.9116 64.4211C60.3198 65.5954 60.9785 66.6668 61.842 67.5612C61.9393 67.6585 62.0389 67.7558 62.1409 67.8485C62.6851 68.3437 63.2921 68.7652 63.9462 69.1023L64.0273 69.144C64.0334 69.1427 64.0397 69.1427 64.0458 69.144L64.1872 69.2135C64.8968 69.5473 65.6257 69.8383 66.3701 70.0848C68.4998 70.8171 71.2367 71.5425 74.2493 72.4995C75.3361 72.8472 76.4577 73.2226 77.5933 73.6443L77.8111 73.7231C82.7263 75.5585 87.9311 78.1934 92.0677 82.5501C93.7846 84.3582 95.2408 86.3971 96.3942 88.6077C97.0898 89.9408 97.6802 91.3262 98.1601 92.7512C99.4393 96.5865 100.132 101.149 99.9792 106.6Z" fill="#F58861"/>
<path d="M99.9793 106.6H0.0209632C-0.106493 101.998 0.366254 98.0256 1.29553 94.5982C1.54426 93.6867 1.82235 92.813 2.12979 91.9772C3.17491 89.0954 4.69873 86.4104 6.63711 84.0355C11.6404 77.9246 18.6644 74.8517 24.7962 72.8101L25.0928 72.7128C26.1403 72.3698 27.1622 72.0569 28.1402 71.765C30.2258 71.1393 32.1238 70.6063 33.6834 70.064C34.1631 69.8995 34.6103 69.7326 35.0251 69.5634C35.2754 69.4592 35.5141 69.3549 35.7389 69.2483L35.9104 69.1648L36.0564 69.0907C36.8389 68.6909 37.5518 68.1674 38.1675 67.5404L38.2278 67.4778C42.1951 68.7199 53.7914 71.7603 62.1247 67.837C62.6689 68.3322 63.2759 68.7537 63.9299 69.0907L64.011 69.1324C64.0172 69.1312 64.0235 69.1312 64.0296 69.1324L64.1709 69.2019C64.8805 69.5358 65.6095 69.8267 66.3539 70.0733C68.4836 70.8056 71.2204 71.5309 74.2331 72.488C75.3199 72.8356 76.4415 73.211 77.5771 73.6328L77.7949 73.7116C82.7101 75.5469 87.9149 78.1818 92.0515 82.5385C93.7684 84.3467 95.2246 86.3855 96.378 88.5962C97.0736 89.9293 97.664 91.3146 98.1439 92.7397C99.4393 96.5865 100.132 101.149 99.9793 106.6Z" fill="#5B8282"/>
<path d="M72.9978 40.1279C72.9978 40.1279 72.5135 30.7077 69.3711 25.6511C66.2287 20.5946 70.1521 42.188 70.1521 42.188L72.9978 40.1279Z" fill="#3C2C3A"/>
<path d="M27.737 42.188L26.9723 41.6342C26.2866 39.5413 25.8145 37.3844 25.5633 35.1965L25.5216 34.8048C26.0361 31.8131 26.9422 28.184 28.5157 25.6511C31.6581 20.5946 27.737 42.188 27.737 42.188Z" fill="#3C2C3A"/>
<path d="M29.1899 46.9526C32.259 46.9526 34.747 44.4646 34.747 41.3955C34.747 38.3264 32.259 35.8384 29.1899 35.8384C26.1208 35.8384 23.6328 38.3264 23.6328 41.3955C23.6328 44.4646 26.1208 46.9526 29.1899 46.9526Z" fill="#F58861"/>
<path d="M29.19 44.8645C31.1059 44.8645 32.6591 43.3113 32.6591 41.3954C32.6591 39.4795 31.1059 37.9263 29.19 37.9263C27.274 37.9263 25.7208 39.4795 25.7208 41.3954C25.7208 43.3113 27.274 44.8645 29.19 44.8645Z" fill="#E66E57"/>
<path d="M69.0699 47.0082C72.139 47.0082 74.627 44.5202 74.627 41.4511C74.627 38.382 72.139 35.894 69.0699 35.894C66.0008 35.894 63.5128 38.382 63.5128 41.4511C63.5128 44.5202 66.0008 47.0082 69.0699 47.0082Z" fill="#F58861"/>
<path d="M69.0698 44.9202C70.9858 44.9202 72.539 43.367 72.539 41.4511C72.539 39.5351 70.9858 37.9819 69.0698 37.9819C67.1539 37.9819 65.6007 39.5351 65.6007 41.4511C65.6007 43.367 67.1539 44.9202 69.0698 44.9202Z" fill="#E66E57"/>
<path d="M59.4968 62.9867C58.2403 64.3429 56.5858 65.2655 54.7716 65.6215C48.4938 66.9332 43.5554 63.8534 40.7537 61.3853C40.9028 59.613 40.825 57.8288 40.522 56.0762C42.2948 54.5653 44.5589 53.3347 46.9666 52.3383H60.3866C60.3866 52.3383 58.3983 58.0066 59.4968 62.9867Z" fill="#E66E57"/>
<path d="M70.6665 32.9486C70.6665 33.076 70.6665 33.2035 70.6665 33.3333C70.6557 34.2309 70.6024 35.1316 70.5066 36.0353C69.1927 48.6118 60.0992 61.2207 49.0777 61.2207C38.0562 61.2207 28.9882 48.6443 27.6557 36.084C27.5816 35.395 27.5321 34.7075 27.5074 34.0215C27.4935 33.6623 27.4866 33.3031 27.4866 32.9486C27.4866 19.4359 37.1524 8.48157 49.0777 8.48157C61.003 8.48157 70.6665 19.4359 70.6665 32.9486Z" fill="#F58861"/>
<path d="M55.6754 31.1805C55.7473 31.1132 57.4737 29.5722 60.3427 31.053C60.5421 31.1559 60.7743 31.1754 60.9881 31.1072C61.2019 31.039 61.3799 30.8886 61.4828 30.6892C61.5857 30.4897 61.6053 30.2576 61.537 30.0437C61.4688 29.8299 61.3184 29.652 61.119 29.549C59.0681 28.49 57.4112 28.6383 56.3637 28.9465C55.6785 29.1406 55.0452 29.485 54.5098 29.9546C54.5098 29.9546 53.7311 30.6335 54.2595 31.1758C54.8481 31.7807 55.6824 31.1758 55.6824 31.1758L55.6754 31.1805Z" fill="#341724"/>
<path d="M39.5209 37.4745C40.3118 37.4745 40.953 36.3633 40.953 34.9925C40.953 33.6218 40.3118 32.5106 39.5209 32.5106C38.7299 32.5106 38.0887 33.6218 38.0887 34.9925C38.0887 36.3633 38.7299 37.4745 39.5209 37.4745Z" fill="#341724"/>
<path d="M59.6219 34.9369C59.6219 36.3065 58.9799 37.4188 58.1897 37.4188C57.3995 37.4188 56.7599 36.3065 56.7599 34.9369C56.7599 33.5673 57.3995 32.455 58.1897 32.455C58.9799 32.455 59.6219 33.565 59.6219 34.9369Z" fill="#341724"/>
<path d="M41.6645 31.3009C41.5788 31.2522 39.5603 30.1236 37.0807 32.1954C36.908 32.3332 36.6881 32.3979 36.4683 32.3757C36.2484 32.3535 36.0459 32.2462 35.9042 32.0766C35.7625 31.907 35.6928 31.6887 35.71 31.4684C35.7272 31.248 35.8299 31.0432 35.9962 30.8976C37.7667 29.4168 39.4259 29.1967 40.5058 29.2755C41.2166 29.3145 41.9095 29.5125 42.5336 29.8548C42.5336 29.8548 43.4443 30.3484 43.0457 30.9927C42.6031 31.7111 41.6553 31.3009 41.6553 31.3009H41.6645Z" fill="#341724"/>
<path d="M45.0131 39.9564C45.0131 39.9564 46.9295 34.2602 48.4521 34.3715C49.9746 34.4827 53.643 41.713 53.643 41.713L45.0131 39.9564Z" fill="#E66E57"/>
<path d="M70.662 35.8082C70.6502 36.6308 70.5968 37.4522 70.5021 38.2693C70.2904 40.0689 69.9023 41.8432 69.3434 43.5669C69.226 43.9376 69.0993 44.3076 68.9634 44.6769C68.9216 44.7904 68.8799 44.9086 68.8359 45.0199C68.7919 45.1311 68.7363 45.2817 68.683 45.4138C68.5694 45.7058 68.4512 45.9955 68.3238 46.2828C68.1963 46.5702 68.0688 46.8622 67.9344 47.1495C67.8904 47.2399 67.8487 47.328 67.8047 47.416C67.7606 47.5041 67.6981 47.6478 67.6401 47.7521C66.4136 50.2381 64.8329 52.5331 62.9474 54.5652C61.3597 56.2869 59.5176 57.7554 57.4853 58.9196C54.9264 60.4027 52.0261 61.1957 49.0686 61.2207C46.8909 61.2124 44.7364 60.7745 42.7282 59.9323C40.5219 58.9998 38.4913 57.6973 36.7238 56.0808C34.8102 54.3365 33.1544 52.3288 31.8063 50.1181V50.1042C31.7322 49.9837 31.658 49.8725 31.5862 49.7404C31.2432 49.1657 30.9195 48.5786 30.6152 47.9792C30.5387 47.8285 30.4646 47.6779 30.3834 47.5157C30.0011 46.7301 29.6535 45.926 29.3406 45.1102C28.4974 42.9244 27.9299 40.6419 27.6512 38.3156C27.5771 37.6869 27.5276 37.0596 27.5029 36.4339C28.8934 38.077 31.5769 40.5821 35.5373 41.3676C38.9902 42.0629 44.2414 38.318 49.0176 38.3759C49.7374 38.3878 50.4539 38.4779 51.1542 38.6447C51.3466 38.6864 51.5389 38.7351 51.7266 38.7884C51.9908 38.8625 52.2527 38.9437 52.5122 39.0201C52.6953 39.0804 52.8737 39.143 53.0522 39.2102C55.8029 40.2136 58.2918 41.6944 61.1422 41.1892C64.4676 40.6075 67.1303 37.4907 70.662 35.8082Z" fill="#8EA3CD"/>
<g opacity="0.12">
<path opacity="0.12" d="M25.0279 106.6H22.0153C22.4556 102.681 23.2574 95.9399 23.5772 95.8541C23.897 95.7684 24.5644 102.014 25.0279 106.6Z" fill="#010101"/>
</g>
<g opacity="0.12">
<path opacity="0.12" d="M83.4632 106.6H80.6685L81.6186 95.8541L83.4632 106.6Z" fill="#010101"/>
</g>
<path d="M70.6945 38.7004V38.712C70.6945 38.712 68.4883 22.6571 54.3082 24.9328C40.8048 27.1134 36.3345 19.5703 35.9359 18.8403L35.9104 18.7894C35.9985 18.9886 38.1838 24.1541 31.5607 28.5479C27.2735 31.3936 27.4798 37.8476 27.4798 37.8476C26.6084 37.3099 20.231 28.0728 21.5241 21.7255C23.5309 11.8928 30.5619 11.1582 30.5619 11.1582C30.5109 11.0585 26.6223 3.38103 38.054 0.729933C44.4941 -0.774053 54.7392 0.0323988 62.8014 3.34627C69.1326 5.9487 74.1034 10.1038 74.78 15.9065C76.1496 27.7298 70.9123 38.2693 70.6945 38.7004Z" fill="#3C2C3A"/>
<path d="M30.5549 11.1582C30.5549 11.1582 26.474 9.82103 22.0593 14.5694C22.0593 14.5694 24.4671 7.41095 31.2918 10.2891C38.1165 13.1673 31.2918 10.0875 31.2918 10.0875L30.5549 11.1582Z" fill="#3C2C3A"/>
<path d="M64.0365 69.1416C61.7561 70.7036 49.0847 78.5085 35.9172 69.1648L36.0632 69.0907C36.8458 68.6909 37.5587 68.1674 38.1744 67.5403C38.8832 66.8143 39.4541 65.9655 39.8591 65.0352C42.1348 66.1198 52.3174 70.4185 59.9138 64.4095C60.322 65.5838 60.9807 66.6552 61.8442 67.5496C62.4587 68.1725 63.1691 68.6928 63.9484 69.0907L64.0295 69.1324C64.0322 69.1352 64.0345 69.1383 64.0365 69.1416V69.1416Z" fill="#8EA3CD"/>
<path d="M32.7958 42.5959L33.3265 44.4522L35.199 43.9841L33.8549 45.3722L35.199 46.7603L33.3265 46.2899L32.7958 48.1484L32.2652 46.2899L30.3927 46.7603L31.7345 45.3722L30.3927 43.9841L32.2652 44.4522L32.7958 42.5959Z" fill="#D4D472"/>
<path d="M43.2981 40.1882L43.8265 42.0445L45.7013 41.5764L44.3572 42.9645L45.7013 44.3503L43.8265 43.8822L43.2981 45.7407L42.7675 43.8822L40.8927 44.3503L42.2368 42.9645L40.8927 41.5764L42.7675 42.0445L43.2981 40.1882Z" fill="#D4D472"/>
<path d="M40.3552 45.4047L40.8835 47.2632L42.7583 46.7928L41.4142 48.1809L42.7583 49.569L40.8835 49.0986L40.3552 50.9571L39.8245 49.0986L37.9497 49.569L39.2938 48.1809L37.9497 46.7928L39.8245 47.2632L40.3552 45.4047Z" fill="#D4D472"/>
<path d="M41.7595 53.0983L42.2901 54.9545L44.1626 54.4841L42.8185 55.8722L44.1626 57.2603L42.2901 56.7922L41.7595 58.6484L41.2288 56.7922L39.354 57.2603L40.6981 55.8722L39.354 54.4841L41.2288 54.9545L41.7595 53.0983Z" fill="#D4D472"/>
<path d="M50.2526 47.613L50.7833 49.4693L52.6581 49.0012L51.314 50.3893L52.6581 51.7751L50.7833 51.307L50.2526 53.1632L49.7243 51.307L47.8495 51.7751L49.1936 50.3893L47.8495 49.0012L49.7243 49.4693L50.2526 47.613Z" fill="#D4D472"/>
<path d="M53.6639 40.9227L54.1946 42.7813L56.0693 42.3108L54.7252 43.699L56.0693 45.0871L54.1946 44.6166L53.6639 46.4752L53.1355 44.6166L51.2607 45.0871L52.6048 43.699L51.2607 42.3108L53.1355 42.7813L53.6639 40.9227Z" fill="#D4D472"/>
<path d="M64.2335 41.458L64.7641 43.3166L66.6366 42.8461L65.2925 44.2342L66.6366 45.6224L64.7641 45.1519L64.2335 47.0105L63.7028 45.1519L61.8303 45.6224L63.1744 44.2342L61.8303 42.8461L63.7028 43.3166L64.2335 41.458Z" fill="#D4D472"/>
<path d="M60.0854 49.2167L60.6161 51.0752L62.4908 50.6048L61.1467 51.9929L62.4908 53.381L60.6161 52.9106L60.0854 54.7691L59.557 52.9106L57.6823 53.381L59.0263 51.9929L57.6823 50.6048L59.557 51.0752L60.0854 49.2167Z" fill="#D4D472"/>
<path d="M52.5284 55.4388L53.0591 57.2951L54.9315 56.827L53.5874 58.2151L54.9315 59.6009L53.0591 59.1328L52.5284 60.989L51.9977 59.1328L50.1229 59.6009L51.467 58.2151L50.1229 56.827L51.9977 57.2951L52.5284 55.4388Z" fill="#D4D472"/>
<g opacity="0.12">
<path opacity="0.12" d="M59.9833 44.4753C59.9833 44.4753 48.1647 49.3117 38.8418 45.6062C38.8418 45.6062 45.8843 57.1306 59.9833 44.4753Z" fill="#010101"/>
</g>
<g opacity="0.22">
<path opacity="0.22" d="M70.6944 38.7004C70.6944 38.7004 70.6944 38.7004 70.6944 38.712C70.6944 38.712 68.4883 22.6572 54.3081 24.9328C40.8047 27.1135 36.3345 19.5704 35.9359 18.8404L35.9104 18.7894C35.9591 18.8358 40.2694 22.9839 53.8377 19.7164C67.4709 16.4535 74.6201 30.14 70.6944 38.7004Z" fill="#010101"/>
</g>
<g opacity="0.22">
<path opacity="0.22" d="M62.8014 3.34627C55.3162 1.49235 45.4465 0.296581 38.1931 2.93145C27.6906 6.74356 35.4493 15.8393 34.1121 14.9031C32.775 13.9669 30.5665 11.1582 30.5665 11.1582C30.5155 11.0585 26.627 3.38103 38.0586 0.729933C44.494 -0.774053 54.7392 0.0323988 62.8014 3.34627Z" fill="#010101"/>
</g>
</g>
<defs>
<clipPath id="clip0">
<rect width="100" height="106.6" fill="white"/>
</clipPath>
</defs>
</svg>
